<svg id="svg" version="1.1" xmlns="http://www.w3.org/2000/svg" xmlns:xlink="http://www.w3.org/1999/xlink" width="400" height="400" viewBox="0, 0, 400,400"><g id="svgg"><path id="path0" d="M148.600 109.558 L 131.800 109.800 129.869 110.952 C 128.696 111.651,127.685 112.633,127.295 113.452 L 126.652 114.800 121.426 114.846 C 118.552 114.872,115.930 114.917,115.600 114.946 C 115.155 114.986,114.967 115.621,114.871 117.395 C 114.801 118.713,114.711 119.822,114.671 119.860 C 114.610 119.920,108.259 120.314,106.329 120.378 C 105.262 120.413,104.401 121.548,104.394 122.929 C 104.385 124.757,104.075 125.016,101.400 125.429 L 99.000 125.800 98.881 128.300 L 98.762 130.800 96.405 130.800 C 93.660 130.800,93.673 130.787,93.340 133.966 C 93.096 136.303,93.041 136.400,91.969 136.400 C 88.711 136.400,88.211 137.597,88.020 145.849 C 88.003 146.574,87.703 146.727,85.976 146.893 C 83.121 147.167,83.019 147.360,82.868 152.771 L 82.735 157.503 80.926 157.707 C 77.831 158.056,77.307 159.778,77.228 169.848 L 77.200 173.496 75.365 173.703 C 72.167 174.063,72.071 174.522,72.029 189.647 L 72.000 200.295 70.345 200.517 C 66.833 200.988,66.852 200.847,66.830 226.200 C 66.810 248.819,66.653 247.656,69.763 247.914 C 72.227 248.118,72.220 248.105,72.006 251.945 C 71.965 252.685,72.094 253.189,72.293 253.066 C 72.492 252.943,72.577 253.375,72.481 254.027 C 72.087 256.716,74.614 258.960,77.259 258.269 C 77.666 258.162,78.000 258.238,78.000 258.437 C 78.000 258.637,78.281 258.800,78.624 258.800 C 79.006 258.800,79.138 258.607,78.965 258.300 C 78.739 257.900,78.790 257.900,79.221 258.300 C 79.518 258.575,80.421 258.800,81.228 258.800 C 82.676 258.800,82.699 258.825,82.903 260.641 C 83.249 263.705,83.486 263.798,90.913 263.799 L 97.400 263.800 99.357 262.433 C 100.433 261.682,101.601 260.566,101.952 259.955 C 103.662 256.976,104.000 257.933,104.000 265.748 C 104.000 274.422,104.133 274.800,107.179 274.800 C 109.320 274.800,109.606 275.337,109.627 279.400 C 109.638 281.425,110.278 283.878,110.896 284.259 C 111.793 284.813,114.769 285.089,114.957 284.635 C 115.069 284.364,115.149 284.389,115.168 284.700 C 115.190 285.041,115.964 285.200,117.600 285.200 C 119.977 285.200,120.000 285.211,120.000 286.350 C 120.000 290.814,120.197 290.873,134.590 290.718 C 146.968 290.585,146.441 290.728,146.715 287.414 L 146.899 285.200 148.550 285.188 C 155.584 285.139,156.571 284.720,157.000 281.597 C 157.260 279.711,157.310 279.652,158.854 279.391 C 160.682 279.082,162.000 277.871,162.000 276.498 C 162.000 275.975,162.174 275.223,162.386 274.826 C 162.599 274.429,162.792 270.401,162.816 265.876 C 162.854 258.715,162.938 257.678,163.463 257.880 C 163.954 258.068,163.967 258.175,163.534 258.450 C 163.209 258.655,163.956 258.790,165.444 258.794 L 167.889 258.800 168.134 260.869 C 168.268 262.008,168.573 263.133,168.809 263.369 C 169.111 263.670,180.043 263.800,205.159 263.800 C 243.969 263.800,242.175 263.902,242.516 261.671 C 242.689 260.545,242.927 267.120,242.808 269.701 C 242.650 273.127,243.691 274.382,246.700 274.395 C 248.093 274.400,248.170 274.584,248.008 277.520 C 247.909 279.312,248.630 280.065,250.370 279.987 C 253.075 279.865,253.035 279.832,253.430 282.500 C 253.835 285.237,253.582 285.061,257.244 285.161 C 258.679 285.200,258.690 285.214,258.934 287.269 C 259.335 290.659,259.680 290.742,273.474 290.776 C 283.871 290.802,285.200 290.606,285.200 289.050 C 285.200 286.713,287.699 285.200,291.560 285.200 C 295.725 285.200,296.000 284.996,296.000 281.920 L 296.000 279.600 297.556 279.600 C 300.661 279.600,301.069 278.578,301.182 270.518 C 301.198 269.353,301.337 269.213,302.700 268.983 C 303.525 268.844,304.500 268.649,304.867 268.549 C 305.755 268.307,306.398 266.344,306.409 263.840 L 306.418 261.800 307.187 262.800 C 307.953 263.796,307.984 263.800,314.610 263.800 C 322.146 263.800,322.096 263.820,322.582 260.582 L 322.849 258.800 324.725 258.767 C 326.754 258.731,327.222 258.685,330.099 258.243 C 332.797 257.828,333.140 256.817,333.192 249.100 C 333.200 248.048,333.287 248.000,335.200 248.000 C 339.060 248.000,338.890 248.865,338.734 230.066 C 338.577 211.114,338.668 211.617,335.296 211.044 L 333.200 210.687 333.200 205.758 C 333.200 200.133,333.122 200.000,329.826 200.000 L 328.000 200.000 328.000 198.433 C 328.000 197.554,327.781 196.778,327.500 196.665 C 327.100 196.504,327.100 196.457,327.500 196.432 C 327.775 196.414,328.000 196.209,328.000 195.976 C 328.000 195.743,327.822 195.663,327.605 195.797 C 327.378 195.937,327.311 195.777,327.447 195.421 C 327.632 194.939,327.386 194.794,326.343 194.771 C 324.844 194.739,322.766 192.693,322.596 191.082 C 322.544 190.597,322.479 190.079,322.451 189.932 C 322.423 189.784,321.230 189.538,319.800 189.385 C 316.993 189.085,316.999 189.093,317.125 186.100 C 317.145 185.605,316.991 185.200,316.781 185.200 C 316.572 185.200,316.400 184.930,316.400 184.600 C 316.400 184.133,315.867 184.000,314.000 184.000 L 311.600 184.000 311.600 182.400 C 311.600 179.638,309.932 178.830,304.300 178.864 C 303.255 178.870,300.982 178.858,299.250 178.838 L 296.099 178.800 295.915 176.586 C 295.665 173.561,295.891 173.648,287.533 173.346 L 280.090 173.077 279.901 171.115 C 279.666 168.660,279.334 168.334,276.824 168.093 L 274.800 167.898 274.800 166.123 C 274.800 163.254,274.361 162.800,271.586 162.800 L 269.200 162.800 269.180 161.100 C 269.104 154.710,268.480 152.983,266.103 152.588 C 263.651 152.180,263.600 152.133,263.600 150.275 C 263.600 148.159,262.878 147.398,260.500 147.008 C 258.818 146.733,258.800 146.712,258.795 145.065 C 258.786 142.314,258.432 141.501,257.334 141.710 C 256.810 141.811,256.285 141.737,256.167 141.546 C 256.049 141.356,255.333 141.200,254.576 141.200 L 253.200 141.200 253.200 138.843 C 253.200 136.149,253.031 136.000,249.967 136.000 L 248.000 136.000 248.000 134.033 C 248.000 130.943,247.868 130.800,245.009 130.800 L 242.504 130.800 242.297 128.959 C 242.182 127.946,241.823 126.852,241.498 126.527 C 240.850 125.879,235.450 125.065,233.184 125.275 L 231.768 125.405 231.872 123.229 C 232.018 120.174,231.933 120.125,226.325 120.050 C 220.593 119.973,221.286 120.327,221.129 117.395 L 221.000 115.000 214.523 114.883 L 208.046 114.766 206.623 113.343 C 205.840 112.560,205.200 111.600,205.200 111.209 C 205.200 110.818,204.951 110.291,204.647 110.039 C 203.960 109.469,173.123 109.204,148.600 109.558 M193.200 116.576 C 196.399 117.019,197.797 117.801,199.022 119.832 C 199.390 120.441,200.386 120.562,206.830 120.774 C 215.067 121.045,217.563 121.803,218.168 124.216 C 218.490 125.499,220.091 126.200,223.548 126.575 C 226.482 126.892,228.973 128.239,229.341 129.707 C 229.596 130.724,231.648 131.600,233.773 131.600 C 235.718 131.600,236.321 132.226,236.611 134.551 L 236.880 136.705 238.685 136.908 C 240.784 137.145,241.967 138.143,242.346 139.998 C 242.573 141.107,242.903 141.402,244.643 142.051 C 246.728 142.829,246.826 142.971,247.815 146.649 C 247.882 146.897,248.581 147.220,249.370 147.368 C 251.252 147.721,252.309 148.917,252.630 151.059 C 252.891 152.798,252.892 152.800,254.583 152.800 C 256.685 152.800,257.585 153.691,257.888 156.069 C 258.200 158.514,258.586 159.071,260.178 159.369 C 261.581 159.633,262.800 160.849,262.800 161.985 C 262.800 163.426,264.242 166.033,265.300 166.505 C 265.905 166.775,266.400 167.165,266.400 167.372 C 266.400 167.579,266.765 168.137,267.212 168.612 C 267.706 169.138,268.119 170.287,268.269 171.550 C 268.557 173.984,268.665 174.078,271.800 174.600 L 274.200 175.000 274.757 176.853 L 275.314 178.706 278.157 179.127 C 279.721 179.358,282.853 179.724,285.118 179.940 C 289.581 180.365,290.077 180.599,291.210 182.819 C 292.041 184.448,292.975 184.795,296.550 184.806 C 301.346 184.821,304.800 186.334,304.800 188.419 C 304.800 189.682,305.105 189.842,308.588 190.398 C 311.816 190.914,314.404 192.256,314.956 193.701 C 315.187 194.307,315.680 194.898,316.051 195.016 C 316.422 195.134,316.827 195.494,316.950 195.815 C 317.074 196.137,317.642 196.400,318.214 196.400 C 319.793 196.400,320.800 197.107,320.800 198.216 C 320.800 198.759,321.160 199.874,321.599 200.694 C 322.039 201.514,322.510 202.780,322.646 203.507 C 322.824 204.456,323.247 205.007,324.147 205.462 C 326.833 206.822,326.834 206.823,327.403 214.400 C 327.766 219.232,327.973 219.978,329.029 220.243 C 331.116 220.767,331.987 224.803,332.063 234.305 C 332.131 242.697,331.779 244.237,329.596 245.094 C 327.819 245.793,327.661 246.071,327.049 249.574 C 326.499 252.726,326.887 252.584,317.777 252.969 C 308.440 253.364,308.524 253.401,307.610 248.489 C 307.112 245.817,306.567 244.800,305.633 244.800 C 304.304 244.800,302.778 242.240,302.475 239.503 L 302.200 237.018 300.200 236.687 C 297.689 236.271,297.220 235.803,296.871 233.364 L 296.591 231.405 294.071 230.954 C 291.676 230.525,288.800 228.458,288.800 227.165 C 288.800 226.038,274.727 225.356,265.188 226.021 C 258.256 226.505,258.154 226.531,257.875 227.912 C 257.534 229.598,256.176 230.800,254.613 230.800 C 253.230 230.800,251.600 232.235,251.600 233.454 C 251.600 234.302,250.099 235.599,249.100 235.613 C 247.983 235.628,247.009 236.931,246.643 238.899 C 246.364 240.397,244.933 241.600,243.427 241.600 C 242.739 241.600,242.639 241.985,242.055 246.883 C 241.641 250.363,240.950 252.040,239.676 252.663 C 239.304 252.845,224.600 253.085,207.000 253.197 C 189.400 253.309,174.667 253.561,174.260 253.758 C 173.824 253.969,173.413 253.969,173.260 253.758 C 173.117 253.561,172.190 253.130,171.200 252.800 C 169.833 252.344,169.234 251.866,168.707 250.812 C 168.272 249.940,167.436 249.152,166.458 248.691 C 165.004 248.007,164.869 247.794,164.417 245.479 C 163.604 241.312,160.916 236.800,159.247 236.800 C 158.926 236.800,158.196 234.842,157.813 232.953 C 157.579 231.803,157.407 231.689,155.572 231.471 C 152.610 231.120,150.566 229.878,149.568 227.823 C 148.716 226.067,147.768 225.955,133.600 225.933 C 119.472 225.911,118.657 226.017,118.276 227.920 C 117.986 229.372,117.088 230.316,115.672 230.658 C 114.338 230.980,112.400 232.306,112.400 232.896 C 112.400 233.619,111.130 234.800,110.352 234.800 C 109.954 234.800,109.416 235.205,109.156 235.700 C 108.896 236.195,108.439 236.744,108.142 236.920 C 107.844 237.096,107.600 237.507,107.600 237.834 C 107.600 238.792,106.366 240.400,105.630 240.400 C 104.105 240.400,103.578 241.352,103.009 245.139 C 102.371 249.383,101.659 250.800,100.164 250.800 C 99.604 250.800,98.496 251.295,97.702 251.900 C 96.274 252.987,96.190 252.999,90.740 252.929 C 81.958 252.817,78.800 251.750,78.800 248.895 C 78.800 247.230,77.491 244.852,76.304 244.360 C 73.948 243.384,73.396 241.239,73.429 233.200 C 73.461 225.439,73.794 220.595,74.403 218.991 C 74.625 218.409,74.706 217.772,74.584 217.575 C 74.265 217.057,75.130 215.607,76.391 214.546 C 77.704 213.442,78.444 207.109,78.397 197.400 C 78.350 187.960,79.508 182.740,81.774 182.171 C 82.849 181.901,82.978 181.291,83.413 174.400 C 83.825 167.873,84.777 165.391,87.030 164.968 C 88.540 164.685,88.573 164.588,88.987 159.244 C 89.214 156.320,90.116 153.648,90.963 153.397 C 91.203 153.325,91.892 153.159,92.494 153.027 C 93.684 152.767,93.654 152.847,94.444 147.800 C 95.007 144.212,95.379 143.651,97.411 143.321 C 98.972 143.067,99.356 142.568,99.776 140.242 C 100.203 137.883,101.003 136.934,102.810 136.645 C 104.290 136.408,104.408 136.288,104.649 134.783 C 104.925 133.058,106.314 131.600,107.680 131.600 C 109.158 131.600,109.922 130.846,110.209 129.105 C 110.567 126.934,111.014 126.400,112.472 126.400 C 115.153 126.400,117.037 125.606,117.523 124.270 C 118.572 121.391,119.992 121.113,135.600 120.725 C 148.879 120.395,153.869 119.959,153.382 119.171 C 153.256 118.967,153.523 118.778,153.976 118.750 C 154.904 118.694,154.767 118.724,157.200 118.033 C 158.190 117.752,159.183 117.372,159.406 117.190 C 159.629 117.007,162.239 116.732,165.206 116.578 C 168.173 116.424,170.670 116.236,170.755 116.160 C 171.013 115.932,191.262 116.307,193.200 116.576 M175.941 141.083 C 175.316 141.179,174.798 141.564,174.678 142.023 C 174.566 142.450,174.201 142.800,173.866 142.800 C 172.892 142.800,172.752 145.691,172.881 163.153 L 173.000 179.306 204.400 179.245 C 227.047 179.200,236.772 179.318,239.286 179.666 C 243.503 180.250,244.855 179.651,243.832 177.651 C 243.537 177.073,243.170 175.849,243.017 174.930 C 242.756 173.358,242.646 173.244,241.140 172.990 C 239.332 172.684,238.004 171.033,238.001 169.087 C 238.000 167.957,237.875 167.859,235.866 167.417 C 234.275 167.067,232.800 165.470,232.800 164.098 C 232.800 162.787,232.162 162.000,231.100 162.000 C 229.403 162.000,228.033 160.829,227.470 158.899 C 226.944 157.094,226.839 156.995,225.159 156.714 C 223.268 156.398,221.600 154.939,221.600 153.601 C 221.600 152.510,220.452 151.980,215.600 150.832 C 213.144 150.250,212.806 149.978,212.548 148.368 C 212.249 146.495,212.214 146.482,206.257 146.037 C 203.690 145.846,201.367 145.509,201.095 145.290 C 200.823 145.070,199.825 144.763,198.879 144.606 C 197.172 144.325,195.557 143.192,195.106 141.960 C 194.737 140.954,180.900 140.321,175.941 141.083 M138.800 144.824 C 137.370 144.956,135.812 145.192,135.338 145.347 C 134.863 145.503,132.463 145.878,130.004 146.182 C 124.833 146.821,125.260 146.599,124.880 148.845 C 124.586 150.582,124.562 150.603,122.591 150.934 C 119.683 151.423,119.435 151.643,119.089 154.043 C 118.871 155.556,118.483 156.472,117.789 157.115 C 117.245 157.620,116.800 158.176,116.800 158.352 C 116.800 158.528,116.367 158.869,115.838 159.110 C 115.060 159.465,114.752 160.107,114.227 162.474 C 113.391 166.242,112.870 167.520,112.057 167.797 C 109.879 168.539,109.162 169.869,108.763 173.903 C 108.551 176.046,108.304 178.010,108.214 178.267 C 108.124 178.524,108.354 178.862,108.725 179.019 C 109.804 179.474,157.336 179.224,157.800 178.761 C 158.382 178.179,158.589 147.837,158.023 145.933 L 157.587 144.465 149.494 144.525 C 145.042 144.557,140.230 144.692,138.800 144.824 M202.100 152.008 L 205.600 152.000 205.600 153.556 C 205.600 156.704,206.612 157.136,214.100 157.187 L 216.000 157.200 216.000 159.586 C 216.000 162.362,216.454 162.800,219.331 162.800 C 221.332 162.800,221.600 163.133,221.600 165.619 C 221.600 167.487,222.326 168.000,224.974 168.000 L 226.800 168.000 226.800 170.120 C 226.800 171.286,227.016 172.456,227.280 172.720 C 227.653 173.093,222.320 173.200,203.280 173.200 L 178.800 173.200 178.800 162.414 L 178.800 151.627 188.700 151.821 C 194.145 151.928,200.175 152.012,202.100 152.008 M152.000 162.600 L 152.000 173.200 135.520 173.200 C 122.702 173.200,119.147 173.093,119.520 172.720 C 119.839 172.401,120.000 170.658,120.000 167.520 L 120.000 162.800 122.120 162.800 C 124.796 162.800,125.200 162.376,125.200 159.570 L 125.200 157.299 127.437 157.114 C 129.978 156.903,130.278 156.603,130.645 153.900 L 130.903 152.000 141.452 152.000 L 152.000 152.000 152.000 162.600 M276.445 236.357 C 276.919 237.427,277.179 237.546,279.581 237.783 C 287.088 238.527,288.611 239.059,288.982 241.068 C 289.353 243.076,290.596 244.358,292.462 244.656 C 294.850 245.038,295.898 252.137,295.408 264.600 C 295.048 273.749,295.250 273.218,291.911 273.781 C 290.608 274.001,290.372 274.218,290.021 275.516 C 289.373 277.914,288.632 278.659,286.625 278.935 C 283.635 279.344,282.116 280.163,281.817 281.524 C 281.038 285.067,267.356 285.150,266.405 281.618 C 266.073 280.385,265.757 280.016,264.893 279.850 C 260.047 278.917,259.186 278.702,258.983 278.373 C 258.857 278.168,258.380 278.000,257.923 278.000 C 256.948 278.000,255.600 276.585,255.600 275.562 C 255.600 275.169,255.432 274.743,255.227 274.617 C 254.899 274.414,254.671 273.500,253.756 268.734 C 253.606 267.955,253.136 267.501,252.013 267.052 C 249.737 266.141,248.472 258.831,249.946 255.100 C 250.185 254.495,250.290 254.000,250.180 254.000 C 249.396 254.000,251.427 251.535,252.366 251.347 C 253.571 251.106,254.076 250.028,254.631 246.518 C 254.938 244.575,255.643 243.811,257.593 243.310 C 258.849 242.988,259.016 242.778,259.288 241.176 C 259.690 238.813,259.973 238.665,265.245 238.048 C 269.078 237.600,269.970 237.360,270.991 236.499 C 273.732 234.189,275.465 234.143,276.445 236.357 M136.952 236.146 C 137.597 237.690,137.909 237.803,143.216 238.397 C 148.798 239.022,149.728 239.452,150.207 241.631 C 150.528 243.094,152.480 245.200,153.515 245.200 C 154.047 245.200,154.528 245.694,154.974 246.700 C 155.340 247.525,155.852 248.560,156.114 249.000 C 156.807 250.168,157.012 263.765,156.399 267.927 C 155.859 271.597,155.062 272.800,153.173 272.800 C 151.944 272.800,151.401 273.806,150.978 276.863 C 150.733 278.632,150.647 278.738,149.260 278.970 C 143.167 279.987,142.845 280.095,142.720 281.169 C 142.283 284.922,127.865 285.150,125.676 281.438 C 124.905 280.133,123.706 279.647,119.234 278.830 C 117.054 278.431,116.810 278.103,115.614 273.965 C 114.797 271.136,114.377 270.369,112.773 268.773 C 110.965 266.975,110.880 266.785,110.599 263.951 C 110.439 262.328,110.240 260.640,110.157 260.201 C 110.016 259.443,110.618 253.163,111.006 251.356 C 111.126 250.799,111.851 250.236,113.142 249.700 C 115.082 248.893,115.099 248.870,115.375 246.664 C 115.527 245.442,116.001 243.999,116.426 243.458 C 116.852 242.916,117.200 242.203,117.200 241.871 C 117.200 240.937,120.876 238.892,123.055 238.614 C 128.580 237.908,130.059 237.508,130.469 236.609 C 130.751 235.990,131.439 235.597,132.737 235.315 C 136.004 234.605,136.335 234.670,136.952 236.146 " stroke="none" fill="#06e47b" fill-rule="evenodd"></path><path id="path1" d="M170.755 116.160 C 170.670 116.236,168.173 116.424,165.206 116.578 C 162.239 116.732,159.629 117.007,159.406 117.190 C 159.183 117.372,158.190 117.752,157.200 118.033 C 154.767 118.724,154.904 118.694,153.976 118.750 C 153.523 118.778,153.256 118.967,153.382 119.171 C 153.869 119.959,148.879 120.395,135.600 120.725 C 119.992 121.113,118.572 121.391,117.523 124.270 C 117.037 125.606,115.153 126.400,112.472 126.400 C 111.014 126.400,110.567 126.934,110.209 129.105 C 109.922 130.846,109.158 131.600,107.680 131.600 C 106.314 131.600,104.925 133.058,104.649 134.783 C 104.408 136.288,104.290 136.408,102.810 136.645 C 101.003 136.934,100.203 137.883,99.776 140.242 C 99.356 142.568,98.972 143.067,97.411 143.321 C 95.379 143.651,95.007 144.212,94.444 147.800 C 93.654 152.847,93.684 152.767,92.494 153.027 C 91.892 153.159,91.203 153.325,90.963 153.397 C 90.116 153.648,89.214 156.320,88.987 159.244 C 88.573 164.588,88.540 164.685,87.030 164.968 C 84.777 165.391,83.825 167.873,83.413 174.400 C 82.978 181.291,82.849 181.901,81.774 182.171 C 79.508 182.740,78.350 187.960,78.397 197.400 C 78.444 207.109,77.704 213.442,76.391 214.546 C 75.130 215.607,74.265 217.057,74.584 217.575 C 74.706 217.772,74.625 218.409,74.403 218.991 C 73.794 220.595,73.461 225.439,73.429 233.200 C 73.396 241.239,73.948 243.384,76.304 244.360 C 77.491 244.852,78.800 247.230,78.800 248.895 C 78.800 251.750,81.958 252.817,90.740 252.929 C 96.190 252.999,96.274 252.987,97.702 251.900 C 98.496 251.295,99.604 250.800,100.164 250.800 C 101.659 250.800,102.371 249.383,103.009 245.139 C 103.578 241.352,104.105 240.400,105.630 240.400 C 106.366 240.400,107.600 238.792,107.600 237.834 C 107.600 237.507,107.844 237.096,108.142 236.920 C 108.439 236.744,108.896 236.195,109.156 235.700 C 109.416 235.205,109.954 234.800,110.352 234.800 C 111.130 234.800,112.400 233.619,112.400 232.896 C 112.400 232.306,114.338 230.980,115.672 230.658 C 117.088 230.316,117.986 229.372,118.276 227.920 C 118.657 226.017,119.472 225.911,133.600 225.933 C 147.768 225.955,148.716 226.067,149.568 227.823 C 150.566 229.878,152.610 231.120,155.572 231.471 C 157.407 231.689,157.579 231.803,157.813 232.953 C 158.196 234.842,158.926 236.800,159.247 236.800 C 160.916 236.800,163.604 241.312,164.417 245.479 C 164.869 247.794,165.004 248.007,166.458 248.691 C 167.436 249.152,168.272 249.940,168.707 250.812 C 169.234 251.866,169.833 252.344,171.200 252.800 C 172.190 253.130,173.117 253.561,173.260 253.758 C 173.413 253.969,173.824 253.969,174.260 253.758 C 174.667 253.561,189.400 253.309,207.000 253.197 C 224.600 253.085,239.304 252.845,239.676 252.663 C 240.950 252.040,241.641 250.363,242.055 246.883 C 242.639 241.985,242.739 241.600,243.427 241.600 C 244.933 241.600,246.364 240.397,246.643 238.899 C 247.009 236.931,247.983 235.628,249.100 235.613 C 250.099 235.599,251.600 234.302,251.600 233.454 C 251.600 232.235,253.230 230.800,254.613 230.800 C 256.176 230.800,257.534 229.598,257.875 227.912 C 258.154 226.531,258.256 226.505,265.188 226.021 C 274.727 225.356,288.800 226.038,288.800 227.165 C 288.800 228.458,291.676 230.525,294.071 230.954 L 296.591 231.405 296.871 233.364 C 297.220 235.803,297.689 236.271,300.200 236.687 L 302.200 237.018 302.475 239.503 C 302.778 242.240,304.304 244.800,305.633 244.800 C 306.567 244.800,307.112 245.817,307.610 248.489 C 308.524 253.401,308.440 253.364,317.777 252.969 C 326.887 252.584,326.499 252.726,327.049 249.574 C 327.661 246.071,327.819 245.793,329.596 245.094 C 331.779 244.237,332.131 242.697,332.063 234.305 C 331.987 224.803,331.116 220.767,329.029 220.243 C 327.973 219.978,327.766 219.232,327.403 214.400 C 326.834 206.823,326.833 206.822,324.147 205.462 C 323.247 205.007,322.824 204.456,322.646 203.507 C 322.510 202.780,322.039 201.514,321.599 200.694 C 321.160 199.874,320.800 198.759,320.800 198.216 C 320.800 197.107,319.793 196.400,318.214 196.400 C 317.642 196.400,317.074 196.137,316.950 195.815 C 316.827 195.494,316.422 195.134,316.051 195.016 C 315.680 194.898,315.187 194.307,314.956 193.701 C 314.404 192.256,311.816 190.914,308.588 190.398 C 305.105 189.842,304.800 189.682,304.800 188.419 C 304.800 186.334,301.346 184.821,296.550 184.806 C 292.975 184.795,292.041 184.448,291.210 182.819 C 290.077 180.599,289.581 180.365,285.118 179.940 C 282.853 179.724,279.721 179.358,278.157 179.127 L 275.314 178.706 274.757 176.853 L 274.200 175.000 271.800 174.600 C 268.665 174.078,268.557 173.984,268.269 171.550 C 268.119 170.287,267.706 169.138,267.212 168.612 C 266.765 168.137,266.400 167.579,266.400 167.372 C 266.400 167.165,265.905 166.775,265.300 166.505 C 264.242 166.033,262.800 163.426,262.800 161.985 C 262.800 160.849,261.581 159.633,260.178 159.369 C 258.586 159.071,258.200 158.514,257.888 156.069 C 257.585 153.691,256.685 152.800,254.583 152.800 C 252.892 152.800,252.891 152.798,252.630 151.059 C 252.309 148.917,251.252 147.721,249.370 147.368 C 248.581 147.220,247.882 146.897,247.815 146.649 C 246.826 142.971,246.728 142.829,244.643 142.051 C 242.903 141.402,242.573 141.107,242.346 139.998 C 241.967 138.143,240.784 137.145,238.685 136.908 L 236.880 136.705 236.611 134.551 C 236.321 132.226,235.718 131.600,233.773 131.600 C 231.648 131.600,229.596 130.724,229.341 129.707 C 228.973 128.239,226.482 126.892,223.548 126.575 C 220.091 126.200,218.490 125.499,218.168 124.216 C 217.563 121.803,215.067 121.045,206.830 120.774 C 200.386 120.562,199.390 120.441,199.022 119.832 C 197.797 117.801,196.399 117.019,193.200 116.576 C 191.262 116.307,171.013 115.932,170.755 116.160 M186.304 119.562 C 187.494 120.031,189.847 120.430,192.419 120.599 C 194.718 120.750,198.476 121.127,200.770 121.437 C 203.063 121.747,206.192 122.000,207.723 122.000 C 211.584 122.000,213.395 122.626,214.849 124.462 C 215.630 125.448,216.573 126.118,217.527 126.365 C 218.337 126.575,220.170 127.039,221.600 127.396 C 224.454 128.110,225.080 128.482,226.086 130.057 C 226.756 131.105,230.710 132.784,232.578 132.813 C 233.755 132.831,234.590 133.598,235.128 135.155 C 235.660 136.694,236.309 137.284,238.645 138.353 C 239.794 138.879,240.517 139.572,241.045 140.653 C 241.485 141.554,242.301 142.430,243.000 142.752 C 244.782 143.571,245.921 144.749,246.433 146.301 C 246.786 147.369,247.292 147.862,248.648 148.462 C 249.962 149.044,250.561 149.610,251.018 150.705 C 251.843 152.679,252.711 153.570,254.512 154.291 C 256.082 154.920,256.800 155.805,256.800 157.112 C 256.800 158.440,258.064 160.482,260.275 162.729 C 261.810 164.289,262.541 165.405,262.862 166.682 C 263.160 167.863,263.595 168.573,264.155 168.793 C 265.545 169.337,266.711 170.682,267.007 172.082 C 267.363 173.773,269.076 175.600,270.306 175.600 C 271.243 175.600,272.728 176.892,274.061 178.868 C 274.748 179.885,278.169 180.800,281.287 180.800 C 282.755 180.800,285.996 182.309,287.476 183.681 C 288.039 184.204,289.678 184.756,292.076 185.232 C 299.988 186.799,299.802 186.735,301.652 188.556 C 303.000 189.882,303.903 190.388,305.600 190.768 C 309.104 191.552,310.009 192.029,311.016 193.626 C 311.629 194.597,312.464 195.291,313.382 195.594 C 314.162 195.851,314.800 196.228,314.800 196.431 C 314.800 196.634,315.065 196.800,315.390 196.800 C 315.714 196.800,316.254 197.332,316.591 197.982 C 316.927 198.632,317.907 199.731,318.770 200.424 C 319.632 201.117,320.559 202.250,320.829 202.942 C 321.965 205.851,322.520 206.784,323.254 207.017 C 325.164 207.623,325.975 209.891,326.618 216.428 C 326.952 219.823,327.492 224.400,327.818 226.600 C 329.385 237.177,329.385 237.178,328.842 238.519 C 328.557 239.224,328.168 240.520,327.978 241.400 C 327.536 243.451,325.772 248.930,325.226 249.952 C 324.455 251.391,313.175 253.057,311.233 252.018 C 310.085 251.403,308.800 249.611,308.800 248.624 C 308.800 246.759,307.125 242.769,306.057 242.088 C 304.618 241.170,303.896 240.124,303.275 238.057 C 302.811 236.514,302.519 236.212,300.780 235.478 C 299.169 234.797,298.728 234.387,298.355 233.223 C 297.723 231.250,296.934 230.467,295.079 229.967 C 293.575 229.562,293.028 229.114,291.299 226.869 C 290.358 225.647,286.801 224.814,282.490 224.806 C 280.219 224.802,278.466 224.549,276.904 224.000 C 274.097 223.013,269.985 222.929,268.609 223.831 C 268.018 224.218,265.981 224.614,263.324 224.859 C 258.786 225.277,256.192 226.119,254.565 227.702 C 252.750 229.469,251.775 230.261,250.102 231.327 C 249.169 231.921,247.975 233.081,247.450 233.904 C 246.926 234.727,245.636 236.300,244.586 237.400 C 242.156 239.945,241.281 241.932,240.961 245.638 C 240.365 252.543,241.177 252.400,202.446 252.400 C 173.671 252.400,173.225 252.388,171.848 251.575 C 170.368 250.702,168.800 248.456,168.800 247.208 C 168.800 246.797,168.350 245.927,167.800 245.273 C 167.250 244.619,166.800 243.963,166.800 243.816 C 166.800 243.668,166.376 242.974,165.859 242.273 C 165.341 241.573,164.576 240.130,164.159 239.067 C 163.640 237.745,163.020 236.938,162.200 236.516 C 160.611 235.698,159.885 234.891,159.218 233.200 C 158.438 231.222,158.112 230.887,156.672 230.582 C 154.960 230.219,152.885 228.606,152.728 227.516 C 152.532 226.159,148.035 224.851,143.400 224.803 C 141.109 224.779,139.218 224.532,138.200 224.123 C 135.584 223.075,132.125 223.015,129.291 223.969 C 127.674 224.514,125.803 224.800,123.859 224.800 C 119.374 224.800,117.047 225.710,114.419 228.492 C 113.219 229.761,111.995 230.800,111.699 230.800 C 110.507 230.800,108.857 232.026,108.614 233.093 C 108.278 234.568,106.679 236.344,105.234 236.848 C 103.901 237.313,103.285 238.583,102.180 243.154 C 100.916 248.379,95.736 252.566,91.000 252.190 C 83.512 251.596,80.069 248.923,78.319 242.348 C 77.829 240.507,77.101 238.646,76.702 238.212 C 76.163 237.627,76.028 237.012,76.174 235.812 C 76.283 234.926,76.486 233.120,76.626 231.800 C 76.766 230.480,77.021 229.130,77.191 228.800 C 77.634 227.944,78.761 212.957,79.161 202.600 C 79.518 193.341,79.865 191.465,81.782 188.428 C 83.257 186.092,84.756 178.838,84.788 173.884 C 84.802 171.623,85.928 169.188,87.299 168.454 C 88.257 167.941,89.022 165.857,90.451 159.864 C 90.748 158.620,91.373 157.477,92.202 156.664 C 93.723 155.173,94.800 153.206,94.800 151.920 C 94.801 150.453,96.989 146.230,98.139 145.477 C 99.307 144.711,100.800 142.086,100.800 140.797 C 100.800 139.888,102.351 138.261,103.954 137.487 C 104.510 137.219,105.416 136.150,105.967 135.111 C 106.775 133.589,107.283 133.124,108.585 132.711 C 109.869 132.305,110.378 131.847,111.069 130.479 C 112.355 127.929,112.652 127.687,115.131 127.168 C 119.204 126.315,120.336 125.812,121.287 124.431 C 122.756 122.298,123.856 122.127,139.317 121.630 C 159.118 120.994,170.652 120.414,172.777 119.946 C 176.939 119.031,177.951 118.898,181.085 118.850 C 183.468 118.814,184.902 119.009,186.304 119.562 M177.800 139.840 C 177.360 139.951,176.075 140.221,174.944 140.440 L 172.888 140.839 172.244 143.401 C 171.103 147.942,171.296 178.021,172.475 179.616 L 173.350 180.800 205.640 180.800 C 236.404 180.800,238.046 180.836,240.407 181.571 C 243.213 182.445,243.755 182.350,245.300 180.715 C 246.592 179.348,246.624 179.113,245.708 177.715 C 245.327 177.134,244.742 175.835,244.408 174.829 C 243.922 173.367,243.400 172.741,241.800 171.701 C 240.471 170.837,239.588 169.900,239.168 168.908 C 238.741 167.900,237.961 167.082,236.768 166.391 C 235.795 165.827,234.725 164.834,234.388 164.183 C 233.210 161.905,232.302 160.800,231.608 160.800 C 230.587 160.800,228.800 159.264,228.800 158.387 C 228.800 157.397,227.414 156.135,225.302 155.199 C 224.224 154.722,223.429 154.036,223.125 153.323 C 222.408 151.643,221.575 150.800,220.632 150.800 C 219.430 150.800,217.441 149.643,215.652 147.903 C 213.566 145.874,211.777 145.209,207.414 144.841 C 203.630 144.521,200.800 143.214,200.800 141.784 C 200.800 140.643,181.197 138.986,177.800 139.840 M137.836 141.095 C 136.779 141.204,136.021 141.574,135.500 142.236 C 134.295 143.768,132.501 144.483,128.663 144.960 L 125.116 145.400 124.258 146.991 C 123.169 149.011,122.227 149.887,120.809 150.198 C 119.424 150.502,118.642 151.361,118.039 153.241 C 117.564 154.723,116.339 156.090,115.094 156.530 C 114.237 156.833,113.832 157.841,113.052 161.606 C 112.440 164.566,111.424 166.166,109.745 166.815 C 109.040 167.088,108.700 167.971,107.797 171.873 C 107.196 174.473,106.439 177.118,106.115 177.752 C 105.570 178.818,105.589 178.967,106.374 179.752 C 107.429 180.807,153.970 181.319,157.017 180.309 C 159.226 179.577,159.264 179.226,159.124 160.652 C 158.985 142.225,158.889 141.558,156.294 141.039 C 155.016 140.783,140.440 140.828,137.836 141.095 M192.736 141.063 C 194.159 141.234,194.949 141.533,195.106 141.960 C 195.557 143.192,197.172 144.325,198.879 144.606 C 199.825 144.763,200.823 145.070,201.095 145.290 C 201.367 145.509,203.690 145.846,206.257 146.037 C 212.214 146.482,212.249 146.495,212.548 148.368 C 212.806 149.978,213.144 150.250,215.600 150.832 C 220.452 151.980,221.600 152.510,221.600 153.601 C 221.600 154.939,223.268 156.398,225.159 156.714 C 226.839 156.995,226.944 157.094,227.470 158.899 C 228.033 160.829,229.403 162.000,231.100 162.000 C 232.162 162.000,232.800 162.787,232.800 164.098 C 232.800 165.470,234.275 167.067,235.866 167.417 C 237.875 167.859,238.000 167.957,238.001 169.087 C 238.004 171.033,239.332 172.684,241.140 172.990 C 242.646 173.244,242.756 173.358,243.017 174.930 C 243.170 175.849,243.537 177.073,243.832 177.651 C 244.855 179.651,243.503 180.250,239.286 179.666 C 236.772 179.318,227.047 179.200,204.400 179.245 L 173.000 179.306 172.881 163.153 C 172.752 145.691,172.892 142.800,173.866 142.800 C 174.201 142.800,174.566 142.450,174.678 142.023 C 174.967 140.919,186.455 140.309,192.736 141.063 M158.023 145.933 C 158.589 147.837,158.382 178.179,157.800 178.761 C 157.336 179.224,109.804 179.474,108.725 179.019 C 108.354 178.862,108.124 178.524,108.214 178.267 C 108.304 178.010,108.551 176.046,108.763 173.903 C 109.162 169.869,109.879 168.539,112.057 167.797 C 112.870 167.520,113.391 166.242,114.227 162.474 C 114.752 160.107,115.060 159.465,115.838 159.110 C 116.367 158.869,116.800 158.528,116.800 158.352 C 116.800 158.176,117.245 157.620,117.789 157.115 C 118.483 156.472,118.871 155.556,119.089 154.043 C 119.435 151.643,119.683 151.423,122.591 150.934 C 124.562 150.603,124.586 150.582,124.880 148.845 C 125.260 146.599,124.833 146.821,130.004 146.182 C 132.463 145.878,134.863 145.503,135.338 145.347 C 136.887 144.839,141.260 144.585,149.494 144.525 L 157.587 144.465 158.023 145.933 M273.394 234.976 C 272.737 235.253,271.656 235.938,270.991 236.499 C 269.970 237.360,269.078 237.600,265.245 238.048 C 259.973 238.665,259.690 238.813,259.288 241.176 C 259.016 242.778,258.849 242.988,257.593 243.310 C 255.643 243.811,254.938 244.575,254.631 246.518 C 254.076 250.028,253.571 251.106,252.366 251.347 C 251.427 251.535,249.396 254.000,250.180 254.000 C 250.290 254.000,250.185 254.495,249.946 255.100 C 248.472 258.831,249.737 266.141,252.013 267.052 C 253.136 267.501,253.606 267.955,253.756 268.734 C 254.671 273.500,254.899 274.414,255.227 274.617 C 255.432 274.743,255.600 275.169,255.600 275.562 C 255.600 276.585,256.948 278.000,257.923 278.000 C 258.380 278.000,258.857 278.168,258.983 278.373 C 259.186 278.702,260.047 278.917,264.893 279.850 C 265.757 280.016,266.073 280.385,266.405 281.618 C 267.356 285.150,281.038 285.067,281.817 281.524 C 282.116 280.163,283.635 279.344,286.625 278.935 C 288.632 278.659,289.373 277.914,290.021 275.516 C 290.372 274.218,290.608 274.001,291.911 273.781 C 295.250 273.218,295.048 273.749,295.408 264.600 C 295.898 252.137,294.850 245.038,292.462 244.656 C 290.596 244.358,289.353 243.076,288.982 241.068 C 288.611 239.059,287.088 238.527,279.581 237.783 C 277.179 237.546,276.919 237.427,276.445 236.357 C 275.738 234.760,274.856 234.360,273.394 234.976 M132.737 235.315 C 131.439 235.597,130.751 235.990,130.469 236.609 C 130.059 237.508,128.580 237.908,123.055 238.614 C 120.876 238.892,117.200 240.937,117.200 241.871 C 117.200 242.203,116.852 242.916,116.426 243.458 C 116.001 243.999,115.527 245.442,115.375 246.664 C 115.099 248.870,115.082 248.893,113.142 249.700 C 111.851 250.236,111.126 250.799,111.006 251.356 C 110.618 253.163,110.016 259.443,110.157 260.201 C 110.240 260.640,110.439 262.328,110.599 263.951 C 110.880 266.785,110.965 266.975,112.773 268.773 C 114.377 270.369,114.797 271.136,115.614 273.965 C 116.810 278.103,117.054 278.431,119.234 278.830 C 123.706 279.647,124.905 280.133,125.676 281.438 C 127.865 285.150,142.283 284.922,142.720 281.169 C 142.845 280.095,143.167 279.987,149.260 278.970 C 150.647 278.738,150.733 278.632,150.978 276.863 C 151.401 273.806,151.944 272.800,153.173 272.800 C 155.062 272.800,155.859 271.597,156.399 267.927 C 157.012 263.765,156.807 250.168,156.114 249.000 C 155.852 248.560,155.340 247.525,154.974 246.700 C 154.528 245.694,154.047 245.200,153.515 245.200 C 152.480 245.200,150.528 243.094,150.207 241.631 C 149.728 239.452,148.798 239.022,143.216 238.397 C 137.909 237.803,137.597 237.690,136.952 236.146 C 136.335 234.670,136.004 234.605,132.737 235.315 M139.000 238.818 C 143.038 239.279,145.841 240.413,146.496 241.851 C 146.734 242.373,147.101 242.800,147.311 242.800 C 148.038 242.800,150.602 245.343,151.233 246.690 C 151.581 247.432,152.503 248.565,153.282 249.207 C 156.839 252.139,156.613 266.170,152.948 270.001 C 151.829 271.170,150.939 272.634,150.409 274.173 C 149.333 277.301,148.797 277.816,146.084 278.329 C 138.634 279.738,136.800 280.160,136.800 280.463 C 136.800 281.108,133.334 280.794,129.579 279.807 C 127.500 279.262,125.350 278.810,124.800 278.804 C 121.409 278.766,117.613 274.884,115.841 269.643 C 115.291 268.017,114.412 266.217,113.887 265.643 C 111.074 262.566,111.158 253.502,114.008 252.598 C 114.795 252.348,116.180 249.412,116.616 247.069 C 116.913 245.473,117.864 244.318,119.653 243.380 C 120.232 243.076,120.810 242.417,120.936 241.914 C 121.599 239.272,130.148 237.807,139.000 238.818 M278.683 238.778 C 282.502 239.148,286.156 240.634,286.603 242.000 C 286.711 242.330,288.175 243.950,289.856 245.600 C 294.365 250.026,295.230 253.576,294.456 264.462 C 294.025 270.519,293.593 271.667,291.467 272.392 C 290.088 272.862,289.071 274.031,288.675 275.600 C 288.320 277.005,286.553 277.867,281.648 279.028 C 279.312 279.581,276.761 280.279,275.981 280.581 C 274.622 281.105,269.557 280.362,268.020 279.413 C 267.793 279.272,266.501 278.979,265.150 278.761 C 262.071 278.265,260.570 277.499,259.622 275.941 C 259.214 275.269,258.311 274.374,257.616 273.951 C 256.221 273.103,255.371 271.412,254.784 268.317 C 254.572 267.195,254.107 265.720,253.752 265.039 C 252.484 262.608,251.995 259.216,252.651 257.414 C 253.322 255.573,254.524 251.505,255.233 248.681 C 255.724 246.724,256.931 244.800,257.667 244.800 C 258.604 244.800,260.412 243.063,260.710 241.877 C 261.171 240.044,263.086 239.231,267.873 238.836 C 273.389 238.381,274.516 238.375,278.683 238.778 " stroke="none" fill="#04a45c" fill-rule="evenodd"></path><path id="path2" d="M176.200 119.223 C 175.320 119.400,173.780 119.726,172.777 119.946 C 170.652 120.414,159.118 120.994,139.317 121.630 C 123.856 122.127,122.756 122.298,121.287 124.431 C 120.336 125.812,119.204 126.315,115.131 127.168 C 112.652 127.687,112.355 127.929,111.069 130.479 C 110.378 131.847,109.869 132.305,108.585 132.711 C 107.283 133.124,106.775 133.589,105.967 135.111 C 105.416 136.150,104.510 137.219,103.954 137.487 C 102.351 138.261,100.800 139.888,100.800 140.797 C 100.800 142.086,99.307 144.711,98.139 145.477 C 96.989 146.230,94.801 150.453,94.800 151.920 C 94.800 153.206,93.723 155.173,92.202 156.664 C 91.373 157.477,90.748 158.620,90.451 159.864 C 89.022 165.857,88.257 167.941,87.299 168.454 C 85.928 169.188,84.802 171.623,84.788 173.884 C 84.756 178.838,83.257 186.092,81.782 188.428 C 79.865 191.465,79.518 193.341,79.161 202.600 C 78.761 212.957,77.634 227.944,77.191 228.800 C 77.021 229.130,76.766 230.480,76.626 231.800 C 76.486 233.120,76.283 234.926,76.174 235.812 C 76.028 237.012,76.163 237.627,76.702 238.212 C 77.101 238.646,77.829 240.507,78.319 242.348 C 80.069 248.923,83.512 251.596,91.000 252.190 C 95.736 252.566,100.916 248.379,102.180 243.154 C 103.285 238.583,103.901 237.313,105.234 236.848 C 106.679 236.344,108.278 234.568,108.614 233.093 C 108.857 232.026,110.507 230.800,111.699 230.800 C 111.995 230.800,113.219 229.761,114.419 228.492 C 117.047 225.710,119.374 224.800,123.859 224.800 C 125.803 224.800,127.674 224.514,129.291 223.969 C 132.125 223.015,135.584 223.075,138.200 224.123 C 139.218 224.532,141.109 224.779,143.400 224.803 C 148.035 224.851,152.532 226.159,152.728 227.516 C 152.885 228.606,154.960 230.219,156.672 230.582 C 158.112 230.887,158.438 231.222,159.218 233.200 C 159.885 234.891,160.611 235.698,162.200 236.516 C 163.020 236.938,163.640 237.745,164.159 239.067 C 164.576 240.130,165.341 241.573,165.859 242.273 C 166.376 242.974,166.800 243.668,166.800 243.816 C 166.800 243.963,167.250 244.619,167.800 245.273 C 168.350 245.927,168.800 246.797,168.800 247.208 C 168.800 248.456,170.368 250.702,171.848 251.575 C 173.225 252.388,173.671 252.400,202.446 252.400 C 241.177 252.400,240.365 252.543,240.961 245.638 C 241.281 241.932,242.156 239.945,244.586 237.400 C 245.636 236.300,246.926 234.727,247.450 233.904 C 247.975 233.081,249.169 231.921,250.102 231.327 C 251.775 230.261,252.750 229.469,254.565 227.702 C 256.192 226.119,258.786 225.277,263.324 224.859 C 265.981 224.614,268.018 224.218,268.609 223.831 C 269.985 222.929,274.097 223.013,276.904 224.000 C 278.466 224.549,280.219 224.802,282.490 224.806 C 286.801 224.814,290.358 225.647,291.299 226.869 C 293.028 229.114,293.575 229.562,295.079 229.967 C 296.934 230.467,297.723 231.250,298.355 233.223 C 298.728 234.387,299.169 234.797,300.780 235.478 C 302.519 236.212,302.811 236.514,303.275 238.057 C 303.896 240.124,304.618 241.170,306.057 242.088 C 307.125 242.769,308.800 246.759,308.800 248.624 C 308.800 249.611,310.085 251.403,311.233 252.018 C 313.175 253.057,324.455 251.391,325.226 249.952 C 325.772 248.930,327.536 243.451,327.978 241.400 C 328.168 240.520,328.557 239.224,328.842 238.519 C 329.385 237.178,329.385 237.177,327.818 226.600 C 327.492 224.400,326.952 219.823,326.618 216.428 C 325.975 209.891,325.164 207.623,323.254 207.017 C 322.520 206.784,321.965 205.851,320.829 202.942 C 320.559 202.250,319.632 201.117,318.770 200.424 C 317.907 199.731,316.927 198.632,316.591 197.982 C 316.254 197.332,315.714 196.800,315.390 196.800 C 315.065 196.800,314.800 196.634,314.800 196.431 C 314.800 196.228,314.162 195.851,313.382 195.594 C 312.464 195.291,311.629 194.597,311.016 193.626 C 310.009 192.029,309.104 191.552,305.600 190.768 C 303.903 190.388,303.000 189.882,301.652 188.556 C 299.802 186.735,299.988 186.799,292.076 185.232 C 289.678 184.756,288.039 184.204,287.476 183.681 C 285.996 182.309,282.755 180.800,281.287 180.800 C 278.169 180.800,274.748 179.885,274.061 178.868 C 272.728 176.892,271.243 175.600,270.306 175.600 C 269.076 175.600,267.363 173.773,267.007 172.082 C 266.711 170.682,265.545 169.337,264.155 168.793 C 263.595 168.573,263.160 167.863,262.862 166.682 C 262.541 165.405,261.810 164.289,260.275 162.729 C 258.064 160.482,256.800 158.440,256.800 157.112 C 256.800 155.805,256.082 154.920,254.512 154.291 C 252.711 153.570,251.843 152.679,251.018 150.705 C 250.561 149.610,249.962 149.044,248.648 148.462 C 247.292 147.862,246.786 147.369,246.433 146.301 C 245.921 144.749,244.782 143.571,243.000 142.752 C 242.301 142.430,241.485 141.554,241.045 140.653 C 240.517 139.572,239.794 138.879,238.645 138.353 C 236.309 137.284,235.660 136.694,235.128 135.155 C 234.590 133.598,233.755 132.831,232.578 132.813 C 230.710 132.784,226.756 131.105,226.086 130.057 C 225.080 128.482,224.454 128.110,221.600 127.396 C 220.170 127.039,218.337 126.575,217.527 126.365 C 216.573 126.118,215.630 125.448,214.849 124.462 C 213.395 122.626,211.584 122.000,207.723 122.000 C 206.192 122.000,203.063 121.747,200.770 121.437 C 198.476 121.127,194.718 120.750,192.419 120.599 C 189.847 120.430,187.494 120.031,186.304 119.562 C 184.247 118.751,179.353 118.587,176.200 119.223 M190.912 122.001 C 193.063 122.210,197.833 122.568,201.512 122.796 C 209.446 123.289,210.764 123.557,212.649 125.060 C 214.821 126.793,216.492 127.536,220.102 128.377 C 223.146 129.086,223.515 129.283,224.940 130.972 C 225.789 131.977,226.790 132.800,227.164 132.800 C 229.471 132.800,232.903 134.541,234.227 136.384 C 235.005 137.468,236.224 138.564,237.091 138.960 C 237.921 139.339,239.215 140.461,239.968 141.452 C 240.720 142.444,242.115 143.791,243.068 144.447 C 244.020 145.102,244.800 145.874,244.800 146.161 C 244.800 146.448,245.385 147.232,246.100 147.903 C 247.290 149.019,248.858 150.597,251.959 153.800 C 252.598 154.460,253.633 155.385,254.260 155.855 C 255.056 156.451,255.636 157.477,256.181 159.255 C 256.759 161.142,257.419 162.265,258.735 163.600 C 259.710 164.590,260.877 166.120,261.329 167.000 C 261.780 167.880,262.919 169.361,263.860 170.292 C 264.801 171.222,265.868 172.572,266.231 173.292 C 267.178 175.168,268.816 176.797,269.775 176.816 C 270.274 176.826,271.210 177.606,272.147 178.793 C 273.711 180.776,275.607 181.600,278.605 181.600 C 280.103 181.600,283.932 183.168,284.534 184.028 C 285.300 185.121,289.223 186.388,293.128 186.803 C 296.571 187.169,299.374 188.371,300.486 189.958 C 300.936 190.602,306.728 192.769,308.121 192.816 C 308.384 192.825,309.304 193.725,310.166 194.816 C 311.027 195.907,311.978 196.800,312.279 196.800 C 313.291 196.800,319.601 203.499,320.476 205.503 C 320.931 206.546,322.047 208.120,322.954 209.000 L 324.605 210.600 325.115 215.200 C 327.416 235.938,327.314 240.302,324.340 248.321 C 323.772 249.853,321.502 250.517,316.164 250.714 L 311.329 250.892 310.526 249.346 C 310.084 248.496,309.478 246.567,309.180 245.060 C 308.693 242.601,308.463 242.178,306.939 240.929 C 306.006 240.164,305.047 238.967,304.808 238.269 C 304.267 236.681,302.948 235.167,301.240 234.169 C 300.516 233.746,299.585 232.740,299.171 231.934 C 298.381 230.396,296.499 228.800,295.474 228.800 C 295.143 228.800,294.091 227.908,293.136 226.818 C 291.244 224.658,291.385 224.704,282.004 223.180 C 279.210 222.726,277.392 221.980,276.714 221.009 C 276.138 220.183,269.243 220.620,268.259 221.544 C 267.145 222.591,264.808 223.422,261.992 223.773 C 256.485 224.459,252.743 225.841,252.141 227.411 C 252.019 227.728,250.767 228.809,249.360 229.814 C 247.952 230.818,246.800 231.779,246.800 231.948 C 246.800 232.117,245.485 233.709,243.879 235.487 L 240.957 238.719 240.084 243.220 C 238.484 251.477,241.733 250.800,203.690 250.800 C 168.935 250.800,171.301 251.036,170.390 247.480 C 169.590 244.360,168.740 242.624,167.183 240.936 C 166.331 240.011,165.375 238.636,165.059 237.880 C 164.743 237.124,163.727 235.897,162.801 235.153 C 161.875 234.409,160.846 233.260,160.513 232.600 C 159.728 231.039,157.738 229.311,156.100 228.769 C 155.385 228.532,154.800 228.178,154.800 227.983 C 154.800 227.788,154.273 227.027,153.628 226.293 C 152.376 224.867,152.110 224.790,143.623 223.394 C 140.733 222.919,139.418 222.486,138.023 221.549 C 135.673 219.970,131.347 220.055,128.862 221.729 C 127.398 222.714,125.145 223.350,121.400 223.834 C 116.570 224.458,115.172 225.063,112.707 227.599 C 111.422 228.919,110.142 230.000,109.861 230.000 C 109.234 230.000,107.490 231.824,106.748 233.255 C 106.446 233.836,105.399 234.918,104.420 235.660 C 102.677 236.982,101.341 239.770,100.615 243.600 C 100.511 244.150,99.072 245.995,97.416 247.700 L 94.407 250.800 90.995 250.800 C 87.208 250.800,85.754 250.179,82.682 247.248 C 78.640 243.391,78.280 240.131,79.581 219.176 C 80.010 212.259,80.485 203.990,80.636 200.800 C 80.936 194.459,81.061 193.914,82.826 191.299 C 84.196 189.270,84.477 188.035,85.397 180.000 C 86.157 173.369,86.442 172.405,88.290 170.211 C 89.643 168.605,90.529 166.151,90.988 162.734 C 91.178 161.323,91.640 160.412,92.888 158.995 C 94.130 157.584,94.857 156.160,95.825 153.238 C 96.831 150.205,97.463 148.991,98.717 147.686 C 99.763 146.598,100.650 145.092,101.261 143.366 C 102.204 140.706,102.863 139.815,105.201 138.044 C 105.895 137.518,106.621 136.670,106.815 136.160 C 107.009 135.650,107.940 134.741,108.884 134.139 C 111.079 132.740,112.800 131.179,112.800 130.587 C 112.800 129.708,114.209 128.912,116.955 128.239 C 120.259 127.429,121.307 126.910,123.362 125.069 C 125.514 123.141,124.955 123.202,144.400 122.761 C 153.970 122.544,164.320 122.223,167.400 122.049 C 175.568 121.587,186.422 121.564,190.912 122.001 M173.886 139.078 C 170.672 139.914,170.309 142.490,170.475 163.271 C 170.607 179.825,170.649 180.204,172.469 181.079 C 175.851 182.705,177.880 182.802,208.488 182.801 L 237.976 182.800 240.199 183.817 C 242.079 184.677,242.897 184.815,245.511 184.717 L 248.600 184.600 248.718 181.673 C 248.828 178.955,248.756 178.656,247.714 177.469 C 247.097 176.766,246.066 175.151,245.423 173.880 C 244.589 172.232,243.816 171.323,242.731 170.713 C 241.894 170.243,241.104 169.529,240.977 169.127 C 240.615 167.986,238.812 166.018,237.195 164.997 C 236.386 164.486,235.425 163.439,235.060 162.671 C 234.686 161.883,233.582 160.733,232.527 160.035 C 231.498 159.353,230.155 158.039,229.543 157.113 C 228.930 156.188,227.714 155.064,226.840 154.615 C 225.967 154.167,224.688 153.019,223.998 152.065 C 223.149 150.890,222.055 150.015,220.605 149.351 C 219.429 148.812,217.977 147.758,217.378 147.008 C 216.780 146.258,216.001 145.527,215.646 145.385 C 214.531 144.937,211.075 144.095,209.200 143.814 C 206.415 143.396,204.692 142.784,203.600 141.825 C 201.758 140.206,200.578 139.689,197.703 139.243 C 194.977 138.820,175.400 138.685,173.886 139.078 M138.400 139.551 C 135.756 139.819,134.592 140.304,132.796 141.883 C 132.215 142.394,130.425 143.093,128.548 143.541 C 124.452 144.519,123.819 144.868,122.579 146.833 C 122.024 147.712,121.082 148.616,120.485 148.841 C 118.955 149.419,117.291 151.112,116.805 152.585 C 116.578 153.274,115.620 154.483,114.676 155.272 C 113.138 156.557,112.843 157.103,111.827 160.543 C 111.029 163.245,110.481 164.447,109.972 164.609 C 108.970 164.927,106.800 168.317,106.798 169.569 C 106.793 171.691,105.317 175.821,104.097 177.125 C 103.032 178.264,102.829 179.188,103.072 181.790 C 103.367 184.950,103.934 185.396,105.612 183.789 L 106.776 182.673 129.488 182.744 C 155.068 182.822,156.923 182.655,159.253 180.063 L 160.307 178.892 160.605 168.155 C 161.107 150.076,160.440 142.505,158.157 140.359 C 157.069 139.337,145.261 138.853,138.400 139.551 M195.600 140.439 C 200.034 141.011,200.800 141.209,200.800 141.784 C 200.800 143.214,203.630 144.521,207.414 144.841 C 211.777 145.209,213.566 145.874,215.652 147.903 C 217.441 149.643,219.430 150.800,220.632 150.800 C 221.575 150.800,222.408 151.643,223.125 153.323 C 223.429 154.036,224.224 154.722,225.302 155.199 C 227.414 156.135,228.800 157.397,228.800 158.387 C 228.800 159.264,230.587 160.800,231.608 160.800 C 232.302 160.800,233.210 161.905,234.388 164.183 C 234.725 164.834,235.795 165.827,236.768 166.391 C 237.961 167.082,238.741 167.900,239.168 168.908 C 239.588 169.900,240.471 170.837,241.800 171.701 C 243.400 172.741,243.922 173.367,244.408 174.829 C 244.742 175.835,245.327 177.134,245.708 177.715 C 246.624 179.113,246.592 179.348,245.300 180.715 C 243.755 182.350,243.213 182.445,240.407 181.571 C 238.046 180.836,236.404 180.800,205.640 180.800 L 173.350 180.800 172.475 179.616 C 171.296 178.021,171.103 147.942,172.244 143.401 L 172.888 140.839 174.944 140.440 C 176.075 140.221,177.360 139.951,177.800 139.840 C 178.972 139.545,192.103 139.987,195.600 140.439 M156.294 141.039 C 158.889 141.558,158.985 142.225,159.124 160.652 C 159.264 179.226,159.226 179.577,157.017 180.309 C 153.970 181.319,107.429 180.807,106.374 179.752 C 105.589 178.967,105.570 178.818,106.115 177.752 C 106.439 177.118,107.196 174.473,107.797 171.873 C 108.700 167.971,109.040 167.088,109.745 166.815 C 111.424 166.166,112.440 164.566,113.052 161.606 C 113.832 157.841,114.237 156.833,115.094 156.530 C 116.339 156.090,117.564 154.723,118.039 153.241 C 118.642 151.361,119.424 150.502,120.809 150.198 C 122.227 149.887,123.169 149.011,124.258 146.991 L 125.116 145.400 128.663 144.960 C 132.501 144.483,134.295 143.768,135.500 142.236 C 136.021 141.574,136.779 141.204,137.836 141.095 C 140.440 140.828,155.016 140.783,156.294 141.039 M129.400 238.677 C 124.638 239.101,121.324 240.368,120.936 241.914 C 120.810 242.417,120.232 243.076,119.653 243.380 C 117.864 244.318,116.913 245.473,116.616 247.069 C 116.180 249.412,114.795 252.348,114.008 252.598 C 111.158 253.502,111.074 262.566,113.887 265.643 C 114.412 266.217,115.291 268.017,115.841 269.643 C 117.613 274.884,121.409 278.766,124.800 278.804 C 125.350 278.810,127.500 279.262,129.579 279.807 C 133.334 280.794,136.800 281.108,136.800 280.463 C 136.800 280.160,138.634 279.738,146.084 278.329 C 148.797 277.816,149.333 277.301,150.409 274.173 C 150.939 272.634,151.829 271.170,152.948 270.001 C 156.613 266.170,156.839 252.139,153.282 249.207 C 152.503 248.565,151.581 247.432,151.233 246.690 C 150.602 245.343,148.038 242.800,147.311 242.800 C 147.101 242.800,146.734 242.373,146.496 241.851 C 145.364 239.366,137.683 237.940,129.400 238.677 M267.873 238.836 C 263.086 239.231,261.171 240.044,260.710 241.877 C 260.412 243.063,258.604 244.800,257.667 244.800 C 256.931 244.800,255.724 246.724,255.233 248.681 C 254.524 251.505,253.322 255.573,252.651 257.414 C 251.995 259.216,252.484 262.608,253.752 265.039 C 254.107 265.720,254.572 267.195,254.784 268.317 C 255.371 271.412,256.221 273.103,257.616 273.951 C 258.311 274.374,259.214 275.269,259.622 275.941 C 260.570 277.499,262.071 278.265,265.150 278.761 C 266.501 278.979,267.793 279.272,268.020 279.413 C 269.557 280.362,274.622 281.105,275.981 280.581 C 276.761 280.279,279.312 279.581,281.648 279.028 C 286.553 277.867,288.320 277.005,288.675 275.600 C 289.071 274.031,290.088 272.862,291.467 272.392 C 293.593 271.667,294.025 270.519,294.456 264.462 C 295.230 253.576,294.365 250.026,289.856 245.600 C 288.175 243.950,286.711 242.330,286.603 242.000 C 285.709 239.272,278.123 237.990,267.873 238.836 M138.227 240.007 C 139.532 240.230,141.214 240.514,141.965 240.637 C 142.896 240.789,143.915 241.464,145.165 242.755 C 146.174 243.796,147.291 244.758,147.647 244.891 C 148.003 245.025,148.813 245.983,149.447 247.019 C 150.081 248.056,151.209 249.555,151.953 250.352 C 155.632 254.290,155.423 266.237,151.635 268.579 C 151.107 268.904,148.800 273.730,148.800 274.507 C 148.800 278.154,131.713 279.977,124.200 277.132 C 121.203 275.997,117.401 271.235,116.771 267.828 C 116.554 266.654,115.821 264.548,115.142 263.147 C 112.982 258.693,112.996 259.035,114.837 255.442 C 115.750 253.659,116.772 251.120,117.108 249.800 C 117.716 247.407,119.288 244.814,120.147 244.785 C 120.396 244.777,121.226 243.970,121.992 242.992 C 123.705 240.805,123.693 240.810,128.600 240.193 C 133.772 239.542,135.339 239.512,138.227 240.007 M280.729 240.493 C 282.749 240.917,283.112 241.205,287.806 246.117 C 293.638 252.218,293.449 251.642,293.099 262.229 C 292.870 269.183,292.640 270.048,290.771 271.015 C 290.108 271.358,288.914 272.665,288.117 273.919 C 286.323 276.745,286.738 276.500,281.874 277.603 C 273.195 279.570,262.768 278.246,260.811 274.928 C 260.374 274.188,259.388 273.212,258.618 272.758 C 257.484 272.088,257.096 271.505,256.564 269.666 C 256.203 268.420,255.659 266.556,255.354 265.525 C 253.608 259.615,255.687 247.894,258.853 245.800 C 259.851 245.140,261.218 243.777,261.890 242.771 L 263.112 240.943 266.456 240.462 C 272.645 239.573,276.392 239.581,280.729 240.493 " stroke="none" fill="#048048" fill-rule="evenodd"></path><path id="path3" d="M167.400 122.049 C 164.320 122.223,153.970 122.544,144.400 122.761 C 124.955 123.202,125.514 123.141,123.362 125.069 C 121.307 126.910,120.259 127.429,116.955 128.239 C 114.209 128.912,112.800 129.708,112.800 130.587 C 112.800 131.179,111.079 132.740,108.884 134.139 C 107.940 134.741,107.009 135.650,106.815 136.160 C 106.621 136.670,105.895 137.518,105.201 138.044 C 102.863 139.815,102.204 140.706,101.261 143.366 C 100.650 145.092,99.763 146.598,98.717 147.686 C 97.463 148.991,96.831 150.205,95.825 153.238 C 94.857 156.160,94.130 157.584,92.888 158.995 C 91.640 160.412,91.178 161.323,90.988 162.734 C 90.529 166.151,89.643 168.605,88.290 170.211 C 86.442 172.405,86.157 173.369,85.397 180.000 C 84.477 188.035,84.196 189.270,82.826 191.299 C 81.061 193.914,80.936 194.459,80.636 200.800 C 80.485 203.990,80.010 212.259,79.581 219.176 C 78.280 240.131,78.640 243.391,82.682 247.248 C 85.754 250.179,87.208 250.800,90.995 250.800 L 94.407 250.800 97.416 247.700 C 99.072 245.995,100.511 244.150,100.615 243.600 C 101.341 239.770,102.677 236.982,104.420 235.660 C 105.399 234.918,106.446 233.836,106.748 233.255 C 107.490 231.824,109.234 230.000,109.861 230.000 C 110.142 230.000,111.422 228.919,112.707 227.599 C 115.172 225.063,116.570 224.458,121.400 223.834 C 125.145 223.350,127.398 222.714,128.862 221.729 C 131.347 220.055,135.673 219.970,138.023 221.549 C 139.418 222.486,140.733 222.919,143.623 223.394 C 152.110 224.790,152.376 224.867,153.628 226.293 C 154.273 227.027,154.800 227.788,154.800 227.983 C 154.800 228.178,155.385 228.532,156.100 228.769 C 157.738 229.311,159.728 231.039,160.513 232.600 C 160.846 233.260,161.875 234.409,162.801 235.153 C 163.727 235.897,164.743 237.124,165.059 237.880 C 165.375 238.636,166.331 240.011,167.183 240.936 C 168.740 242.624,169.590 244.360,170.390 247.480 C 171.301 251.036,168.935 250.800,203.690 250.800 C 241.733 250.800,238.484 251.477,240.084 243.220 L 240.957 238.719 243.879 235.487 C 245.485 233.709,246.800 232.117,246.800 231.948 C 246.800 231.779,247.952 230.818,249.360 229.814 C 250.767 228.809,252.019 227.728,252.141 227.411 C 252.743 225.841,256.485 224.459,261.992 223.773 C 264.808 223.422,267.145 222.591,268.259 221.544 C 269.243 220.620,276.138 220.183,276.714 221.009 C 277.392 221.980,279.210 222.726,282.004 223.180 C 291.385 224.704,291.244 224.658,293.136 226.818 C 294.091 227.908,295.143 228.800,295.474 228.800 C 296.499 228.800,298.381 230.396,299.171 231.934 C 299.585 232.740,300.516 233.746,301.240 234.169 C 302.948 235.167,304.267 236.681,304.808 238.269 C 305.047 238.967,306.006 240.164,306.939 240.929 C 308.463 242.178,308.693 242.601,309.180 245.060 C 309.478 246.567,310.084 248.496,310.526 249.346 L 311.329 250.892 316.164 250.714 C 321.502 250.517,323.772 249.853,324.340 248.321 C 327.314 240.302,327.416 235.938,325.115 215.200 L 324.605 210.600 322.954 209.000 C 322.047 208.120,320.931 206.546,320.476 205.503 C 319.601 203.499,313.291 196.800,312.279 196.800 C 311.978 196.800,311.027 195.907,310.166 194.816 C 309.304 193.725,308.384 192.825,308.121 192.816 C 306.728 192.769,300.936 190.602,300.486 189.958 C 299.374 188.371,296.571 187.169,293.128 186.803 C 289.223 186.388,285.300 185.121,284.534 184.028 C 283.932 183.168,280.103 181.600,278.605 181.600 C 275.607 181.600,273.711 180.776,272.147 178.793 C 271.210 177.606,270.274 176.826,269.775 176.816 C 268.816 176.797,267.178 175.168,266.231 173.292 C 265.868 172.572,264.801 171.222,263.860 170.292 C 262.919 169.361,261.780 167.880,261.329 167.000 C 260.877 166.120,259.710 164.590,258.735 163.600 C 257.419 162.265,256.759 161.142,256.181 159.255 C 255.636 157.477,255.056 156.451,254.260 155.855 C 253.633 155.385,252.598 154.460,251.959 153.800 C 248.858 150.597,247.290 149.019,246.100 147.903 C 245.385 147.232,244.800 146.448,244.800 146.161 C 244.800 145.874,244.020 145.102,243.068 144.447 C 242.115 143.791,240.720 142.444,239.968 141.452 C 239.215 140.461,237.921 139.339,237.091 138.960 C 236.224 138.564,235.005 137.468,234.227 136.384 C 232.903 134.541,229.471 132.800,227.164 132.800 C 226.790 132.800,225.789 131.977,224.940 130.972 C 223.515 129.283,223.146 129.086,220.102 128.377 C 216.492 127.536,214.821 126.793,212.649 125.060 C 210.764 123.557,209.446 123.289,201.512 122.796 C 197.833 122.568,193.063 122.210,190.912 122.001 C 186.422 121.564,175.568 121.587,167.400 122.049 M203.600 124.767 L 208.200 125.062 210.000 126.732 C 211.993 128.580,214.227 129.397,218.400 129.804 C 221.647 130.121,222.800 130.657,222.800 131.847 C 222.800 132.881,225.026 134.797,226.238 134.805 C 228.768 134.823,231.806 136.241,232.550 137.751 C 233.353 139.379,235.260 140.796,236.651 140.799 C 237.704 140.800,238.226 141.407,238.676 143.147 C 238.936 144.156,239.445 144.719,240.708 145.394 C 242.907 146.571,243.600 147.168,243.600 147.886 C 243.600 148.946,245.234 150.579,246.917 151.201 C 248.281 151.705,248.617 152.043,248.841 153.138 C 249.204 154.915,250.999 156.727,252.545 156.879 C 253.763 156.998,253.792 157.053,254.509 160.589 C 255.292 164.446,255.794 165.274,258.054 166.427 C 259.200 167.012,259.665 167.605,260.247 169.224 C 260.979 171.258,262.255 172.565,263.794 172.858 C 264.366 172.966,264.659 173.445,264.842 174.571 C 265.114 176.248,266.335 177.446,268.572 178.231 C 269.371 178.511,270.044 179.171,270.498 180.120 C 271.541 182.300,272.634 182.815,276.781 183.084 C 280.402 183.319,282.400 184.363,282.400 186.023 C 282.400 187.272,289.300 188.800,294.945 188.800 C 296.515 188.800,296.771 188.928,297.142 189.900 C 298.102 192.413,298.677 192.714,304.592 193.800 C 306.412 194.133,307.525 194.553,307.792 195.004 C 309.203 197.398,309.963 198.246,311.014 198.600 C 312.781 199.196,313.136 199.506,314.010 201.219 C 314.458 202.098,315.376 203.076,316.104 203.451 C 317.918 204.385,318.800 205.521,318.800 206.924 C 318.800 208.053,321.646 212.400,322.385 212.400 C 324.173 212.400,324.970 239.846,323.325 244.743 C 322.148 248.247,321.028 248.843,315.873 248.713 L 311.400 248.600 311.000 244.927 C 310.556 240.846,309.515 238.800,307.884 238.800 C 306.890 238.800,306.234 237.963,305.836 236.187 C 305.408 234.275,304.277 233.119,302.564 232.841 C 301.135 232.608,300.992 232.467,300.762 231.054 C 300.518 229.552,298.833 227.648,297.719 227.614 C 296.533 227.579,295.298 226.626,294.856 225.405 C 294.172 223.512,292.935 222.878,289.346 222.582 C 284.911 222.216,283.508 221.784,281.931 220.300 C 278.058 216.652,266.472 216.706,265.086 220.378 C 264.595 221.679,262.684 222.180,256.027 222.752 C 252.632 223.044,251.055 223.800,250.282 225.506 C 249.600 227.011,248.228 228.400,247.423 228.400 C 246.485 228.400,244.400 230.559,244.400 231.530 C 244.400 232.044,243.647 232.822,242.257 233.745 C 239.523 235.560,238.800 236.680,238.800 239.102 C 238.800 244.114,236.549 248.078,233.269 248.839 C 230.755 249.424,173.370 249.291,172.903 248.700 C 172.685 248.425,172.386 246.962,172.237 245.448 C 171.913 242.145,171.164 240.557,169.509 239.665 C 167.640 238.658,166.800 237.706,166.800 236.596 C 166.800 235.380,164.959 233.356,163.526 232.996 C 162.756 232.803,162.303 232.261,161.791 230.922 C 161.197 229.366,160.805 228.975,159.018 228.157 C 157.450 227.439,156.622 226.717,155.655 225.225 C 154.199 222.978,154.152 222.957,149.800 222.604 C 145.368 222.244,143.735 221.749,142.217 220.305 C 138.493 216.761,129.331 216.695,125.600 220.185 C 123.998 221.683,121.856 222.313,117.118 222.678 C 113.529 222.955,111.949 223.868,110.959 226.236 C 110.576 227.152,109.926 227.717,108.642 228.248 C 107.252 228.823,106.605 229.427,105.720 230.978 C 104.915 232.389,104.053 233.252,102.765 233.937 C 100.846 234.957,100.606 235.446,99.195 241.206 C 98.871 242.529,98.439 243.192,97.584 243.683 C 96.317 244.411,94.804 246.587,94.801 247.686 C 94.801 248.063,94.485 248.535,94.100 248.735 C 93.077 249.265,86.800 248.817,86.800 248.213 C 86.800 247.410,84.646 244.830,83.962 244.815 C 81.417 244.756,81.137 241.877,81.630 220.800 C 82.045 203.071,82.416 197.901,83.350 196.835 C 85.893 193.934,86.534 191.737,86.852 184.839 C 87.235 176.514,88.268 172.800,90.198 172.800 C 90.926 172.800,92.339 168.074,92.632 164.658 C 92.894 161.612,92.940 161.501,94.159 160.991 C 96.092 160.184,96.792 159.131,97.244 156.352 C 97.977 151.841,98.362 150.795,99.437 150.386 C 101.138 149.739,102.329 148.072,102.811 145.664 C 103.720 141.119,103.746 141.065,105.185 140.692 C 106.675 140.306,107.967 138.946,108.646 137.048 C 108.991 136.085,109.494 135.663,110.846 135.200 C 112.763 134.544,113.813 133.588,114.452 131.916 C 114.916 130.705,114.765 130.769,120.000 129.572 C 123.530 128.764,123.927 128.571,125.589 126.851 L 127.378 125.000 131.789 124.872 C 158.591 124.091,192.302 124.042,203.600 124.767 M174.600 137.070 C 168.763 137.798,168.748 137.862,168.889 161.485 L 169.000 180.200 169.927 181.500 C 170.437 182.215,171.157 182.801,171.527 182.802 C 173.270 182.808,175.421 183.793,176.831 185.232 L 178.368 186.800 207.884 186.800 C 232.441 186.800,237.871 186.900,240.200 187.393 C 248.666 189.186,252.000 187.449,252.000 181.246 C 252.000 178.102,251.080 176.303,248.926 175.233 C 247.625 174.587,246.800 173.343,246.800 172.029 C 246.800 171.084,244.472 168.800,243.510 168.800 C 243.023 168.800,242.522 168.221,242.038 167.100 C 241.179 165.110,240.356 164.309,238.300 163.460 C 237.225 163.016,236.800 162.598,236.800 161.982 C 236.800 160.555,235.368 158.977,233.590 158.444 C 232.158 158.015,231.827 157.691,231.144 156.047 C 230.326 154.079,228.783 152.800,227.226 152.800 C 226.758 152.800,226.273 152.485,226.149 152.100 C 225.422 149.849,224.597 148.862,223.031 148.370 C 221.034 147.743,220.141 147.018,219.375 145.404 C 218.543 143.652,217.050 142.944,213.598 142.667 C 209.833 142.366,208.073 141.765,206.800 140.347 C 205.182 138.546,202.303 137.554,197.600 137.177 C 193.501 136.849,176.989 136.771,174.600 137.070 M134.400 137.768 C 131.418 138.620,130.453 139.120,129.014 140.559 C 128.000 141.573,127.031 142.066,125.320 142.438 C 122.871 142.971,120.963 144.494,120.722 146.110 C 120.641 146.650,120.070 147.106,119.027 147.466 C 116.935 148.188,116.217 148.897,115.645 150.808 C 115.286 152.007,114.848 152.538,113.883 152.946 C 111.972 153.755,111.209 154.844,110.580 157.661 C 109.914 160.642,108.891 162.800,108.143 162.800 C 107.066 162.800,105.561 165.854,104.971 169.234 C 104.429 172.336,104.277 172.658,102.636 174.187 C 100.636 176.049,100.115 178.213,100.503 183.046 C 100.881 187.757,105.061 189.269,108.900 186.083 C 109.341 185.717,109.985 185.744,111.755 186.205 C 113.624 186.692,117.547 186.800,133.355 186.800 L 152.671 186.800 154.123 185.232 C 155.256 184.006,156.063 183.554,157.808 183.163 C 161.998 182.226,161.800 183.306,161.800 161.400 C 161.800 139.696,161.767 139.425,158.978 138.032 C 156.931 137.009,137.775 136.804,134.400 137.768 M197.703 139.243 C 200.578 139.689,201.758 140.206,203.600 141.825 C 204.692 142.784,206.415 143.396,209.200 143.814 C 211.075 144.095,214.531 144.937,215.646 145.385 C 216.001 145.527,216.780 146.258,217.378 147.008 C 217.977 147.758,219.429 148.812,220.605 149.351 C 222.055 150.015,223.149 150.890,223.998 152.065 C 224.688 153.019,225.967 154.167,226.840 154.615 C 227.714 155.064,228.930 156.188,229.543 157.113 C 230.155 158.039,231.498 159.353,232.527 160.035 C 233.582 160.733,234.686 161.883,235.060 162.671 C 235.425 163.439,236.386 164.486,237.195 164.997 C 238.812 166.018,240.615 167.986,240.977 169.127 C 241.104 169.529,241.894 170.243,242.731 170.713 C 243.816 171.323,244.589 172.232,245.423 173.880 C 246.066 175.151,247.097 176.766,247.714 177.469 C 248.756 178.656,248.828 178.955,248.718 181.673 L 248.600 184.600 245.511 184.717 C 242.897 184.815,242.079 184.677,240.199 183.817 L 237.976 182.800 208.488 182.801 C 177.880 182.802,175.851 182.705,172.469 181.079 C 170.649 180.204,170.607 179.825,170.475 163.271 C 170.309 142.490,170.672 139.914,173.886 139.078 C 175.400 138.685,194.977 138.820,197.703 139.243 M158.157 140.359 C 160.440 142.505,161.107 150.076,160.605 168.155 L 160.307 178.892 159.253 180.063 C 156.923 182.655,155.068 182.822,129.488 182.744 L 106.776 182.673 105.612 183.789 C 103.934 185.396,103.367 184.950,103.072 181.790 C 102.829 179.188,103.032 178.264,104.097 177.125 C 105.317 175.821,106.793 171.691,106.798 169.569 C 106.800 168.317,108.970 164.927,109.972 164.609 C 110.481 164.447,111.029 163.245,111.827 160.543 C 112.843 157.103,113.138 156.557,114.676 155.272 C 115.620 154.483,116.578 153.274,116.805 152.585 C 117.291 151.112,118.955 149.419,120.485 148.841 C 121.082 148.616,122.024 147.712,122.579 146.833 C 123.819 144.868,124.452 144.519,128.548 143.541 C 130.425 143.093,132.215 142.394,132.796 141.883 C 135.492 139.512,137.115 139.259,149.068 139.343 C 156.995 139.399,157.154 139.417,158.157 140.359 M128.600 240.193 C 123.693 240.810,123.705 240.805,121.992 242.992 C 121.226 243.970,120.396 244.777,120.147 244.785 C 119.288 244.814,117.716 247.407,117.108 249.800 C 116.772 251.120,115.750 253.659,114.837 255.442 C 112.996 259.035,112.982 258.693,115.142 263.147 C 115.821 264.548,116.554 266.654,116.771 267.828 C 118.558 277.494,128.883 280.795,145.396 276.980 C 147.702 276.447,148.800 275.649,148.800 274.507 C 148.800 273.730,151.107 268.904,151.635 268.579 C 155.423 266.237,155.632 254.290,151.953 250.352 C 151.209 249.555,150.081 248.056,149.447 247.019 C 148.813 245.983,148.003 245.025,147.647 244.891 C 147.291 244.758,146.174 243.796,145.165 242.755 C 143.915 241.464,142.896 240.789,141.965 240.637 C 141.214 240.514,139.532 240.230,138.227 240.007 C 135.339 239.512,133.772 239.542,128.600 240.193 M271.400 239.843 C 270.520 239.920,268.295 240.198,266.456 240.462 L 263.112 240.943 261.890 242.771 C 261.218 243.777,259.851 245.140,258.853 245.800 C 255.687 247.894,253.608 259.615,255.354 265.525 C 255.659 266.556,256.203 268.420,256.564 269.666 C 257.096 271.505,257.484 272.088,258.618 272.758 C 259.388 273.212,260.374 274.188,260.811 274.928 C 262.768 278.246,273.195 279.570,281.874 277.603 C 286.738 276.500,286.323 276.745,288.117 273.919 C 288.914 272.665,290.108 271.358,290.771 271.015 C 292.640 270.048,292.870 269.183,293.099 262.229 C 293.449 251.642,293.638 252.218,287.806 246.117 C 282.093 240.140,279.485 239.143,271.400 239.843 M139.796 241.943 C 141.961 242.175,142.247 242.316,142.748 243.400 C 143.573 245.182,144.804 246.378,146.178 246.732 C 147.211 246.999,147.558 247.441,148.422 249.594 C 149.191 251.509,149.798 252.365,150.866 253.041 C 152.548 254.106,152.800 255.013,152.800 260.017 C 152.800 263.751,152.595 264.793,151.857 264.812 C 151.316 264.826,148.792 267.053,148.817 267.494 C 148.827 267.662,148.332 269.366,147.717 271.279 L 146.600 274.758 144.600 275.212 C 137.621 276.798,125.614 276.490,124.282 274.692 C 122.905 272.832,120.794 270.800,120.239 270.800 C 119.373 270.800,118.865 269.125,118.664 265.600 C 118.557 263.730,118.187 261.422,117.842 260.470 C 117.271 258.897,117.272 258.606,117.844 257.270 C 118.191 256.462,118.619 254.041,118.795 251.892 C 119.143 247.649,119.430 247.014,121.156 246.669 C 121.972 246.506,122.709 245.817,123.756 244.240 C 125.212 242.046,125.224 242.039,127.508 241.895 C 131.394 241.651,137.281 241.674,139.796 241.943 M278.986 241.935 C 280.759 242.172,281.095 242.383,282.118 243.908 C 282.748 244.848,283.950 245.967,284.790 246.395 C 285.832 246.926,286.584 247.727,287.162 248.921 C 287.629 249.885,288.499 250.917,289.104 251.222 C 291.528 252.446,291.600 252.668,291.598 258.883 C 291.595 265.984,291.344 266.921,288.805 269.317 C 287.702 270.358,286.800 271.483,286.800 271.818 C 286.800 274.200,285.798 275.073,282.544 275.528 C 272.605 276.917,262.800 276.193,262.800 274.070 C 262.800 273.219,260.411 270.800,259.571 270.800 C 257.733 270.800,256.809 263.239,257.593 254.629 C 258.164 248.373,258.464 247.613,260.600 247.020 C 261.898 246.659,262.360 246.254,263.048 244.872 C 263.515 243.936,264.018 243.049,264.165 242.902 C 265.119 241.948,274.496 241.336,278.986 241.935 " stroke="none" fill="#044c34" fill-rule="evenodd"></path><path id="path4" d="M154.600 124.409 C 144.480 124.593,134.215 124.801,131.789 124.872 L 127.378 125.000 125.589 126.851 C 123.927 128.571,123.530 128.764,120.000 129.572 C 114.765 130.769,114.916 130.705,114.452 131.916 C 113.813 133.588,112.763 134.544,110.846 135.200 C 109.494 135.663,108.991 136.085,108.646 137.048 C 107.967 138.946,106.675 140.306,105.185 140.692 C 103.746 141.065,103.720 141.119,102.811 145.664 C 102.329 148.072,101.138 149.739,99.437 150.386 C 98.362 150.795,97.977 151.841,97.244 156.352 C 96.792 159.131,96.092 160.184,94.159 160.991 C 92.940 161.501,92.894 161.612,92.632 164.658 C 92.339 168.074,90.926 172.800,90.198 172.800 C 88.268 172.800,87.235 176.514,86.852 184.839 C 86.534 191.737,85.893 193.934,83.350 196.835 C 82.416 197.901,82.045 203.071,81.630 220.800 C 81.137 241.877,81.417 244.756,83.962 244.815 C 84.646 244.830,86.800 247.410,86.800 248.213 C 86.800 248.817,93.077 249.265,94.100 248.735 C 94.485 248.535,94.801 248.063,94.801 247.686 C 94.804 246.587,96.317 244.411,97.584 243.683 C 98.439 243.192,98.871 242.529,99.195 241.206 C 100.606 235.446,100.846 234.957,102.765 233.937 C 104.053 233.252,104.915 232.389,105.720 230.978 C 106.605 229.427,107.252 228.823,108.642 228.248 C 109.926 227.717,110.576 227.152,110.959 226.236 C 111.949 223.868,113.529 222.955,117.118 222.678 C 121.856 222.313,123.998 221.683,125.600 220.185 C 129.331 216.695,138.493 216.761,142.217 220.305 C 143.735 221.749,145.368 222.244,149.800 222.604 C 154.152 222.957,154.199 222.978,155.655 225.225 C 156.622 226.717,157.450 227.439,159.018 228.157 C 160.805 228.975,161.197 229.366,161.791 230.922 C 162.303 232.261,162.756 232.803,163.526 232.996 C 164.959 233.356,166.800 235.380,166.800 236.596 C 166.800 237.706,167.640 238.658,169.509 239.665 C 171.164 240.557,171.913 242.145,172.237 245.448 C 172.386 246.962,172.685 248.425,172.903 248.700 C 173.370 249.291,230.755 249.424,233.269 248.839 C 236.549 248.078,238.800 244.114,238.800 239.102 C 238.800 236.680,239.523 235.560,242.257 233.745 C 243.647 232.822,244.400 232.044,244.400 231.530 C 244.400 230.559,246.485 228.400,247.423 228.400 C 248.228 228.400,249.600 227.011,250.282 225.506 C 251.055 223.800,252.632 223.044,256.027 222.752 C 262.684 222.180,264.595 221.679,265.086 220.378 C 266.472 216.706,278.058 216.652,281.931 220.300 C 283.508 221.784,284.911 222.216,289.346 222.582 C 292.935 222.878,294.172 223.512,294.856 225.405 C 295.298 226.626,296.533 227.579,297.719 227.614 C 298.833 227.648,300.518 229.552,300.762 231.054 C 300.992 232.467,301.135 232.608,302.564 232.841 C 304.277 233.119,305.408 234.275,305.836 236.187 C 306.234 237.963,306.890 238.800,307.884 238.800 C 309.515 238.800,310.556 240.846,311.000 244.927 L 311.400 248.600 315.873 248.713 C 321.028 248.843,322.148 248.247,323.325 244.743 C 324.970 239.846,324.173 212.400,322.385 212.400 C 321.646 212.400,318.800 208.053,318.800 206.924 C 318.800 205.521,317.918 204.385,316.104 203.451 C 315.376 203.076,314.458 202.098,314.010 201.219 C 313.136 199.506,312.781 199.196,311.014 198.600 C 309.963 198.246,309.203 197.398,307.792 195.004 C 307.525 194.553,306.412 194.133,304.592 193.800 C 298.677 192.714,298.102 192.413,297.142 189.900 C 296.771 188.928,296.515 188.800,294.945 188.800 C 289.300 188.800,282.400 187.272,282.400 186.023 C 282.400 184.363,280.402 183.319,276.781 183.084 C 272.634 182.815,271.541 182.300,270.498 180.120 C 270.044 179.171,269.371 178.511,268.572 178.231 C 266.335 177.446,265.114 176.248,264.842 174.571 C 264.659 173.445,264.366 172.966,263.794 172.858 C 262.255 172.565,260.979 171.258,260.247 169.224 C 259.665 167.605,259.200 167.012,258.054 166.427 C 255.794 165.274,255.292 164.446,254.509 160.589 C 253.792 157.053,253.763 156.998,252.545 156.879 C 250.999 156.727,249.204 154.915,248.841 153.138 C 248.617 152.043,248.281 151.705,246.917 151.201 C 245.234 150.579,243.600 148.946,243.600 147.886 C 243.600 147.168,242.907 146.571,240.708 145.394 C 239.445 144.719,238.936 144.156,238.676 143.147 C 238.226 141.407,237.704 140.800,236.651 140.799 C 235.260 140.796,233.353 139.379,232.550 137.751 C 231.806 136.241,228.768 134.823,226.238 134.805 C 225.026 134.797,222.800 132.881,222.800 131.847 C 222.800 130.657,221.647 130.121,218.400 129.804 C 214.227 129.397,211.993 128.580,210.000 126.732 L 208.200 125.062 203.600 124.767 C 195.241 124.231,173.278 124.071,154.600 124.409 M197.600 137.177 C 202.303 137.554,205.182 138.546,206.800 140.347 C 208.073 141.765,209.833 142.366,213.598 142.667 C 217.050 142.944,218.543 143.652,219.375 145.404 C 220.141 147.018,221.034 147.743,223.031 148.370 C 224.597 148.862,225.422 149.849,226.149 152.100 C 226.273 152.485,226.758 152.800,227.226 152.800 C 228.783 152.800,230.326 154.079,231.144 156.047 C 231.827 157.691,232.158 158.015,233.590 158.444 C 235.368 158.977,236.800 160.555,236.800 161.982 C 236.800 162.598,237.225 163.016,238.300 163.460 C 240.356 164.309,241.179 165.110,242.038 167.100 C 242.522 168.221,243.023 168.800,243.510 168.800 C 244.472 168.800,246.800 171.084,246.800 172.029 C 246.800 173.343,247.625 174.587,248.926 175.233 C 251.080 176.303,252.000 178.102,252.000 181.246 C 252.000 187.449,248.666 189.186,240.200 187.393 C 237.871 186.900,232.441 186.800,207.884 186.800 L 178.368 186.800 176.831 185.232 C 175.421 183.793,173.270 182.808,171.527 182.802 C 171.157 182.801,170.437 182.215,169.927 181.500 L 169.000 180.200 168.889 161.485 C 168.748 137.862,168.763 137.798,174.600 137.070 C 176.989 136.771,193.501 136.849,197.600 137.177 M158.978 138.032 C 161.767 139.425,161.800 139.696,161.800 161.400 C 161.800 183.306,161.998 182.226,157.808 183.163 C 156.063 183.554,155.256 184.006,154.123 185.232 L 152.671 186.800 133.355 186.800 C 117.547 186.800,113.624 186.692,111.755 186.205 C 109.985 185.744,109.341 185.717,108.900 186.083 C 105.061 189.269,100.881 187.757,100.503 183.046 C 100.115 178.213,100.636 176.049,102.636 174.187 C 104.277 172.658,104.429 172.336,104.971 169.234 C 105.561 165.854,107.066 162.800,108.143 162.800 C 108.891 162.800,109.914 160.642,110.580 157.661 C 111.209 154.844,111.972 153.755,113.883 152.946 C 114.848 152.538,115.286 152.007,115.645 150.808 C 116.217 148.897,116.935 148.188,119.027 147.466 C 120.070 147.106,120.641 146.650,120.722 146.110 C 120.963 144.494,122.871 142.971,125.320 142.438 C 127.031 142.066,128.000 141.573,129.014 140.559 C 131.885 137.688,134.168 137.259,146.756 137.227 C 156.677 137.202,157.413 137.250,158.978 138.032 M127.508 241.895 C 125.224 242.039,125.212 242.046,123.756 244.240 C 122.709 245.817,121.972 246.506,121.156 246.669 C 119.430 247.014,119.143 247.649,118.795 251.892 C 118.619 254.041,118.191 256.462,117.844 257.270 C 117.272 258.606,117.271 258.897,117.842 260.470 C 118.187 261.422,118.557 263.730,118.664 265.600 C 118.865 269.125,119.373 270.800,120.239 270.800 C 120.794 270.800,122.905 272.832,124.282 274.692 C 125.614 276.490,137.621 276.798,144.600 275.212 L 146.600 274.758 147.717 271.279 C 148.332 269.366,148.827 267.662,148.817 267.494 C 148.792 267.053,151.316 264.826,151.857 264.812 C 152.595 264.793,152.800 263.751,152.800 260.017 C 152.800 255.013,152.548 254.106,150.866 253.041 C 149.798 252.365,149.191 251.509,148.422 249.594 C 147.558 247.441,147.211 246.999,146.178 246.732 C 144.804 246.378,143.573 245.182,142.748 243.400 C 142.003 241.789,137.019 241.297,127.508 241.895 M267.116 242.155 C 264.044 242.703,264.172 242.618,263.048 244.872 C 262.360 246.254,261.898 246.659,260.600 247.020 C 258.464 247.613,258.164 248.373,257.593 254.629 C 256.809 263.239,257.733 270.800,259.571 270.800 C 260.411 270.800,262.800 273.219,262.800 274.070 C 262.800 276.193,272.605 276.917,282.544 275.528 C 285.798 275.073,286.800 274.200,286.800 271.818 C 286.800 271.483,287.702 270.358,288.805 269.317 C 291.344 266.921,291.595 265.984,291.598 258.883 C 291.600 252.668,291.528 252.446,289.104 251.222 C 288.499 250.917,287.629 249.885,287.162 248.921 C 286.584 247.727,285.832 246.926,284.790 246.395 C 283.950 245.967,282.748 244.848,282.118 243.908 C 280.579 241.614,274.278 240.878,267.116 242.155 " stroke="none" fill="#04241c" fill-rule="evenodd"></path></g></svg>