<svg id="svg" version="1.1" xmlns="http://www.w3.org/2000/svg" xmlns:xlink="http://www.w3.org/1999/xlink" width="400" height="400" viewBox="0, 0, 400,400"><g id="svgg"><path id="path0" d="M130.229 105.395 C 129.364 105.703,128.471 106.280,128.243 106.677 C 127.833 107.395,127.778 107.598,127.661 108.851 C 127.588 109.626,126.094 110.268,123.541 110.621 C 121.725 110.873,121.671 110.921,121.202 112.739 C 120.938 113.763,120.655 114.825,120.573 115.100 C 120.491 115.379,119.793 115.600,118.994 115.600 C 117.079 115.600,115.600 117.055,115.600 118.939 C 115.600 120.424,115.117 120.800,113.212 120.800 C 111.539 120.800,110.427 121.937,110.082 124.000 C 109.788 125.754,109.730 125.812,107.825 126.285 C 105.389 126.889,105.189 127.093,104.914 129.252 C 104.630 131.489,104.202 132.000,102.613 132.000 C 100.958 132.000,100.000 133.065,100.000 134.902 C 100.000 136.443,98.588 138.000,97.190 138.000 C 95.669 138.000,94.930 139.287,94.433 142.800 C 93.675 148.168,93.818 147.865,91.920 148.120 C 89.661 148.423,89.406 148.887,88.801 153.795 L 88.282 158.000 86.830 158.000 C 84.144 158.000,83.723 158.653,83.415 163.292 C 83.057 168.697,83.036 168.753,81.228 169.042 C 78.192 169.527,78.353 168.656,78.169 185.600 C 77.977 203.341,78.162 204.400,81.462 204.400 C 82.863 204.400,83.600 205.231,83.600 206.812 C 83.600 208.587,84.818 209.917,86.768 210.271 C 88.570 210.598,88.602 210.631,88.721 212.271 C 88.869 214.288,89.183 214.577,91.991 215.264 C 94.164 215.796,94.183 215.814,94.486 217.600 C 94.840 219.689,95.446 220.248,97.737 220.592 C 101.323 221.132,101.429 221.182,101.821 222.508 C 102.309 224.156,104.579 225.449,107.598 225.800 C 110.482 226.135,110.728 226.308,111.021 228.217 C 111.400 230.694,111.872 230.944,116.702 231.226 C 122.086 231.541,122.296 231.634,122.631 233.864 C 123.000 236.328,123.507 236.465,133.000 236.663 C 143.820 236.890,143.493 236.819,144.055 239.052 C 144.589 241.173,144.379 241.059,148.998 241.725 C 152.464 242.224,152.608 242.286,152.937 243.421 C 153.683 245.995,154.172 246.582,155.788 246.845 C 157.603 247.140,158.800 248.391,158.800 249.995 C 158.800 251.329,159.427 251.910,161.238 252.254 C 163.136 252.614,163.600 253.089,163.600 254.669 C 163.600 256.712,164.617 258.383,166.032 258.666 C 167.351 258.930,168.399 260.133,168.402 261.389 C 168.404 261.835,168.674 262.716,169.002 263.346 C 169.331 263.976,169.600 264.803,169.600 265.185 C 169.600 266.212,170.886 267.508,172.224 267.827 C 173.714 268.182,174.800 269.116,174.800 270.043 C 174.800 271.601,175.678 272.726,177.103 272.993 C 178.655 273.284,180.800 274.689,180.800 275.414 C 180.800 276.660,185.442 279.591,187.439 279.605 C 189.370 279.619,190.003 280.076,190.253 281.639 C 190.667 284.228,190.942 284.381,195.600 284.625 C 201.568 284.937,201.600 284.947,201.600 286.608 C 201.600 289.418,202.643 289.817,210.971 290.189 C 217.763 290.493,217.853 290.520,218.150 292.380 C 218.598 295.182,215.784 294.987,257.761 295.126 C 303.953 295.280,302.466 295.372,303.076 292.320 C 303.400 290.700,304.468 290.364,310.347 290.036 C 315.821 289.730,316.400 289.440,316.400 287.004 C 316.400 285.360,317.035 284.800,318.900 284.800 C 320.506 284.800,322.800 283.857,322.800 283.197 C 322.800 282.987,323.227 282.708,323.749 282.577 C 324.271 282.446,324.946 281.858,325.249 281.270 C 325.552 280.681,326.070 279.990,326.400 279.733 C 327.079 279.203,327.505 252.038,326.907 247.403 L 326.597 245.005 324.737 244.603 C 322.601 244.140,321.203 243.049,321.194 241.838 C 321.182 240.118,320.252 239.012,318.589 238.740 C 311.085 237.514,311.579 237.719,311.324 235.726 C 311.006 233.234,310.574 233.034,304.888 232.749 C 302.090 232.608,299.763 232.472,299.718 232.447 C 299.583 232.370,299.066 229.411,299.163 229.270 C 299.780 228.372,297.222 227.717,292.711 227.619 C 283.137 227.411,280.800 227.050,280.800 225.779 C 280.800 225.274,280.334 224.308,279.764 223.631 L 278.729 222.400 274.064 222.387 C 269.062 222.374,268.000 222.032,268.000 220.436 C 268.000 219.003,266.866 217.200,265.963 217.200 C 264.299 217.200,263.601 216.466,263.575 214.686 C 263.561 213.759,263.336 211.651,263.075 210.001 L 262.600 207.003 260.800 206.639 C 258.478 206.169,258.730 206.693,258.163 201.150 C 257.612 195.749,257.509 195.549,255.125 195.228 C 253.046 194.948,252.957 194.633,252.709 186.639 C 252.514 180.390,252.141 179.600,249.383 179.600 C 247.779 179.600,247.725 179.458,247.399 174.400 C 246.962 167.605,246.229 166.000,243.567 166.000 C 242.650 166.000,242.398 164.961,242.026 159.627 C 241.673 154.585,241.147 153.600,238.805 153.600 C 237.004 153.600,236.837 153.005,236.779 146.379 C 236.712 138.680,236.480 137.987,233.777 137.414 L 231.800 136.995 231.307 133.197 C 230.656 128.175,230.407 127.675,228.397 127.353 C 226.688 127.080,226.002 126.328,225.998 124.726 C 225.992 122.432,225.190 120.778,223.963 120.533 C 222.800 120.300,221.777 119.157,222.281 118.653 C 222.420 118.514,222.345 118.400,222.115 118.400 C 221.885 118.400,221.477 117.868,221.208 117.218 C 220.639 115.845,218.722 115.375,214.968 115.686 C 212.100 115.924,211.715 116.337,211.631 119.265 C 211.602 120.263,211.444 120.351,209.115 120.665 C 206.482 121.020,206.666 120.859,205.157 124.126 C 204.830 124.835,204.229 125.334,203.539 125.472 C 201.787 125.823,201.141 126.894,200.798 130.018 C 200.439 133.291,200.281 133.535,198.433 133.676 C 196.552 133.820,195.750 135.259,195.639 138.690 C 195.526 142.173,195.433 142.253,191.199 142.494 C 187.178 142.724,186.605 143.023,185.939 145.247 L 185.473 146.800 181.603 146.800 C 178.565 146.800,177.733 146.680,177.733 146.244 C 177.733 145.306,176.727 143.198,176.381 143.412 C 176.202 143.522,175.942 143.430,175.804 143.207 C 175.666 142.983,175.172 142.800,174.707 142.800 C 173.414 142.800,170.824 141.475,170.798 140.800 C 170.761 139.859,169.787 138.800,168.956 138.799 C 168.027 138.797,166.800 136.044,166.800 133.960 C 166.800 132.410,165.767 131.600,163.789 131.600 C 162.526 131.600,162.444 131.219,162.053 123.538 C 161.696 116.544,161.479 116.000,159.043 116.000 C 157.481 116.000,156.800 115.211,156.800 113.400 C 156.800 111.287,155.992 110.646,152.300 109.828 C 151.484 109.648,151.200 109.344,151.200 108.652 C 151.200 106.997,150.383 105.289,149.475 105.046 C 147.571 104.535,131.841 104.820,130.229 105.395 M145.800 106.763 C 147.077 106.968,147.598 107.325,148.380 108.530 C 149.036 109.541,150.227 110.497,151.980 111.420 C 154.554 112.775,154.621 112.852,155.796 115.810 C 156.651 117.961,157.399 119.148,158.417 119.966 C 160.052 121.280,160.800 123.680,160.800 127.616 C 160.800 130.965,161.997 133.857,164.379 136.264 C 165.462 137.358,166.462 138.782,166.602 139.427 C 167.103 141.747,167.543 142.347,169.043 142.761 C 170.761 143.235,172.800 145.028,172.800 146.063 C 172.800 149.193,190.583 148.949,192.933 145.787 C 193.337 145.244,193.843 144.800,194.059 144.800 C 194.540 144.800,196.294 142.788,197.473 140.883 C 197.953 140.108,198.809 139.096,199.374 138.636 C 200.152 138.003,200.725 136.683,201.736 133.200 C 203.004 128.831,203.152 128.545,204.701 127.496 C 205.675 126.837,206.678 125.679,207.190 124.621 C 207.936 123.079,208.318 122.760,210.124 122.171 C 211.266 121.799,212.380 121.363,212.600 121.202 C 212.820 121.042,213.483 120.795,214.073 120.654 C 214.664 120.513,215.261 120.039,215.400 119.599 C 215.723 118.582,216.254 118.580,216.797 119.595 C 217.032 120.033,217.713 120.510,218.312 120.656 C 221.527 121.442,223.547 122.833,224.237 124.738 C 225.622 128.564,226.771 130.800,227.351 130.800 C 228.157 130.800,229.436 132.688,229.790 134.400 C 230.572 138.183,232.064 141.200,233.153 141.200 C 233.945 141.200,234.819 144.129,235.181 148.000 C 235.620 152.680,236.900 157.049,237.931 157.382 C 238.937 157.708,240.311 159.994,240.586 161.800 C 241.525 167.956,242.334 170.071,243.950 170.584 C 244.995 170.916,245.524 172.334,246.225 176.693 C 246.938 181.122,247.177 181.687,249.171 183.638 C 250.607 185.043,250.656 185.194,251.298 190.078 C 252.032 195.662,252.754 197.607,254.358 198.317 C 255.705 198.914,256.665 201.060,256.898 204.000 C 257.108 206.636,258.479 209.693,259.760 210.379 C 260.738 210.902,262.000 213.135,262.000 214.342 C 262.000 218.569,266.239 223.089,270.841 223.770 C 274.460 224.305,275.800 224.825,276.442 225.944 C 277.335 227.500,280.384 228.366,286.523 228.807 C 291.790 229.185,294.800 230.158,294.800 231.482 C 294.800 232.367,299.380 233.833,303.974 234.420 C 306.954 234.800,308.800 235.809,308.800 237.059 C 308.800 237.685,310.352 238.526,312.800 239.229 C 314.957 239.848,316.800 241.041,316.800 241.819 C 316.800 242.130,317.497 242.740,318.350 243.174 C 320.102 244.068,321.920 246.052,322.493 247.695 C 322.737 248.394,323.166 248.800,323.662 248.800 C 325.703 248.800,326.157 251.540,326.179 264.000 C 326.203 276.805,326.150 277.069,323.266 278.617 C 322.401 279.081,321.469 280.049,320.979 280.994 C 320.381 282.147,319.772 282.704,318.776 283.010 C 316.059 283.842,313.646 285.324,313.182 286.444 C 312.611 287.821,311.209 288.342,306.800 288.813 C 301.905 289.337,297.147 290.624,296.292 291.655 C 295.885 292.145,294.607 292.752,293.292 293.079 C 286.973 294.651,236.592 294.699,229.000 293.141 C 225.939 292.512,225.626 292.394,224.870 291.583 C 223.955 290.601,216.567 288.804,213.400 288.793 C 209.442 288.779,205.200 287.161,205.200 285.666 C 205.200 285.151,200.067 283.282,197.800 282.971 C 196.144 282.744,195.513 282.401,194.129 280.972 C 192.989 279.795,191.908 279.111,190.729 278.821 C 187.826 278.107,185.690 276.834,185.243 275.551 C 184.947 274.702,184.320 274.168,182.919 273.573 C 180.871 272.704,179.808 271.671,179.138 269.900 C 178.857 269.156,178.435 268.800,177.836 268.800 C 176.826 268.800,175.204 267.220,174.228 265.285 C 173.863 264.562,172.958 263.681,172.217 263.327 C 171.296 262.888,170.653 262.166,170.184 261.043 C 168.845 257.831,168.210 256.800,167.571 256.800 C 166.681 256.800,165.638 255.560,165.172 253.947 C 164.716 252.370,163.896 251.333,162.100 250.064 C 161.385 249.559,160.800 248.901,160.800 248.602 C 160.800 248.303,159.882 247.370,158.760 246.529 C 156.452 244.799,155.399 243.791,154.095 242.061 C 153.528 241.309,152.442 240.613,151.189 240.196 C 149.872 239.759,148.845 239.081,148.182 238.211 C 146.921 236.559,143.852 235.708,137.203 235.169 C 130.932 234.660,130.104 234.466,128.621 233.165 C 127.350 232.049,122.209 230.285,118.637 229.739 C 116.493 229.411,114.915 228.593,114.617 227.654 C 114.363 226.854,110.832 224.826,108.261 224.004 C 107.225 223.673,106.460 223.070,105.924 222.162 C 105.332 221.158,104.700 220.703,103.464 220.391 C 99.644 219.425,97.382 218.115,96.770 216.515 C 96.424 215.612,94.437 214.189,92.100 213.171 C 91.385 212.860,90.797 212.334,90.794 212.002 C 90.786 211.303,88.682 208.800,88.101 208.800 C 87.261 208.800,85.583 207.079,84.862 205.478 C 83.942 203.435,82.885 202.204,81.739 201.843 C 78.285 200.752,78.312 175.649,81.769 173.383 C 83.067 172.533,84.452 169.143,84.804 165.955 C 85.117 163.117,86.385 160.800,87.626 160.800 C 88.280 160.800,89.075 159.016,90.389 154.600 C 90.710 153.520,91.377 152.616,92.441 151.817 C 93.784 150.808,94.168 150.157,95.032 147.417 C 96.198 143.716,96.851 142.565,97.990 142.203 C 98.460 142.054,99.152 141.129,99.636 140.006 C 100.159 138.790,101.193 137.456,102.409 136.432 C 103.475 135.533,104.475 134.393,104.631 133.899 C 104.787 133.404,105.313 132.460,105.798 131.800 C 106.284 131.140,106.790 130.291,106.923 129.913 C 107.056 129.535,107.773 128.971,108.517 128.661 C 109.504 128.248,110.286 127.382,111.417 125.448 C 112.269 123.992,113.202 122.800,113.491 122.800 C 114.516 122.800,117.207 120.772,118.228 119.230 C 118.798 118.368,119.925 117.215,120.732 116.667 C 121.539 116.118,123.023 114.889,124.028 113.935 C 125.946 112.115,127.365 111.295,130.481 110.206 C 131.539 109.836,132.463 109.232,132.591 108.827 C 133.362 106.398,138.513 105.594,145.800 106.763 M97.700 166.500 C 96.982 167.577,96.800 168.413,96.800 170.641 C 96.800 174.599,95.869 177.942,94.388 179.299 C 91.318 182.113,90.924 196.791,93.919 196.803 C 94.578 196.805,96.400 199.040,96.400 199.846 C 96.400 200.541,99.008 202.800,99.819 202.807 C 100.305 202.812,101.054 203.517,101.800 204.671 C 102.789 206.200,103.356 206.640,105.023 207.164 C 107.447 207.927,108.593 208.708,108.952 209.844 C 109.262 210.826,112.937 212.451,116.505 213.185 C 118.437 213.583,119.015 213.914,120.072 215.230 C 120.766 216.093,121.540 216.800,121.792 216.800 C 122.044 216.800,122.959 217.138,123.825 217.550 C 124.691 217.963,126.451 218.428,127.736 218.584 C 129.604 218.810,130.370 219.137,131.566 220.217 C 133.804 222.239,135.839 222.818,142.800 223.412 C 148.451 223.895,150.800 224.556,150.800 225.666 C 150.800 226.522,151.296 226.794,155.400 228.187 C 158.470 229.229,160.800 230.805,160.800 231.839 C 160.800 232.108,161.925 232.943,163.300 233.694 C 165.136 234.697,166.019 235.474,166.623 236.622 C 167.098 237.525,168.048 238.502,168.870 238.935 C 169.921 239.489,170.595 240.316,171.447 242.100 C 172.259 243.801,173.050 244.799,174.121 245.476 C 174.957 246.004,176.127 247.269,176.721 248.288 C 177.314 249.306,178.885 251.256,180.211 252.621 C 181.537 253.985,182.977 255.771,183.411 256.589 C 183.861 257.438,185.105 258.680,186.310 259.484 C 187.471 260.258,188.596 261.219,188.810 261.619 C 189.024 262.019,189.540 262.454,189.956 262.586 C 190.373 262.718,190.802 263.165,190.910 263.579 C 191.029 264.032,192.325 264.924,194.175 265.827 C 196.200 266.814,197.430 267.685,197.795 268.390 C 198.619 269.984,199.418 270.491,201.671 270.847 C 204.561 271.304,207.841 272.755,208.417 273.832 C 209.392 275.654,214.308 276.781,221.400 276.808 C 228.927 276.837,233.737 277.841,236.054 279.869 C 238.275 281.812,280.938 281.635,286.142 279.661 C 290.569 277.982,295.315 277.090,301.200 276.829 C 306.785 276.581,308.133 276.286,309.126 275.090 C 309.684 274.417,308.378 272.797,307.284 272.805 C 273.323 273.071,255.805 272.041,254.917 269.728 C 254.816 269.465,253.713 269.138,252.467 269.002 C 251.220 268.866,248.400 268.502,246.200 268.192 C 244.000 267.882,239.788 267.433,236.841 267.194 C 231.442 266.756,229.712 266.259,228.724 264.864 C 227.999 263.838,226.048 263.277,221.600 262.814 C 214.130 262.036,211.098 261.169,210.623 259.673 C 210.332 258.754,207.237 257.178,204.848 256.732 C 202.940 256.376,201.342 255.188,200.767 253.700 C 200.563 253.170,200.081 252.800,199.596 252.800 C 198.179 252.800,192.817 250.285,192.569 249.504 C 192.191 248.311,190.399 246.904,188.960 246.671 C 187.290 246.400,184.800 244.551,184.800 243.582 C 184.800 243.093,184.077 242.528,182.568 241.837 C 181.187 241.204,179.647 240.049,178.531 238.807 C 177.538 237.703,176.518 236.798,176.263 236.796 C 175.440 236.788,164.813 226.028,163.257 223.626 C 162.393 222.294,161.455 221.365,160.409 220.805 C 159.941 220.554,158.933 219.373,158.170 218.180 C 157.407 216.988,156.249 215.735,155.595 215.398 C 154.448 214.804,152.800 212.242,152.800 211.052 C 152.800 210.732,151.983 210.076,150.985 209.593 C 149.597 208.921,148.943 208.266,148.205 206.809 C 147.457 205.334,146.805 204.689,145.320 203.952 C 144.060 203.328,143.221 202.587,142.879 201.800 C 141.963 199.689,141.765 199.455,140.571 199.072 C 138.892 198.532,138.119 197.738,137.372 195.782 C 136.825 194.350,136.401 193.927,134.841 193.256 C 133.350 192.614,132.780 192.076,132.055 190.625 C 131.413 189.338,130.829 188.727,130.072 188.548 C 128.501 188.177,126.589 186.622,126.022 185.253 C 125.707 184.492,124.995 183.833,124.063 183.440 C 122.111 182.615,121.450 182.047,120.655 180.507 C 120.287 179.795,119.405 178.915,118.693 178.549 C 116.855 177.605,112.800 174.366,112.799 173.841 C 112.799 173.598,112.371 173.130,111.848 172.800 C 108.512 170.695,107.478 169.806,106.981 168.615 C 106.213 166.779,104.311 165.725,101.200 165.413 L 98.600 165.151 97.700 166.500 M104.242 167.506 C 104.486 167.668,104.816 168.520,104.976 169.400 C 105.368 171.548,106.149 172.313,108.278 172.633 C 110.158 172.915,110.251 173.017,110.549 175.121 C 110.807 176.934,111.466 177.600,113.005 177.600 C 114.670 177.600,115.922 178.665,116.060 180.200 C 116.220 181.964,117.091 182.800,118.773 182.800 C 120.607 182.800,121.600 183.784,121.600 185.600 C 121.600 186.723,123.004 188.000,124.238 188.000 C 125.532 188.000,127.598 189.427,127.607 190.327 C 127.615 191.116,129.270 192.795,130.056 192.812 C 130.807 192.828,133.064 194.942,133.375 195.920 C 133.515 196.362,134.253 197.019,135.015 197.380 C 135.777 197.742,136.400 198.202,136.400 198.403 C 136.400 198.604,136.756 199.100,137.190 199.505 C 137.625 199.910,138.039 200.620,138.109 201.082 C 138.297 202.311,139.098 203.114,140.428 203.406 C 141.072 203.548,141.600 203.833,141.600 204.040 C 141.600 204.248,142.005 204.606,142.500 204.836 C 142.995 205.066,143.730 205.962,144.133 206.827 C 144.536 207.692,145.121 208.400,145.432 208.400 C 146.331 208.400,148.717 210.901,148.865 212.000 C 148.963 212.728,149.480 213.230,150.766 213.847 C 152.207 214.539,152.667 215.041,153.273 216.583 C 154.127 218.758,154.651 219.372,156.019 219.805 C 157.620 220.311,158.800 221.243,158.800 222.002 C 158.800 223.018,159.952 224.296,161.800 225.327 C 163.338 226.186,163.408 226.313,163.600 228.610 L 163.800 231.000 166.200 231.200 C 168.808 231.417,169.206 231.930,168.609 234.307 L 168.352 235.332 167.605 234.104 C 167.111 233.292,166.409 232.782,165.529 232.596 C 164.195 232.315,162.400 230.702,162.400 229.784 C 162.400 229.037,160.644 228.044,158.511 227.585 C 156.043 227.054,155.838 226.906,154.946 225.005 C 153.925 222.828,152.971 222.484,147.194 222.210 C 137.942 221.773,138.268 221.859,137.315 219.603 C 136.301 217.203,135.587 216.951,129.483 216.840 C 124.142 216.743,124.206 216.769,123.764 214.490 C 123.297 212.088,122.395 211.618,118.200 211.592 C 114.790 211.570,113.134 210.996,112.955 209.772 C 112.655 207.732,112.339 207.202,111.294 206.985 C 110.692 206.860,109.324 206.498,108.254 206.179 C 107.184 205.861,105.789 205.600,105.154 205.600 C 104.184 205.600,104.000 205.438,104.000 204.580 C 104.000 202.466,102.968 201.272,100.903 200.995 C 98.111 200.621,98.141 200.647,97.872 198.381 C 97.601 196.088,96.733 194.807,95.438 194.787 C 93.860 194.763,93.298 193.920,93.172 191.389 C 92.929 186.481,93.014 186.182,94.798 185.648 C 97.358 184.881,97.686 183.832,98.019 175.339 C 98.176 171.346,98.427 167.881,98.576 167.639 C 98.877 167.151,103.543 167.042,104.242 167.506 M174.713 238.621 C 175.165 240.046,175.526 240.386,177.708 241.434 C 179.072 242.089,180.387 243.023,180.630 243.510 C 181.711 245.679,184.329 247.387,187.298 247.862 C 188.196 248.006,188.800 248.325,188.800 248.657 C 188.800 248.961,188.967 249.523,189.171 249.905 C 189.375 250.287,189.635 250.904,189.749 251.275 C 189.972 252.004,192.263 252.790,194.200 252.804 C 195.671 252.814,196.510 253.308,196.648 254.244 C 197.032 256.864,197.387 257.071,203.058 257.987 C 206.520 258.546,206.800 258.708,206.800 260.151 C 206.800 262.602,207.334 262.875,212.835 263.234 C 220.139 263.712,220.800 263.873,220.800 265.183 C 220.800 267.930,223.703 268.663,235.000 268.768 C 244.848 268.860,245.043 268.900,246.012 271.026 C 246.442 271.971,247.141 272.854,247.565 272.989 C 247.989 273.124,248.755 273.350,249.268 273.493 C 249.781 273.636,262.260 273.807,277.000 273.873 C 291.740 273.938,304.587 274.098,305.548 274.228 C 309.053 274.700,306.400 275.141,297.400 275.581 C 287.479 276.066,279.801 276.808,274.400 277.805 C 265.651 279.418,257.121 280.042,256.545 279.111 C 256.439 278.940,255.767 278.800,255.052 278.800 C 254.336 278.800,252.977 278.427,252.033 277.970 C 248.288 276.161,246.570 276.005,223.764 275.406 C 214.377 275.160,213.600 275.031,213.600 273.724 C 213.600 271.422,211.924 270.400,208.146 270.400 C 204.689 270.400,201.249 269.292,201.823 268.363 C 202.437 267.369,198.387 264.800,196.207 264.800 C 194.216 264.800,193.601 264.437,193.594 263.257 C 193.583 261.267,192.734 260.245,190.822 259.919 C 188.971 259.603,188.552 259.241,188.144 257.600 C 187.760 256.058,186.404 254.800,185.124 254.800 C 184.192 254.800,183.870 254.529,183.338 253.300 C 182.981 252.475,182.510 251.407,182.291 250.926 C 182.072 250.446,181.332 249.846,180.647 249.593 C 178.469 248.791,178.229 248.561,177.810 246.873 C 177.311 244.862,176.678 244.193,174.599 243.475 C 173.089 242.953,172.987 242.815,172.775 241.005 C 172.611 239.606,172.267 238.845,171.501 238.185 C 170.206 237.071,170.492 236.727,172.585 236.881 C 174.087 236.992,174.236 237.114,174.713 238.621 " stroke="none" fill="#04b55f" fill-rule="evenodd"></path><path id="path1" d="M137.483 106.420 C 134.301 106.712,133.070 107.318,132.591 108.827 C 132.463 109.232,131.539 109.836,130.481 110.206 C 127.365 111.295,125.946 112.115,124.028 113.935 C 123.023 114.889,121.539 116.118,120.732 116.667 C 119.925 117.215,118.798 118.368,118.228 119.230 C 117.207 120.772,114.516 122.800,113.491 122.800 C 113.202 122.800,112.269 123.992,111.417 125.448 C 110.286 127.382,109.504 128.248,108.517 128.661 C 107.773 128.971,107.056 129.535,106.923 129.913 C 106.790 130.291,106.284 131.140,105.798 131.800 C 105.313 132.460,104.787 133.404,104.631 133.899 C 104.475 134.393,103.475 135.533,102.409 136.432 C 101.193 137.456,100.159 138.790,99.636 140.006 C 99.152 141.129,98.460 142.054,97.990 142.203 C 96.851 142.565,96.198 143.716,95.032 147.417 C 94.168 150.157,93.784 150.808,92.441 151.817 C 91.377 152.616,90.710 153.520,90.389 154.600 C 89.075 159.016,88.280 160.800,87.626 160.800 C 86.385 160.800,85.117 163.117,84.804 165.955 C 84.452 169.143,83.067 172.533,81.769 173.383 C 78.312 175.649,78.285 200.752,81.739 201.843 C 82.885 202.204,83.942 203.435,84.862 205.478 C 85.583 207.079,87.261 208.800,88.101 208.800 C 88.682 208.800,90.786 211.303,90.794 212.002 C 90.797 212.334,91.385 212.860,92.100 213.171 C 94.437 214.189,96.424 215.612,96.770 216.515 C 97.382 218.115,99.644 219.425,103.464 220.391 C 104.700 220.703,105.332 221.158,105.924 222.162 C 106.460 223.070,107.225 223.673,108.261 224.004 C 110.832 224.826,114.363 226.854,114.617 227.654 C 114.915 228.593,116.493 229.411,118.637 229.739 C 122.209 230.285,127.350 232.049,128.621 233.165 C 130.104 234.466,130.932 234.660,137.203 235.169 C 143.852 235.708,146.921 236.559,148.182 238.211 C 148.845 239.081,149.872 239.759,151.189 240.196 C 152.442 240.613,153.528 241.309,154.095 242.061 C 155.399 243.791,156.452 244.799,158.760 246.529 C 159.882 247.370,160.800 248.303,160.800 248.602 C 160.800 248.901,161.385 249.559,162.100 250.064 C 163.896 251.333,164.716 252.370,165.172 253.947 C 165.638 255.560,166.681 256.800,167.571 256.800 C 168.210 256.800,168.845 257.831,170.184 261.043 C 170.653 262.166,171.296 262.888,172.217 263.327 C 172.958 263.681,173.863 264.562,174.228 265.285 C 175.204 267.220,176.826 268.800,177.836 268.800 C 178.435 268.800,178.857 269.156,179.138 269.900 C 179.808 271.671,180.871 272.704,182.919 273.573 C 184.320 274.168,184.947 274.702,185.243 275.551 C 185.690 276.834,187.826 278.107,190.729 278.821 C 191.908 279.111,192.989 279.795,194.129 280.972 C 195.513 282.401,196.144 282.744,197.800 282.971 C 200.067 283.282,205.200 285.151,205.200 285.666 C 205.200 287.161,209.442 288.779,213.400 288.793 C 216.567 288.804,223.955 290.601,224.870 291.583 C 227.074 293.949,248.953 294.961,278.200 294.048 C 291.815 293.624,295.010 293.201,296.292 291.655 C 297.147 290.624,301.905 289.337,306.800 288.813 C 311.209 288.342,312.611 287.821,313.182 286.444 C 313.646 285.324,316.059 283.842,318.776 283.010 C 319.772 282.704,320.381 282.147,320.979 280.994 C 321.469 280.049,322.401 279.081,323.266 278.617 C 326.150 277.069,326.203 276.805,326.179 264.000 C 326.157 251.540,325.703 248.800,323.662 248.800 C 323.166 248.800,322.737 248.394,322.493 247.695 C 321.920 246.052,320.102 244.068,318.350 243.174 C 317.497 242.740,316.800 242.130,316.800 241.819 C 316.800 241.041,314.957 239.848,312.800 239.229 C 310.352 238.526,308.800 237.685,308.800 237.059 C 308.800 235.809,306.954 234.800,303.974 234.420 C 299.380 233.833,294.800 232.367,294.800 231.482 C 294.800 230.158,291.790 229.185,286.523 228.807 C 280.384 228.366,277.335 227.500,276.442 225.944 C 275.800 224.825,274.460 224.305,270.841 223.770 C 266.239 223.089,262.000 218.569,262.000 214.342 C 262.000 213.135,260.738 210.902,259.760 210.379 C 258.479 209.693,257.108 206.636,256.898 204.000 C 256.665 201.060,255.705 198.914,254.358 198.317 C 252.754 197.607,252.032 195.662,251.298 190.078 C 250.656 185.194,250.607 185.043,249.171 183.638 C 247.177 181.687,246.938 181.122,246.225 176.693 C 245.524 172.334,244.995 170.916,243.950 170.584 C 242.334 170.071,241.525 167.956,240.586 161.800 C 240.311 159.994,238.937 157.708,237.931 157.382 C 236.900 157.049,235.620 152.680,235.181 148.000 C 234.819 144.129,233.945 141.200,233.153 141.200 C 232.064 141.200,230.572 138.183,229.790 134.400 C 229.436 132.688,228.157 130.800,227.351 130.800 C 226.771 130.800,225.622 128.564,224.237 124.738 C 223.547 122.833,221.527 121.442,218.312 120.656 C 217.713 120.510,217.032 120.033,216.797 119.595 C 216.254 118.580,215.723 118.582,215.400 119.599 C 215.261 120.039,214.664 120.513,214.073 120.654 C 213.483 120.795,212.820 121.042,212.600 121.202 C 212.380 121.363,211.266 121.799,210.124 122.171 C 208.318 122.760,207.936 123.079,207.190 124.621 C 206.678 125.679,205.675 126.837,204.701 127.496 C 203.152 128.545,203.004 128.831,201.736 133.200 C 200.725 136.683,200.152 138.003,199.374 138.636 C 198.809 139.096,197.953 140.108,197.473 140.883 C 196.294 142.788,194.540 144.800,194.059 144.800 C 193.843 144.800,193.337 145.244,192.933 145.787 C 190.583 148.949,172.800 149.193,172.800 146.063 C 172.800 145.028,170.761 143.235,169.043 142.761 C 167.543 142.347,167.103 141.747,166.602 139.427 C 166.462 138.782,165.462 137.358,164.379 136.264 C 161.997 133.857,160.800 130.965,160.800 127.616 C 160.800 123.680,160.052 121.280,158.417 119.966 C 157.399 119.148,156.651 117.961,155.796 115.810 C 154.621 112.852,154.554 112.775,151.980 111.420 C 150.227 110.497,149.036 109.541,148.380 108.530 C 147.105 106.565,143.503 105.868,137.483 106.420 M143.029 108.260 C 144.113 108.623,145.536 109.298,146.192 109.760 C 147.886 110.954,148.757 111.464,150.780 112.445 C 152.992 113.518,153.770 114.452,154.580 117.008 C 154.930 118.112,155.573 119.601,156.008 120.317 C 156.444 121.033,156.800 121.885,156.800 122.210 C 156.800 122.534,156.975 122.800,157.190 122.800 C 157.898 122.800,158.739 125.009,159.408 128.630 C 160.443 134.226,161.139 136.018,162.929 137.696 C 163.806 138.519,164.835 139.869,165.214 140.696 C 166.107 142.643,167.378 143.948,169.071 144.655 C 169.817 144.967,170.583 145.623,170.772 146.111 C 171.731 148.595,174.922 149.605,181.767 149.593 C 189.862 149.578,196.800 147.818,196.800 145.777 C 196.800 145.518,197.643 144.462,198.673 143.432 C 200.879 141.226,201.719 139.499,202.851 134.839 C 203.718 131.273,204.907 128.800,205.756 128.800 C 206.026 128.800,206.776 128.051,207.423 127.135 C 209.236 124.571,210.699 123.283,212.111 123.008 C 212.820 122.870,214.071 122.471,214.891 122.122 C 215.946 121.672,216.530 121.609,216.891 121.904 C 217.171 122.134,218.162 122.526,219.094 122.775 C 221.484 123.414,222.498 124.538,223.987 128.200 C 224.750 130.075,225.927 132.094,226.830 133.076 C 227.679 133.998,228.481 135.258,228.614 135.876 C 228.971 137.537,230.054 140.544,230.453 140.980 C 230.644 141.189,230.800 141.687,230.800 142.088 C 230.800 142.488,231.328 143.804,231.973 145.013 C 232.618 146.221,233.343 148.243,233.586 149.505 C 234.677 155.196,236.395 159.706,238.039 161.200 C 238.603 161.713,240.800 168.736,240.800 170.028 C 240.800 170.270,241.621 171.512,242.624 172.789 C 244.156 174.740,244.505 175.518,244.809 177.665 C 245.176 180.251,247.162 185.641,248.169 186.780 C 248.907 187.615,249.790 190.403,250.393 193.800 C 250.898 196.641,252.223 199.481,253.790 201.081 C 254.310 201.612,255.103 203.597,255.787 206.081 C 256.749 209.573,257.216 210.565,258.861 212.598 C 260.018 214.030,260.801 215.401,260.803 215.998 C 260.816 219.739,264.451 223.530,269.676 225.253 C 270.928 225.666,272.854 226.564,273.955 227.248 C 275.945 228.485,281.217 229.893,287.175 230.778 C 288.592 230.989,290.227 231.513,290.810 231.944 C 292.083 232.885,296.680 234.473,300.800 235.394 C 303.715 236.046,306.800 237.420,306.800 238.066 C 306.800 238.469,311.749 240.800,312.606 240.800 C 312.957 240.800,314.108 241.700,315.163 242.800 C 316.217 243.900,317.308 244.800,317.586 244.800 C 318.199 244.800,320.800 247.569,320.800 248.222 C 320.800 248.478,321.516 249.501,322.392 250.495 C 324.752 253.177,324.800 253.458,324.800 264.666 L 324.800 274.879 323.558 276.040 C 322.874 276.678,322.176 277.200,322.006 277.200 C 321.835 277.200,320.977 278.153,320.098 279.317 C 318.999 280.772,317.953 281.659,316.750 282.154 C 313.602 283.449,312.414 284.112,310.873 285.430 C 309.349 286.735,301.521 288.800,298.100 288.800 C 297.435 288.800,294.576 289.513,291.746 290.384 C 284.765 292.532,281.256 292.801,260.400 292.789 C 240.171 292.778,236.991 292.546,230.627 290.616 C 228.064 289.840,225.210 289.104,224.284 288.981 C 217.493 288.081,210.487 286.589,209.400 285.812 C 207.910 284.748,203.777 282.800,203.007 282.800 C 201.725 282.800,197.085 280.814,196.536 280.030 C 195.888 279.105,194.301 278.341,190.505 277.127 C 188.565 276.506,187.733 275.978,186.762 274.752 C 186.076 273.885,184.948 272.891,184.257 272.542 C 182.865 271.841,180.800 270.035,180.800 269.520 C 180.800 269.052,178.292 266.826,177.750 266.812 C 177.502 266.805,176.709 265.945,175.988 264.900 C 175.266 263.855,173.992 262.460,173.155 261.800 C 172.318 261.140,171.346 259.880,170.993 259.000 C 170.268 257.188,168.925 255.509,167.658 254.831 C 167.186 254.578,166.800 254.087,166.800 253.740 C 166.800 253.062,164.531 249.812,163.329 248.767 C 162.928 248.418,161.983 247.383,161.229 246.467 C 160.475 245.550,159.679 244.800,159.461 244.800 C 159.242 244.800,157.905 243.613,156.490 242.162 C 155.074 240.711,153.335 239.282,152.626 238.985 C 151.917 238.689,151.095 238.155,150.800 237.800 C 149.386 236.096,146.722 235.092,141.092 234.140 C 137.222 233.486,134.664 232.820,133.014 232.038 C 131.686 231.408,129.430 230.683,128.000 230.427 C 126.570 230.172,124.590 229.713,123.600 229.408 C 122.610 229.102,121.061 228.661,120.158 228.428 C 119.255 228.194,117.725 227.372,116.758 226.600 C 115.087 225.268,110.375 222.800,109.501 222.800 C 109.276 222.800,108.711 222.392,108.246 221.893 C 106.705 220.239,104.619 218.903,103.182 218.647 C 102.276 218.486,101.014 217.709,99.689 216.497 C 96.736 213.798,96.695 213.767,94.775 212.787 C 93.819 212.300,92.673 211.428,92.229 210.850 C 90.922 209.151,88.652 206.950,87.942 206.695 C 87.581 206.564,86.861 205.608,86.342 204.569 C 85.824 203.530,84.539 201.762,83.486 200.640 C 80.881 197.864,80.712 197.062,80.867 188.200 L 81.000 180.600 82.900 176.764 C 83.945 174.654,84.800 172.690,84.800 172.399 C 84.800 171.776,85.860 168.068,86.682 165.817 C 87.000 164.946,87.562 164.020,87.930 163.758 C 88.753 163.176,90.558 159.630,91.266 157.204 C 91.565 156.183,92.400 154.800,93.203 153.997 C 94.640 152.560,96.800 148.204,96.800 146.742 C 96.800 146.299,97.616 145.121,98.613 144.123 C 99.611 143.126,100.670 141.729,100.967 141.018 C 101.263 140.308,102.397 138.976,103.485 138.058 C 104.573 137.141,105.867 135.582,106.361 134.593 C 106.854 133.605,108.339 131.705,109.661 130.371 C 110.982 129.037,112.304 127.369,112.599 126.665 C 113.235 125.141,114.049 124.375,116.200 123.275 C 117.080 122.824,119.045 121.183,120.567 119.628 C 122.090 118.073,123.585 116.800,123.890 116.800 C 124.195 116.800,125.294 115.914,126.332 114.832 C 127.764 113.338,128.977 112.563,131.358 111.617 C 133.084 110.931,134.789 110.017,135.148 109.585 C 135.541 109.112,136.835 108.577,138.400 108.240 C 139.830 107.932,141.013 107.662,141.029 107.640 C 141.045 107.618,141.945 107.897,143.029 108.260 M97.673 163.900 C 96.415 165.670,95.702 167.720,95.180 171.066 C 94.900 172.861,94.393 174.542,93.993 175.000 C 91.796 177.520,90.710 182.377,90.710 189.682 C 90.710 195.738,90.783 195.979,93.391 198.512 C 94.166 199.265,94.800 200.048,94.800 200.251 C 94.800 200.861,96.946 203.020,98.717 204.193 C 99.629 204.796,100.477 205.584,100.602 205.945 C 100.868 206.712,103.224 208.290,104.630 208.643 C 105.167 208.778,106.451 209.769,107.482 210.844 C 108.512 211.920,109.636 212.802,109.978 212.804 C 110.320 212.806,111.500 213.250,112.600 213.791 C 113.700 214.332,114.797 214.781,115.038 214.787 C 115.279 214.794,115.796 215.153,116.186 215.585 C 116.943 216.421,121.718 218.800,122.641 218.800 C 123.663 218.800,128.482 220.914,129.400 221.765 C 130.443 222.731,133.962 223.736,138.600 224.391 C 145.851 225.416,146.178 225.501,148.329 226.951 C 149.500 227.739,151.210 228.574,152.129 228.805 C 154.505 229.402,157.715 230.849,158.285 231.579 C 159.471 233.100,161.455 234.796,162.050 234.798 C 162.407 234.799,163.158 235.295,163.719 235.900 C 164.280 236.505,165.913 238.171,167.349 239.601 C 168.784 241.032,170.232 242.858,170.567 243.660 C 170.902 244.461,171.900 245.737,172.785 246.494 C 174.502 247.964,176.532 250.557,176.961 251.828 C 177.283 252.783,179.029 254.800,179.533 254.800 C 179.983 254.800,181.640 256.932,182.523 258.646 C 182.876 259.331,183.791 260.189,184.557 260.553 C 185.323 260.916,186.778 262.183,187.789 263.367 C 188.976 264.756,190.401 265.885,191.803 266.549 C 192.999 267.116,194.683 268.259,195.546 269.089 C 197.305 270.783,198.844 271.637,201.853 272.586 C 202.982 272.942,204.230 273.591,204.627 274.029 C 206.679 276.297,211.247 277.538,220.600 278.368 C 224.402 278.705,226.391 279.083,228.000 279.775 C 237.773 283.974,284.643 284.083,293.600 279.928 C 295.305 279.137,297.346 278.783,303.800 278.158 C 310.199 277.538,313.319 275.210,311.100 272.711 C 309.361 270.753,309.023 270.707,298.457 270.987 C 286.130 271.313,270.353 270.718,267.000 269.801 C 263.227 268.768,252.748 267.259,243.400 266.403 C 237.665 265.877,233.928 265.037,232.400 263.929 C 231.022 262.930,227.937 262.187,221.274 261.252 C 215.928 260.501,213.961 259.837,212.800 258.389 C 212.361 257.842,210.042 256.774,207.084 255.756 C 205.370 255.167,203.660 254.301,203.284 253.832 C 202.225 252.510,200.353 251.326,198.561 250.843 C 197.628 250.592,195.994 249.585,194.745 248.493 C 193.544 247.441,191.479 246.096,190.157 245.503 C 188.603 244.805,187.294 243.852,186.455 242.808 C 185.741 241.920,184.581 240.942,183.878 240.636 C 182.527 240.048,180.400 238.205,180.400 237.623 C 180.400 237.433,179.455 236.646,178.300 235.874 C 175.881 234.258,174.400 232.934,174.400 232.390 C 174.400 232.182,173.696 231.546,172.836 230.977 C 171.976 230.407,170.650 229.053,169.889 227.966 C 169.129 226.879,167.793 225.473,166.921 224.842 C 166.049 224.210,165.116 223.162,164.847 222.513 C 164.578 221.863,163.460 220.648,162.364 219.812 C 161.267 218.975,159.909 217.505,159.347 216.545 C 158.784 215.585,158.194 214.800,158.035 214.800 C 157.453 214.800,154.800 212.162,154.800 211.584 C 154.800 211.256,154.305 210.504,153.700 209.913 C 150.366 206.654,149.292 205.533,148.261 204.234 C 147.634 203.446,146.879 202.800,146.584 202.800 C 146.289 202.800,145.216 201.720,144.200 200.400 C 143.184 199.080,142.218 198.000,142.054 198.000 C 141.386 198.000,139.131 195.775,138.543 194.536 C 138.197 193.808,137.259 192.815,136.457 192.329 C 134.947 191.414,133.935 190.419,132.650 188.587 C 132.238 187.999,131.319 187.275,130.608 186.978 C 129.421 186.482,126.811 183.957,126.792 183.286 C 126.788 183.129,125.933 182.485,124.892 181.855 C 123.851 181.225,122.460 179.978,121.800 179.085 C 121.140 178.192,119.970 177.124,119.200 176.712 C 118.430 176.300,117.080 175.194,116.200 174.253 C 115.320 173.312,113.792 172.016,112.805 171.371 C 111.818 170.727,110.411 169.570,109.678 168.800 C 108.945 168.030,107.863 166.892,107.273 166.271 C 106.051 164.985,105.280 164.622,101.505 163.559 C 98.201 162.628,98.602 162.593,97.673 163.900 M105.111 166.476 C 105.832 166.918,106.674 167.880,106.981 168.615 C 107.478 169.806,108.512 170.695,111.848 172.800 C 112.371 173.130,112.799 173.598,112.799 173.841 C 112.800 174.366,116.855 177.605,118.693 178.549 C 119.405 178.915,120.287 179.795,120.655 180.507 C 121.450 182.047,122.111 182.615,124.063 183.440 C 124.995 183.833,125.707 184.492,126.022 185.253 C 126.589 186.622,128.501 188.177,130.072 188.548 C 130.829 188.727,131.413 189.338,132.055 190.625 C 132.780 192.076,133.350 192.614,134.841 193.256 C 136.401 193.927,136.825 194.350,137.372 195.782 C 138.119 197.738,138.892 198.532,140.571 199.072 C 141.765 199.455,141.963 199.689,142.879 201.800 C 143.221 202.587,144.060 203.328,145.320 203.952 C 146.805 204.689,147.457 205.334,148.205 206.809 C 148.943 208.266,149.597 208.921,150.985 209.593 C 151.983 210.076,152.800 210.732,152.800 211.052 C 152.800 212.242,154.448 214.804,155.595 215.398 C 156.249 215.735,157.407 216.988,158.170 218.180 C 158.933 219.373,159.941 220.554,160.409 220.805 C 161.455 221.365,162.393 222.294,163.257 223.626 C 164.813 226.028,175.440 236.788,176.263 236.796 C 176.518 236.798,177.538 237.703,178.531 238.807 C 179.647 240.049,181.187 241.204,182.568 241.837 C 184.077 242.528,184.800 243.093,184.800 243.582 C 184.800 244.551,187.290 246.400,188.960 246.671 C 190.399 246.904,192.191 248.311,192.569 249.504 C 192.817 250.285,198.179 252.800,199.596 252.800 C 200.081 252.800,200.563 253.170,200.767 253.700 C 201.342 255.188,202.940 256.376,204.848 256.732 C 207.237 257.178,210.332 258.754,210.623 259.673 C 211.098 261.169,214.130 262.036,221.600 262.814 C 226.048 263.277,227.999 263.838,228.724 264.864 C 229.712 266.259,231.442 266.756,236.841 267.194 C 239.788 267.433,244.000 267.882,246.200 268.192 C 248.400 268.502,251.220 268.866,252.467 269.002 C 253.713 269.138,254.816 269.465,254.917 269.728 C 255.805 272.041,273.323 273.071,307.284 272.805 C 308.378 272.797,309.684 274.417,309.126 275.090 C 308.133 276.286,306.785 276.581,301.200 276.829 C 295.315 277.090,290.569 277.982,286.142 279.661 C 280.938 281.635,238.275 281.812,236.054 279.869 C 233.737 277.841,228.927 276.837,221.400 276.808 C 214.308 276.781,209.392 275.654,208.417 273.832 C 207.841 272.755,204.561 271.304,201.671 270.847 C 199.418 270.491,198.619 269.984,197.795 268.390 C 197.430 267.685,196.200 266.814,194.175 265.827 C 192.325 264.924,191.029 264.032,190.910 263.579 C 190.802 263.165,190.373 262.718,189.956 262.586 C 189.540 262.454,189.024 262.019,188.810 261.619 C 188.596 261.219,187.471 260.258,186.310 259.484 C 185.105 258.680,183.861 257.438,183.411 256.589 C 182.977 255.771,181.537 253.985,180.211 252.621 C 178.885 251.256,177.314 249.306,176.721 248.288 C 176.127 247.269,174.957 246.004,174.121 245.476 C 173.050 244.799,172.259 243.801,171.447 242.100 C 170.595 240.316,169.921 239.489,168.870 238.935 C 168.048 238.502,167.098 237.525,166.623 236.622 C 166.019 235.474,165.136 234.697,163.300 233.694 C 161.925 232.943,160.800 232.108,160.800 231.839 C 160.800 230.805,158.470 229.229,155.400 228.187 C 151.296 226.794,150.800 226.522,150.800 225.666 C 150.800 224.556,148.451 223.895,142.800 223.412 C 135.839 222.818,133.804 222.239,131.566 220.217 C 130.370 219.137,129.604 218.810,127.736 218.584 C 126.451 218.428,124.691 217.963,123.825 217.550 C 122.959 217.138,122.044 216.800,121.792 216.800 C 121.540 216.800,120.766 216.093,120.072 215.230 C 119.015 213.914,118.437 213.583,116.505 213.185 C 112.937 212.451,109.262 210.826,108.952 209.844 C 108.593 208.708,107.447 207.927,105.023 207.164 C 103.356 206.640,102.789 206.200,101.800 204.671 C 101.054 203.517,100.305 202.812,99.819 202.807 C 99.008 202.800,96.400 200.541,96.400 199.846 C 96.400 199.040,94.578 196.805,93.919 196.803 C 90.924 196.791,91.318 182.113,94.388 179.299 C 95.869 177.942,96.800 174.599,96.800 170.641 C 96.800 168.413,96.982 167.577,97.700 166.500 L 98.600 165.151 101.200 165.413 C 102.689 165.562,104.360 166.017,105.111 166.476 " stroke="none" fill="#046c3d" fill-rule="evenodd"></path><path id="path2" d="M126.300 99.219 C 125.774 99.535,125.600 100.168,125.600 101.763 L 125.600 103.886 122.500 104.109 C 117.486 104.470,116.326 105.018,115.539 107.400 L 114.878 109.400 112.620 109.606 C 109.988 109.847,109.615 110.255,109.606 112.900 L 109.600 114.800 107.214 114.800 C 104.437 114.800,104.000 115.253,104.000 118.136 L 104.000 119.925 102.081 120.189 C 98.998 120.613,99.016 120.580,98.867 125.966 L 98.734 130.764 96.267 130.882 L 93.800 131.000 93.430 133.500 L 93.060 136.000 91.158 136.000 C 88.592 136.000,88.001 136.660,87.998 139.529 L 87.996 141.800 86.098 142.400 C 83.808 143.124,82.886 145.186,82.832 149.700 L 82.800 152.400 81.076 152.400 C 78.227 152.400,77.932 152.855,77.545 157.837 C 77.130 163.168,77.119 163.200,75.594 163.200 C 72.076 163.200,71.877 164.754,72.075 190.600 C 72.225 210.119,72.196 209.869,74.339 210.212 C 77.779 210.763,77.600 210.609,77.600 213.018 C 77.600 215.514,78.191 216.000,81.226 216.000 L 82.800 216.000 82.800 217.971 C 82.800 220.523,83.468 221.200,85.986 221.200 C 88.113 221.200,88.400 221.512,88.400 223.823 C 88.400 225.852,89.478 226.351,94.529 226.660 L 98.800 226.922 98.806 228.761 C 98.815 231.499,99.122 231.760,102.525 231.932 C 105.402 232.077,105.509 232.120,106.093 233.346 C 106.425 234.041,107.214 234.877,107.848 235.205 C 108.482 235.532,109.235 236.115,109.523 236.500 C 109.937 237.055,110.650 237.200,112.956 237.200 L 115.866 237.200 116.833 238.695 C 117.365 239.517,118.295 240.427,118.900 240.717 C 119.505 241.006,120.000 241.405,120.000 241.603 C 120.000 242.391,123.326 242.796,129.812 242.798 L 136.625 242.800 137.212 244.500 C 137.886 246.447,141.131 247.913,144.900 247.971 L 146.800 248.000 146.800 249.971 C 146.800 252.522,147.469 253.200,149.982 253.200 L 151.908 253.200 152.179 255.372 C 152.497 257.916,152.780 258.209,155.265 258.569 C 157.315 258.865,157.600 259.237,157.600 261.619 C 157.600 263.484,158.327 264.000,160.955 264.000 L 162.762 264.000 162.881 266.500 L 163.000 269.000 165.500 269.119 L 168.000 269.238 168.000 271.605 C 168.000 274.358,168.459 274.800,171.318 274.800 L 173.088 274.800 173.444 277.300 L 173.800 279.800 176.300 279.919 L 178.800 280.038 178.800 282.139 C 178.800 284.803,179.225 285.200,182.080 285.200 L 184.400 285.200 184.400 286.756 C 184.400 289.720,186.653 290.767,193.085 290.792 C 195.166 290.800,195.170 290.803,195.587 292.353 C 196.306 295.021,199.256 296.000,206.580 296.000 L 211.096 296.000 211.303 297.835 C 211.698 301.342,209.525 301.195,260.938 301.198 C 311.840 301.200,309.723 301.353,310.844 297.610 L 311.292 296.115 315.163 295.879 C 320.819 295.535,321.483 295.158,322.180 291.900 C 322.402 290.864,322.542 290.800,324.585 290.800 C 327.242 290.800,328.000 289.981,328.000 287.111 L 328.000 285.200 330.120 285.200 C 333.409 285.200,333.200 286.639,333.200 264.000 C 333.200 241.373,333.406 242.800,330.139 242.800 L 328.038 242.800 327.919 240.300 L 327.800 237.800 325.300 237.444 L 322.800 237.088 322.800 235.167 C 322.800 232.791,321.888 232.000,319.149 232.000 L 317.275 232.000 317.003 230.020 C 316.622 227.248,316.263 227.067,310.763 226.871 C 306.386 226.715,306.000 226.639,306.000 225.931 C 306.000 222.361,302.045 221.239,289.352 221.209 L 285.304 221.200 285.097 219.359 C 284.784 216.587,284.388 216.373,279.074 216.111 L 274.438 215.883 274.189 214.641 C 273.738 212.391,273.594 212.126,272.573 211.661 C 272.017 211.407,271.031 211.200,270.381 211.200 L 269.200 211.200 269.176 208.500 C 269.123 202.441,268.439 200.890,265.655 200.517 L 264.000 200.295 263.971 197.647 C 263.900 191.213,263.404 190.015,260.687 189.709 L 258.904 189.508 258.685 183.454 C 258.371 174.770,257.810 173.615,253.900 173.602 C 253.274 173.600,253.200 173.113,253.200 169.000 C 253.200 163.509,252.811 162.800,249.800 162.800 L 248.000 162.800 248.000 158.273 C 248.000 150.251,247.184 147.799,244.363 147.348 L 242.860 147.107 242.680 141.854 C 242.398 133.649,241.711 131.819,238.733 131.343 L 237.200 131.098 237.200 128.572 C 237.200 126.631,237.038 125.924,236.500 125.523 C 236.115 125.235,235.532 124.482,235.205 123.848 C 234.877 123.214,234.022 122.416,233.305 122.074 C 231.873 121.391,231.906 121.480,231.994 118.526 C 232.087 115.400,231.609 114.800,229.029 114.800 C 226.706 114.800,226.400 114.517,226.400 112.367 C 226.400 109.634,224.665 109.271,213.000 109.570 C 206.832 109.728,205.614 110.474,205.602 114.100 C 205.600 114.688,205.219 114.800,203.214 114.800 C 200.430 114.800,200.000 115.251,200.000 118.174 L 200.000 120.000 198.174 120.000 C 195.170 120.000,194.800 120.391,194.800 123.571 C 194.800 126.230,194.766 126.322,193.700 126.586 C 192.216 126.955,190.896 128.254,190.590 129.646 C 190.452 130.275,190.172 130.894,189.969 131.019 C 189.766 131.145,189.600 132.291,189.600 133.566 L 189.600 135.886 185.643 136.158 C 183.466 136.308,179.801 136.309,177.497 136.160 L 173.309 135.889 173.092 131.845 C 172.803 126.439,172.252 125.600,168.999 125.600 C 168.136 125.600,168.114 125.467,167.900 119.100 C 167.625 110.894,167.015 109.620,163.350 109.602 C 163.091 109.601,162.819 108.636,162.712 107.340 C 162.486 104.618,161.829 104.000,159.161 104.000 L 157.275 104.000 157.003 102.020 C 156.853 100.931,156.449 99.806,156.104 99.520 C 155.290 98.843,127.394 98.562,126.300 99.219 M149.475 105.046 C 150.383 105.289,151.200 106.997,151.200 108.652 C 151.200 109.344,151.484 109.648,152.300 109.828 C 155.992 110.646,156.800 111.287,156.800 113.400 C 156.800 115.211,157.481 116.000,159.043 116.000 C 161.479 116.000,161.696 116.544,162.053 123.538 C 162.444 131.219,162.526 131.600,163.789 131.600 C 165.767 131.600,166.800 132.410,166.800 133.960 C 166.800 136.044,168.027 138.797,168.956 138.799 C 169.787 138.800,170.761 139.859,170.798 140.800 C 170.824 141.475,173.414 142.800,174.707 142.800 C 175.172 142.800,175.666 142.983,175.804 143.207 C 175.942 143.430,176.202 143.522,176.381 143.412 C 176.727 143.198,177.733 145.306,177.733 146.244 C 177.733 146.680,178.565 146.800,181.603 146.800 L 185.473 146.800 185.939 145.247 C 186.605 143.023,187.178 142.724,191.199 142.494 C 195.433 142.253,195.526 142.173,195.639 138.690 C 195.750 135.259,196.552 133.820,198.433 133.676 C 200.281 133.535,200.439 133.291,200.798 130.018 C 201.141 126.894,201.787 125.823,203.539 125.472 C 204.229 125.334,204.830 124.835,205.157 124.126 C 206.666 120.859,206.482 121.020,209.115 120.665 C 211.444 120.351,211.602 120.263,211.631 119.265 C 211.715 116.337,212.100 115.924,214.968 115.686 C 218.722 115.375,220.639 115.845,221.208 117.218 C 221.477 117.868,221.885 118.400,222.115 118.400 C 222.345 118.400,222.420 118.514,222.281 118.653 C 221.777 119.157,222.800 120.300,223.963 120.533 C 225.190 120.778,225.992 122.432,225.998 124.726 C 226.002 126.328,226.688 127.080,228.397 127.353 C 230.407 127.675,230.656 128.175,231.307 133.197 L 231.800 136.995 233.777 137.414 C 236.480 137.987,236.712 138.680,236.779 146.379 C 236.837 153.005,237.004 153.600,238.805 153.600 C 241.147 153.600,241.673 154.585,242.026 159.627 C 242.398 164.961,242.650 166.000,243.567 166.000 C 246.229 166.000,246.962 167.605,247.399 174.400 C 247.725 179.458,247.779 179.600,249.383 179.600 C 252.141 179.600,252.514 180.390,252.709 186.639 C 252.957 194.633,253.046 194.948,255.125 195.228 C 257.509 195.549,257.612 195.749,258.163 201.150 C 258.730 206.693,258.478 206.169,260.800 206.639 L 262.600 207.003 263.075 210.001 C 263.336 211.651,263.561 213.759,263.575 214.686 C 263.601 216.466,264.299 217.200,265.963 217.200 C 266.866 217.200,268.000 219.003,268.000 220.436 C 268.000 222.032,269.062 222.374,274.064 222.387 L 278.729 222.400 279.764 223.631 C 280.334 224.308,280.800 225.274,280.800 225.779 C 280.800 227.050,283.137 227.411,292.711 227.619 C 297.222 227.717,299.780 228.372,299.163 229.270 C 299.066 229.411,299.583 232.370,299.718 232.447 C 299.763 232.472,302.090 232.608,304.888 232.749 C 310.574 233.034,311.006 233.234,311.324 235.726 C 311.579 237.719,311.085 237.514,318.589 238.740 C 320.252 239.012,321.182 240.118,321.194 241.838 C 321.203 243.049,322.601 244.140,324.737 244.603 L 326.597 245.005 326.907 247.403 C 327.505 252.038,327.079 279.203,326.400 279.733 C 326.070 279.990,325.552 280.681,325.249 281.270 C 324.946 281.858,324.271 282.446,323.749 282.577 C 323.227 282.708,322.800 282.987,322.800 283.197 C 322.800 283.857,320.506 284.800,318.900 284.800 C 317.035 284.800,316.400 285.360,316.400 287.004 C 316.400 289.440,315.821 289.730,310.347 290.036 C 304.468 290.364,303.400 290.700,303.076 292.320 C 302.466 295.372,303.953 295.280,257.761 295.126 C 215.784 294.987,218.598 295.182,218.150 292.380 C 217.853 290.520,217.763 290.493,210.971 290.189 C 202.643 289.817,201.600 289.418,201.600 286.608 C 201.600 284.947,201.568 284.937,195.600 284.625 C 190.942 284.381,190.667 284.228,190.253 281.639 C 190.003 280.076,189.370 279.619,187.439 279.605 C 185.442 279.591,180.800 276.660,180.800 275.414 C 180.800 274.689,178.655 273.284,177.103 272.993 C 175.678 272.726,174.800 271.601,174.800 270.043 C 174.800 269.116,173.714 268.182,172.224 267.827 C 170.886 267.508,169.600 266.212,169.600 265.185 C 169.600 264.803,169.331 263.976,169.002 263.346 C 168.674 262.716,168.404 261.835,168.402 261.389 C 168.399 260.133,167.351 258.930,166.032 258.666 C 164.617 258.383,163.600 256.712,163.600 254.669 C 163.600 253.089,163.136 252.614,161.238 252.254 C 159.427 251.910,158.800 251.329,158.800 249.995 C 158.800 248.391,157.603 247.140,155.788 246.845 C 154.172 246.582,153.683 245.995,152.937 243.421 C 152.608 242.286,152.464 242.224,148.998 241.725 C 144.379 241.059,144.589 241.173,144.055 239.052 C 143.493 236.819,143.820 236.890,133.000 236.663 C 123.507 236.465,123.000 236.328,122.631 233.864 C 122.296 231.634,122.086 231.541,116.702 231.226 C 111.872 230.944,111.400 230.694,111.021 228.217 C 110.728 226.308,110.482 226.135,107.598 225.800 C 104.579 225.449,102.309 224.156,101.821 222.508 C 101.429 221.182,101.323 221.132,97.737 220.592 C 95.446 220.248,94.840 219.689,94.486 217.600 C 94.183 215.814,94.164 215.796,91.991 215.264 C 89.183 214.577,88.869 214.288,88.721 212.271 C 88.602 210.631,88.570 210.598,86.768 210.271 C 84.818 209.917,83.600 208.587,83.600 206.812 C 83.600 205.231,82.863 204.400,81.462 204.400 C 78.162 204.400,77.977 203.341,78.169 185.600 C 78.353 168.656,78.192 169.527,81.228 169.042 C 83.036 168.753,83.057 168.697,83.415 163.292 C 83.723 158.653,84.144 158.000,86.830 158.000 L 88.282 158.000 88.801 153.795 C 89.406 148.887,89.661 148.423,91.920 148.120 C 93.818 147.865,93.675 148.168,94.433 142.800 C 94.930 139.287,95.669 138.000,97.190 138.000 C 98.588 138.000,100.000 136.443,100.000 134.902 C 100.000 133.065,100.958 132.000,102.613 132.000 C 104.202 132.000,104.630 131.489,104.914 129.252 C 105.189 127.093,105.389 126.889,107.825 126.285 C 109.730 125.812,109.788 125.754,110.082 124.000 C 110.427 121.937,111.539 120.800,113.212 120.800 C 115.117 120.800,115.600 120.424,115.600 118.939 C 115.600 117.055,117.079 115.600,118.994 115.600 C 119.793 115.600,120.491 115.379,120.573 115.100 C 120.655 114.825,120.938 113.763,121.202 112.739 C 121.671 110.921,121.725 110.873,123.541 110.621 C 126.094 110.268,127.588 109.626,127.661 108.851 C 127.778 107.598,127.833 107.395,128.243 106.677 C 129.160 105.077,145.041 103.857,149.475 105.046 M98.576 167.639 C 98.427 167.881,98.176 171.346,98.019 175.339 C 97.686 183.832,97.358 184.881,94.798 185.648 C 93.014 186.182,92.929 186.481,93.172 191.389 C 93.298 193.920,93.860 194.763,95.438 194.787 C 96.733 194.807,97.601 196.088,97.872 198.381 C 98.141 200.647,98.111 200.621,100.903 200.995 C 102.968 201.272,104.000 202.466,104.000 204.580 C 104.000 205.438,104.184 205.600,105.154 205.600 C 105.789 205.600,107.184 205.861,108.254 206.179 C 109.324 206.498,110.692 206.860,111.294 206.985 C 112.339 207.202,112.655 207.732,112.955 209.772 C 113.134 210.996,114.790 211.570,118.200 211.592 C 122.395 211.618,123.297 212.088,123.764 214.490 C 124.206 216.769,124.142 216.743,129.483 216.840 C 135.587 216.951,136.301 217.203,137.315 219.603 C 138.268 221.859,137.942 221.773,147.194 222.210 C 152.971 222.484,153.925 222.828,154.946 225.005 C 155.838 226.906,156.043 227.054,158.511 227.585 C 160.644 228.044,162.400 229.037,162.400 229.784 C 162.400 230.702,164.195 232.315,165.529 232.596 C 166.409 232.782,167.111 233.292,167.605 234.104 L 168.352 235.332 168.609 234.307 C 169.206 231.930,168.808 231.417,166.200 231.200 L 163.800 231.000 163.600 228.610 C 163.408 226.313,163.338 226.186,161.800 225.327 C 159.952 224.296,158.800 223.018,158.800 222.002 C 158.800 221.243,157.620 220.311,156.019 219.805 C 154.651 219.372,154.127 218.758,153.273 216.583 C 152.667 215.041,152.207 214.539,150.766 213.847 C 149.480 213.230,148.963 212.728,148.865 212.000 C 148.717 210.901,146.331 208.400,145.432 208.400 C 145.121 208.400,144.536 207.692,144.133 206.827 C 143.730 205.962,142.995 205.066,142.500 204.836 C 142.005 204.606,141.600 204.248,141.600 204.040 C 141.600 203.833,141.072 203.548,140.428 203.406 C 139.098 203.114,138.297 202.311,138.109 201.082 C 138.039 200.620,137.625 199.910,137.190 199.505 C 136.756 199.100,136.400 198.604,136.400 198.403 C 136.400 198.202,135.777 197.742,135.015 197.380 C 134.253 197.019,133.515 196.362,133.375 195.920 C 133.064 194.942,130.807 192.828,130.056 192.812 C 129.270 192.795,127.615 191.116,127.607 190.327 C 127.598 189.427,125.532 188.000,124.238 188.000 C 123.004 188.000,121.600 186.723,121.600 185.600 C 121.600 183.784,120.607 182.800,118.773 182.800 C 117.091 182.800,116.220 181.964,116.060 180.200 C 115.922 178.665,114.670 177.600,113.005 177.600 C 111.466 177.600,110.807 176.934,110.549 175.121 C 110.251 173.017,110.158 172.915,108.278 172.633 C 106.149 172.313,105.368 171.548,104.976 169.400 C 104.816 168.520,104.486 167.668,104.242 167.506 C 103.543 167.042,98.877 167.151,98.576 167.639 M105.117 182.877 C 105.579 183.339,109.935 183.981,112.681 183.992 L 114.762 184.000 114.881 186.500 L 115.000 189.000 117.500 189.119 L 120.000 189.238 120.000 191.605 C 120.000 194.360,120.459 194.800,123.331 194.800 C 125.332 194.800,125.600 195.133,125.600 197.619 C 125.600 199.484,126.327 200.000,128.955 200.000 L 130.762 200.000 130.881 202.500 L 131.000 205.000 133.500 205.119 L 136.000 205.238 136.000 207.130 C 136.000 208.195,136.272 209.411,136.623 209.911 L 137.245 210.800 133.638 210.800 L 130.031 210.800 129.613 209.247 C 128.895 206.583,126.762 205.760,119.500 205.347 L 114.800 205.080 114.800 203.163 C 114.800 200.781,113.889 200.000,111.111 200.000 L 109.200 200.000 109.200 198.029 C 109.200 195.478,108.531 194.800,106.017 194.800 L 104.090 194.800 103.931 191.981 C 103.668 187.321,104.080 178.182,104.447 180.555 C 104.613 181.630,104.915 182.675,105.117 182.877 M170.711 237.022 C 170.568 237.165,170.924 237.689,171.501 238.185 C 172.267 238.845,172.611 239.606,172.775 241.005 C 172.987 242.815,173.089 242.953,174.599 243.475 C 176.678 244.193,177.311 244.862,177.810 246.873 C 178.229 248.561,178.469 248.791,180.647 249.593 C 181.332 249.846,182.072 250.446,182.291 250.926 C 182.510 251.407,182.981 252.475,183.338 253.300 C 183.870 254.529,184.192 254.800,185.124 254.800 C 186.404 254.800,187.760 256.058,188.144 257.600 C 188.552 259.241,188.971 259.603,190.822 259.919 C 192.734 260.245,193.583 261.267,193.594 263.257 C 193.601 264.437,194.216 264.800,196.207 264.800 C 198.387 264.800,202.437 267.369,201.823 268.363 C 201.249 269.292,204.689 270.400,208.146 270.400 C 211.924 270.400,213.600 271.422,213.600 273.724 C 213.600 275.031,214.377 275.160,223.764 275.406 C 246.570 276.005,248.288 276.161,252.033 277.970 C 252.977 278.427,254.336 278.800,255.052 278.800 C 255.767 278.800,256.439 278.940,256.545 279.111 C 257.121 280.042,265.651 279.418,274.400 277.805 C 279.801 276.808,287.479 276.066,297.400 275.581 C 306.400 275.141,309.053 274.700,305.548 274.228 C 304.587 274.098,291.740 273.938,277.000 273.873 C 262.260 273.807,249.781 273.636,249.268 273.493 C 248.755 273.350,247.989 273.124,247.565 272.989 C 247.141 272.854,246.442 271.971,246.012 271.026 C 245.043 268.900,244.848 268.860,235.000 268.768 C 223.703 268.663,220.800 267.930,220.800 265.183 C 220.800 263.873,220.139 263.712,212.835 263.234 C 207.334 262.875,206.800 262.602,206.800 260.151 C 206.800 258.708,206.520 258.546,203.058 257.987 C 197.387 257.071,197.032 256.864,196.648 254.244 C 196.510 253.308,195.671 252.814,194.200 252.804 C 192.263 252.790,189.972 252.004,189.749 251.275 C 189.635 250.904,189.375 250.287,189.171 249.905 C 188.967 249.523,188.800 248.961,188.800 248.657 C 188.800 248.325,188.196 248.006,187.298 247.862 C 184.329 247.387,181.711 245.679,180.630 243.510 C 180.387 243.023,179.072 242.089,177.708 241.434 C 175.526 240.386,175.165 240.046,174.713 238.621 C 174.214 237.043,171.696 236.037,170.711 237.022 " stroke="none" fill="#04ea7c" fill-rule="evenodd"></path><path id="path3" d="M138.400 108.240 C 136.835 108.577,135.541 109.112,135.148 109.585 C 134.789 110.017,133.084 110.931,131.358 111.617 C 128.977 112.563,127.764 113.338,126.332 114.832 C 125.294 115.914,124.195 116.800,123.890 116.800 C 123.585 116.800,122.090 118.073,120.567 119.628 C 119.045 121.183,117.080 122.824,116.200 123.275 C 114.049 124.375,113.235 125.141,112.599 126.665 C 112.304 127.369,110.982 129.037,109.661 130.371 C 108.339 131.705,106.854 133.605,106.361 134.593 C 105.867 135.582,104.573 137.141,103.485 138.058 C 102.397 138.976,101.263 140.308,100.967 141.018 C 100.670 141.729,99.611 143.126,98.613 144.123 C 97.616 145.121,96.800 146.299,96.800 146.742 C 96.800 148.204,94.640 152.560,93.203 153.997 C 92.400 154.800,91.565 156.183,91.266 157.204 C 90.558 159.630,88.753 163.176,87.930 163.758 C 87.562 164.020,87.000 164.946,86.682 165.817 C 85.860 168.068,84.800 171.776,84.800 172.399 C 84.800 172.690,83.945 174.654,82.900 176.764 L 81.000 180.600 80.867 188.200 C 80.712 197.062,80.881 197.864,83.486 200.640 C 84.539 201.762,85.824 203.530,86.342 204.569 C 86.861 205.608,87.581 206.564,87.942 206.695 C 88.652 206.950,90.922 209.151,92.229 210.850 C 92.673 211.428,93.819 212.300,94.775 212.787 C 96.695 213.767,96.736 213.798,99.689 216.497 C 101.014 217.709,102.276 218.486,103.182 218.647 C 104.619 218.903,106.705 220.239,108.246 221.893 C 108.711 222.392,109.276 222.800,109.501 222.800 C 110.375 222.800,115.087 225.268,116.758 226.600 C 117.725 227.372,119.255 228.194,120.158 228.428 C 121.061 228.661,122.610 229.102,123.600 229.408 C 124.590 229.713,126.570 230.172,128.000 230.427 C 129.430 230.683,131.686 231.408,133.014 232.038 C 134.664 232.820,137.222 233.486,141.092 234.140 C 146.722 235.092,149.386 236.096,150.800 237.800 C 151.095 238.155,151.917 238.689,152.626 238.985 C 153.335 239.282,155.074 240.711,156.490 242.162 C 157.905 243.613,159.242 244.800,159.461 244.800 C 159.679 244.800,160.475 245.550,161.229 246.467 C 161.983 247.383,162.928 248.418,163.329 248.767 C 164.531 249.812,166.800 253.062,166.800 253.740 C 166.800 254.087,167.186 254.578,167.658 254.831 C 168.925 255.509,170.268 257.188,170.993 259.000 C 171.346 259.880,172.318 261.140,173.155 261.800 C 173.992 262.460,175.266 263.855,175.988 264.900 C 176.709 265.945,177.502 266.805,177.750 266.812 C 178.292 266.826,180.800 269.052,180.800 269.520 C 180.800 270.035,182.865 271.841,184.257 272.542 C 184.948 272.891,186.076 273.885,186.762 274.752 C 187.733 275.978,188.565 276.506,190.505 277.127 C 194.301 278.341,195.888 279.105,196.536 280.030 C 197.085 280.814,201.725 282.800,203.007 282.800 C 203.777 282.800,207.910 284.748,209.400 285.812 C 210.487 286.589,217.493 288.081,224.284 288.981 C 225.210 289.104,228.064 289.840,230.627 290.616 C 236.991 292.546,240.171 292.778,260.400 292.789 C 281.256 292.801,284.765 292.532,291.746 290.384 C 294.576 289.513,297.435 288.800,298.100 288.800 C 301.521 288.800,309.349 286.735,310.873 285.430 C 312.414 284.112,313.602 283.449,316.750 282.154 C 317.953 281.659,318.999 280.772,320.098 279.317 C 320.977 278.153,321.835 277.200,322.006 277.200 C 322.176 277.200,322.874 276.678,323.558 276.040 L 324.800 274.879 324.800 264.666 C 324.800 253.458,324.752 253.177,322.392 250.495 C 321.516 249.501,320.800 248.478,320.800 248.222 C 320.800 247.569,318.199 244.800,317.586 244.800 C 317.308 244.800,316.217 243.900,315.163 242.800 C 314.108 241.700,312.957 240.800,312.606 240.800 C 311.749 240.800,306.800 238.469,306.800 238.066 C 306.800 237.420,303.715 236.046,300.800 235.394 C 296.680 234.473,292.083 232.885,290.810 231.944 C 290.227 231.513,288.592 230.989,287.175 230.778 C 281.217 229.893,275.945 228.485,273.955 227.248 C 272.854 226.564,270.928 225.666,269.676 225.253 C 264.451 223.530,260.816 219.739,260.803 215.998 C 260.801 215.401,260.018 214.030,258.861 212.598 C 257.216 210.565,256.749 209.573,255.787 206.081 C 255.103 203.597,254.310 201.612,253.790 201.081 C 252.223 199.481,250.898 196.641,250.393 193.800 C 249.790 190.403,248.907 187.615,248.169 186.780 C 247.162 185.641,245.176 180.251,244.809 177.665 C 244.505 175.518,244.156 174.740,242.624 172.789 C 241.621 171.512,240.800 170.270,240.800 170.028 C 240.800 168.736,238.603 161.713,238.039 161.200 C 236.395 159.706,234.677 155.196,233.586 149.505 C 233.343 148.243,232.618 146.221,231.973 145.013 C 231.328 143.804,230.800 142.488,230.800 142.088 C 230.800 141.687,230.644 141.189,230.453 140.980 C 230.054 140.544,228.971 137.537,228.614 135.876 C 228.481 135.258,227.679 133.998,226.830 133.076 C 225.927 132.094,224.750 130.075,223.987 128.200 C 222.498 124.538,221.484 123.414,219.094 122.775 C 218.162 122.526,217.171 122.134,216.891 121.904 C 216.530 121.609,215.946 121.672,214.891 122.122 C 214.071 122.471,212.820 122.870,212.111 123.008 C 210.699 123.283,209.236 124.571,207.423 127.135 C 206.776 128.051,206.026 128.800,205.756 128.800 C 204.907 128.800,203.718 131.273,202.851 134.839 C 201.719 139.499,200.879 141.226,198.673 143.432 C 197.643 144.462,196.800 145.518,196.800 145.777 C 196.800 147.818,189.862 149.578,181.767 149.593 C 174.922 149.605,171.731 148.595,170.772 146.111 C 170.583 145.623,169.817 144.967,169.071 144.655 C 167.378 143.948,166.107 142.643,165.214 140.696 C 164.835 139.869,163.806 138.519,162.929 137.696 C 161.139 136.018,160.443 134.226,159.408 128.630 C 158.739 125.009,157.898 122.800,157.190 122.800 C 156.975 122.800,156.800 122.534,156.800 122.210 C 156.800 121.885,156.444 121.033,156.008 120.317 C 155.573 119.601,154.930 118.112,154.580 117.008 C 153.770 114.452,152.992 113.518,150.780 112.445 C 148.757 111.464,147.886 110.954,146.192 109.760 C 145.272 109.111,141.179 107.431,141.029 107.640 C 141.013 107.662,139.830 107.932,138.400 108.240 M146.816 112.620 C 149.117 113.637,151.270 114.553,151.600 114.656 C 151.955 114.767,152.759 116.593,153.567 119.122 C 154.736 122.780,156.317 126.072,157.255 126.800 C 157.758 127.190,158.800 131.370,158.800 132.994 C 158.800 134.550,160.518 138.800,161.147 138.800 C 161.836 138.800,163.898 141.160,164.470 142.603 C 164.935 143.777,165.567 144.450,166.852 145.145 C 167.813 145.664,169.103 146.803,169.718 147.675 C 171.795 150.621,173.075 150.902,183.542 150.701 C 194.100 150.499,195.937 150.117,197.997 147.696 C 198.697 146.873,200.030 145.390,200.959 144.400 C 202.448 142.813,202.731 142.197,203.350 139.200 C 203.736 137.330,204.206 135.350,204.396 134.800 C 204.585 134.250,204.851 133.125,204.988 132.300 C 205.124 131.475,205.420 130.800,205.645 130.800 C 206.566 130.800,208.816 128.619,209.631 126.936 C 210.110 125.946,210.704 125.083,210.951 125.019 C 211.198 124.955,212.457 124.593,213.749 124.215 C 215.871 123.595,216.256 123.586,217.749 124.126 C 218.657 124.455,219.858 124.825,220.417 124.949 C 221.290 125.142,221.586 125.651,222.498 128.532 C 223.708 132.352,225.016 134.800,225.846 134.800 C 226.760 134.800,228.049 138.371,229.186 144.057 C 229.439 145.321,230.333 147.466,231.219 148.935 C 232.089 150.377,232.802 152.061,232.804 152.678 C 232.812 154.649,235.059 161.117,236.212 162.488 C 237.582 164.115,238.800 166.902,238.800 168.407 C 238.800 169.991,240.787 174.448,241.885 175.326 C 242.849 176.097,243.563 178.214,244.601 183.382 C 245.231 186.514,246.293 189.013,247.677 190.616 C 248.064 191.064,248.639 192.774,248.954 194.416 C 249.768 198.650,251.003 201.503,252.764 203.211 C 254.098 204.506,254.338 205.032,254.697 207.449 C 255.191 210.781,256.591 213.922,257.834 214.488 C 258.795 214.926,259.027 215.396,260.381 219.636 C 261.461 223.018,266.305 226.800,269.558 226.800 C 269.791 226.800,270.276 227.250,270.637 227.800 C 270.997 228.350,271.621 228.800,272.022 228.800 C 272.424 228.800,272.849 228.955,272.966 229.144 C 273.271 229.638,277.390 230.681,280.200 230.975 C 281.718 231.134,283.656 231.741,285.474 232.626 C 287.055 233.395,289.935 234.390,291.874 234.837 C 293.813 235.284,296.402 235.909,297.626 236.225 C 298.851 236.541,300.300 236.800,300.848 236.800 C 301.430 236.800,302.484 237.387,303.384 238.211 C 305.128 239.808,306.319 240.398,309.934 241.458 C 311.817 242.009,312.686 242.508,313.319 243.400 C 314.414 244.943,315.031 245.432,317.054 246.357 C 318.472 247.006,318.805 247.407,319.392 249.175 C 319.772 250.321,320.660 251.805,321.392 252.518 C 324.096 255.154,324.554 275.192,321.910 275.202 C 321.046 275.205,318.884 277.512,318.343 279.008 C 317.983 280.003,317.526 280.491,316.815 280.639 C 316.257 280.756,315.080 281.130,314.200 281.470 C 313.320 281.811,311.988 282.317,311.239 282.594 C 310.491 282.872,309.392 283.656,308.797 284.337 C 307.323 286.025,306.165 286.388,300.808 286.834 C 295.569 287.271,288.506 288.452,283.800 289.679 C 274.654 292.062,243.904 292.041,237.000 289.647 C 234.101 288.641,226.728 287.351,221.800 286.987 C 218.007 286.707,213.178 285.782,212.815 285.267 C 211.805 283.832,206.519 281.788,201.385 280.848 C 199.503 280.504,198.809 280.138,198.778 279.476 C 198.728 278.406,196.240 277.083,192.685 276.236 C 189.622 275.507,188.920 275.193,188.526 274.379 C 187.855 272.993,186.010 271.366,184.600 270.919 C 183.834 270.676,183.082 269.971,182.519 268.969 C 182.025 268.088,180.719 266.786,179.544 266.000 C 178.261 265.143,177.128 263.981,176.622 263.002 C 176.098 261.990,175.273 261.158,174.371 260.733 C 173.212 260.188,172.738 259.572,171.826 257.426 C 171.042 255.581,170.346 254.581,169.508 254.095 C 168.817 253.694,167.899 252.555,167.336 251.400 C 165.869 248.391,164.768 247.046,161.748 244.578 C 160.237 243.343,158.943 242.086,158.874 241.785 C 158.805 241.484,158.400 241.127,157.974 240.992 C 157.548 240.856,157.008 240.389,156.775 239.954 C 156.542 239.518,155.957 238.991,155.476 238.782 C 154.103 238.186,153.139 237.499,151.820 236.176 C 150.068 234.418,147.883 233.690,141.751 232.822 C 140.106 232.589,138.778 232.151,138.250 231.669 C 137.009 230.535,131.584 228.800,129.277 228.800 C 126.156 228.800,119.967 227.046,119.005 225.889 C 118.217 224.941,116.801 224.076,114.800 223.320 C 112.001 222.262,109.266 220.662,108.905 219.872 C 108.628 219.264,107.633 218.681,105.750 218.026 C 103.721 217.319,102.581 216.623,101.400 215.371 C 99.742 213.611,98.194 212.555,95.320 211.224 C 94.138 210.676,93.395 209.966,92.814 208.828 C 92.274 207.768,91.440 206.930,90.394 206.397 C 88.858 205.613,87.227 203.577,86.631 201.700 C 86.475 201.205,86.190 200.800,86.000 200.800 C 85.810 200.800,85.538 200.435,85.397 199.989 C 85.255 199.543,84.433 198.362,83.570 197.365 L 82.000 195.551 82.000 191.249 C 82.000 186.218,82.559 182.604,83.555 181.200 C 84.538 179.813,86.341 174.040,86.799 170.806 C 87.291 167.339,87.391 167.111,88.969 165.852 C 90.309 164.784,91.421 162.349,92.433 158.267 C 92.796 156.802,93.229 156.126,94.225 155.473 C 95.843 154.413,96.462 153.337,97.376 150.000 C 98.349 146.447,98.644 145.904,100.034 145.107 C 100.727 144.709,101.559 143.690,101.995 142.708 C 102.883 140.701,104.113 139.289,105.398 138.801 C 105.904 138.608,106.729 137.629,107.230 136.625 C 107.732 135.621,108.290 134.800,108.471 134.800 C 108.652 134.800,108.800 134.526,108.800 134.191 C 108.800 133.857,109.250 133.378,109.800 133.127 C 110.350 132.877,110.800 132.565,110.800 132.436 C 110.801 132.306,111.254 131.673,111.808 131.029 C 112.362 130.385,113.307 128.823,113.908 127.558 C 114.742 125.801,115.257 125.197,116.087 125.000 C 116.684 124.858,117.817 124.305,118.604 123.771 C 119.392 123.237,120.131 122.800,120.249 122.800 C 120.621 122.800,122.650 120.628,123.148 119.696 C 123.412 119.203,123.797 118.800,124.002 118.800 C 124.725 118.800,127.921 116.295,128.443 115.319 C 129.066 114.156,130.558 113.316,132.905 112.806 C 135.102 112.328,140.491 110.435,140.975 109.971 C 141.198 109.756,141.607 109.845,141.990 110.191 C 142.343 110.510,144.514 111.603,146.816 112.620 M97.561 160.875 C 96.313 161.901,95.087 164.503,94.568 167.228 C 94.038 170.010,92.960 172.800,92.415 172.800 C 91.107 172.800,89.636 179.977,89.341 187.800 C 89.050 195.499,89.345 196.930,91.720 199.343 C 92.644 200.282,93.884 201.784,94.477 202.681 C 95.069 203.578,96.068 204.540,96.697 204.819 C 97.327 205.097,98.334 206.010,98.935 206.846 C 99.733 207.956,100.647 208.599,102.314 209.223 C 104.027 209.863,104.903 210.492,105.810 211.729 C 106.738 212.997,107.686 213.662,109.884 214.591 C 111.459 215.256,113.420 216.386,114.242 217.103 C 115.063 217.819,116.470 218.590,117.368 218.816 C 118.265 219.042,119.961 219.581,121.136 220.014 C 122.310 220.446,123.711 220.800,124.249 220.800 C 124.832 220.800,125.789 221.362,126.620 222.193 C 128.576 224.150,129.768 224.654,133.200 224.978 C 138.437 225.474,143.522 226.663,144.725 227.675 C 145.748 228.535,149.100 229.786,153.078 230.794 C 154.142 231.063,155.533 231.928,156.878 233.156 C 158.993 235.088,161.729 236.800,162.699 236.800 C 162.980 236.800,163.613 237.630,164.105 238.644 C 164.792 240.059,165.441 240.711,166.900 241.450 C 167.945 241.980,168.800 242.688,168.800 243.023 C 168.800 244.180,170.507 246.972,172.566 249.182 C 173.703 250.402,174.985 252.092,175.416 252.939 C 176.255 254.586,177.201 255.642,179.181 257.140 C 179.864 257.657,180.664 258.658,180.960 259.365 C 181.291 260.157,182.284 261.156,183.551 261.969 C 184.681 262.694,186.099 264.004,186.703 264.881 C 187.387 265.875,188.687 266.950,190.156 267.738 C 191.452 268.432,193.072 269.557,193.756 270.239 C 195.455 271.931,196.726 272.662,198.512 272.975 C 200.478 273.320,202.566 274.569,203.086 275.710 C 203.668 276.987,207.831 278.367,212.447 278.813 C 216.910 279.244,220.694 279.888,221.800 280.404 C 228.637 283.598,243.651 284.658,272.400 283.976 C 289.573 283.569,295.332 282.815,300.063 280.356 C 300.428 280.166,302.872 279.661,305.493 279.233 C 310.019 278.495,312.172 277.704,314.100 276.069 C 315.012 275.297,314.983 274.297,313.963 271.276 C 312.878 268.064,313.056 268.099,302.000 268.925 C 291.916 269.679,285.386 269.449,274.800 267.966 C 268.777 267.123,265.140 266.761,253.000 265.796 C 239.855 264.751,238.490 264.535,236.446 263.181 C 234.045 261.591,231.594 260.946,225.987 260.428 C 220.271 259.900,216.902 259.048,215.600 257.800 C 214.292 256.548,211.691 255.426,208.091 254.563 C 205.535 253.949,205.078 253.697,204.327 252.481 C 203.776 251.590,202.819 250.823,201.636 250.323 C 198.289 248.910,197.814 248.620,196.022 246.891 C 194.709 245.625,193.550 244.965,191.599 244.372 C 190.024 243.894,188.721 243.229,188.377 242.729 C 186.928 240.619,185.892 239.643,184.501 239.075 C 183.536 238.680,182.571 237.816,181.800 236.654 C 181.140 235.659,180.238 234.753,179.796 234.639 C 179.354 234.526,178.364 233.814,177.596 233.058 C 176.828 232.301,175.683 231.169,175.051 230.541 C 174.418 229.914,173.203 228.717,172.351 227.883 C 171.498 227.049,170.800 226.132,170.800 225.846 C 170.800 225.559,169.916 224.722,168.836 223.985 C 167.704 223.213,166.390 221.833,165.736 220.730 C 165.111 219.677,164.381 218.812,164.114 218.808 C 163.325 218.795,160.800 216.376,160.800 215.633 C 160.800 214.833,158.953 212.996,157.800 212.650 C 157.360 212.517,156.443 211.372,155.762 210.105 C 154.867 208.439,154.091 207.573,152.962 206.982 C 151.903 206.426,151.160 205.639,150.655 204.533 C 150.176 203.488,149.335 202.562,148.309 201.952 C 146.308 200.762,145.577 200.054,144.733 198.488 C 144.366 197.807,143.356 196.888,142.488 196.445 C 141.528 195.955,140.661 195.115,140.273 194.298 C 139.400 192.457,137.793 190.800,136.881 190.800 C 136.005 190.800,134.800 189.609,134.800 188.743 C 134.800 187.935,132.927 186.249,131.080 185.394 C 130.069 184.926,129.289 184.158,128.749 183.101 C 128.185 181.995,127.492 181.334,126.469 180.929 C 125.661 180.608,124.550 179.715,124.000 178.943 C 122.574 176.943,121.598 176.033,119.998 175.207 C 119.227 174.809,118.000 173.655,117.273 172.642 C 116.545 171.629,115.769 170.800,115.548 170.800 C 114.932 170.800,112.444 168.840,109.952 166.391 C 108.716 165.176,107.006 163.826,106.153 163.391 C 105.300 162.956,103.972 162.208,103.201 161.728 C 101.401 160.609,98.431 160.159,97.561 160.875 M101.505 163.559 C 105.280 164.622,106.051 164.985,107.273 166.271 C 107.863 166.892,108.945 168.030,109.678 168.800 C 110.411 169.570,111.818 170.727,112.805 171.371 C 113.792 172.016,115.320 173.312,116.200 174.253 C 117.080 175.194,118.430 176.300,119.200 176.712 C 119.970 177.124,121.140 178.192,121.800 179.085 C 122.460 179.978,123.851 181.225,124.892 181.855 C 125.933 182.485,126.788 183.129,126.792 183.286 C 126.811 183.957,129.421 186.482,130.608 186.978 C 131.319 187.275,132.238 187.999,132.650 188.587 C 133.935 190.419,134.947 191.414,136.457 192.329 C 137.259 192.815,138.197 193.808,138.543 194.536 C 139.131 195.775,141.386 198.000,142.054 198.000 C 142.218 198.000,143.184 199.080,144.200 200.400 C 145.216 201.720,146.289 202.800,146.584 202.800 C 146.879 202.800,147.634 203.446,148.261 204.234 C 149.292 205.533,150.366 206.654,153.700 209.913 C 154.305 210.504,154.800 211.256,154.800 211.584 C 154.800 212.162,157.453 214.800,158.035 214.800 C 158.194 214.800,158.784 215.585,159.347 216.545 C 159.909 217.505,161.267 218.975,162.364 219.812 C 163.460 220.648,164.578 221.863,164.847 222.513 C 165.116 223.162,166.049 224.210,166.921 224.842 C 167.793 225.473,169.129 226.879,169.889 227.966 C 170.650 229.053,171.976 230.407,172.836 230.977 C 173.696 231.546,174.400 232.182,174.400 232.390 C 174.400 232.934,175.881 234.258,178.300 235.874 C 179.455 236.646,180.400 237.433,180.400 237.623 C 180.400 238.205,182.527 240.048,183.878 240.636 C 184.581 240.942,185.741 241.920,186.455 242.808 C 187.294 243.852,188.603 244.805,190.157 245.503 C 191.479 246.096,193.544 247.441,194.745 248.493 C 195.994 249.585,197.628 250.592,198.561 250.843 C 200.353 251.326,202.225 252.510,203.284 253.832 C 203.660 254.301,205.370 255.167,207.084 255.756 C 210.042 256.774,212.361 257.842,212.800 258.389 C 213.961 259.837,215.928 260.501,221.274 261.252 C 227.937 262.187,231.022 262.930,232.400 263.929 C 233.928 265.037,237.665 265.877,243.400 266.403 C 252.748 267.259,263.227 268.768,267.000 269.801 C 270.353 270.718,286.130 271.313,298.457 270.987 C 309.023 270.707,309.361 270.753,311.100 272.711 C 313.319 275.210,310.199 277.538,303.800 278.158 C 297.346 278.783,295.305 279.137,293.600 279.928 C 284.643 284.083,237.773 283.974,228.000 279.775 C 226.391 279.083,224.402 278.705,220.600 278.368 C 211.247 277.538,206.679 276.297,204.627 274.029 C 204.230 273.591,202.982 272.942,201.853 272.586 C 198.844 271.637,197.305 270.783,195.546 269.089 C 194.683 268.259,192.999 267.116,191.803 266.549 C 190.401 265.885,188.976 264.756,187.789 263.367 C 186.778 262.183,185.323 260.916,184.557 260.553 C 183.791 260.189,182.876 259.331,182.523 258.646 C 181.640 256.932,179.983 254.800,179.533 254.800 C 179.029 254.800,177.283 252.783,176.961 251.828 C 176.532 250.557,174.502 247.964,172.785 246.494 C 171.900 245.737,170.902 244.461,170.567 243.660 C 170.232 242.858,168.784 241.032,167.349 239.601 C 165.913 238.171,164.280 236.505,163.719 235.900 C 163.158 235.295,162.407 234.799,162.050 234.798 C 161.455 234.796,159.471 233.100,158.285 231.579 C 157.715 230.849,154.505 229.402,152.129 228.805 C 151.210 228.574,149.500 227.739,148.329 226.951 C 146.178 225.501,145.851 225.416,138.600 224.391 C 133.962 223.736,130.443 222.731,129.400 221.765 C 128.482 220.914,123.663 218.800,122.641 218.800 C 121.718 218.800,116.943 216.421,116.186 215.585 C 115.796 215.153,115.279 214.794,115.038 214.787 C 114.797 214.781,113.700 214.332,112.600 213.791 C 111.500 213.250,110.320 212.806,109.978 212.804 C 109.636 212.802,108.512 211.920,107.482 210.844 C 106.451 209.769,105.167 208.778,104.630 208.643 C 103.224 208.290,100.868 206.712,100.602 205.945 C 100.477 205.584,99.629 204.796,98.717 204.193 C 96.946 203.020,94.800 200.861,94.800 200.251 C 94.800 200.048,94.166 199.265,93.391 198.512 C 90.783 195.979,90.710 195.738,90.710 189.682 C 90.710 182.377,91.796 177.520,93.993 175.000 C 94.393 174.542,94.900 172.861,95.180 171.066 C 95.702 167.720,96.415 165.670,97.673 163.900 C 98.602 162.593,98.201 162.628,101.505 163.559 " stroke="none" fill="#045434" fill-rule="evenodd"></path><path id="path4" d="M140.975 109.971 C 140.491 110.435,135.102 112.328,132.905 112.806 C 130.558 113.316,129.066 114.156,128.443 115.319 C 127.921 116.295,124.725 118.800,124.002 118.800 C 123.797 118.800,123.412 119.203,123.148 119.696 C 122.650 120.628,120.621 122.800,120.249 122.800 C 120.131 122.800,119.392 123.237,118.604 123.771 C 117.817 124.305,116.684 124.858,116.087 125.000 C 115.257 125.197,114.742 125.801,113.908 127.558 C 113.307 128.823,112.362 130.385,111.808 131.029 C 111.254 131.673,110.801 132.306,110.800 132.436 C 110.800 132.565,110.350 132.877,109.800 133.127 C 109.250 133.378,108.800 133.857,108.800 134.191 C 108.800 134.526,108.652 134.800,108.471 134.800 C 108.290 134.800,107.732 135.621,107.230 136.625 C 106.729 137.629,105.904 138.608,105.398 138.801 C 104.113 139.289,102.883 140.701,101.995 142.708 C 101.559 143.690,100.727 144.709,100.034 145.107 C 98.644 145.904,98.349 146.447,97.376 150.000 C 96.462 153.337,95.843 154.413,94.225 155.473 C 93.229 156.126,92.796 156.802,92.433 158.267 C 91.421 162.349,90.309 164.784,88.969 165.852 C 87.391 167.111,87.291 167.339,86.799 170.806 C 86.341 174.040,84.538 179.813,83.555 181.200 C 82.559 182.604,82.000 186.218,82.000 191.249 L 82.000 195.551 83.570 197.365 C 84.433 198.362,85.255 199.543,85.397 199.989 C 85.538 200.435,85.810 200.800,86.000 200.800 C 86.190 200.800,86.475 201.205,86.631 201.700 C 87.227 203.577,88.858 205.613,90.394 206.397 C 91.440 206.930,92.274 207.768,92.814 208.828 C 93.395 209.966,94.138 210.676,95.320 211.224 C 98.194 212.555,99.742 213.611,101.400 215.371 C 102.581 216.623,103.721 217.319,105.750 218.026 C 107.633 218.681,108.628 219.264,108.905 219.872 C 109.266 220.662,112.001 222.262,114.800 223.320 C 116.801 224.076,118.217 224.941,119.005 225.889 C 119.967 227.046,126.156 228.800,129.277 228.800 C 131.584 228.800,137.009 230.535,138.250 231.669 C 138.778 232.151,140.106 232.589,141.751 232.822 C 147.883 233.690,150.068 234.418,151.820 236.176 C 153.139 237.499,154.103 238.186,155.476 238.782 C 155.957 238.991,156.542 239.518,156.775 239.954 C 157.008 240.389,157.548 240.856,157.974 240.992 C 158.400 241.127,158.805 241.484,158.874 241.785 C 158.943 242.086,160.237 243.343,161.748 244.578 C 164.768 247.046,165.869 248.391,167.336 251.400 C 167.899 252.555,168.817 253.694,169.508 254.095 C 170.346 254.581,171.042 255.581,171.826 257.426 C 172.738 259.572,173.212 260.188,174.371 260.733 C 175.273 261.158,176.098 261.990,176.622 263.002 C 177.128 263.981,178.261 265.143,179.544 266.000 C 180.719 266.786,182.025 268.088,182.519 268.969 C 183.082 269.971,183.834 270.676,184.600 270.919 C 186.010 271.366,187.855 272.993,188.526 274.379 C 188.920 275.193,189.622 275.507,192.685 276.236 C 196.240 277.083,198.728 278.406,198.778 279.476 C 198.809 280.138,199.503 280.504,201.385 280.848 C 206.519 281.788,211.805 283.832,212.815 285.267 C 213.178 285.782,218.007 286.707,221.800 286.987 C 226.728 287.351,234.101 288.641,237.000 289.647 C 240.722 290.938,246.642 291.341,261.400 291.309 C 275.565 291.279,278.472 291.067,283.800 289.679 C 288.506 288.452,295.569 287.271,300.808 286.834 C 306.165 286.388,307.323 286.025,308.797 284.337 C 309.392 283.656,310.491 282.872,311.239 282.594 C 311.988 282.317,313.320 281.811,314.200 281.470 C 315.080 281.130,316.257 280.756,316.815 280.639 C 317.526 280.491,317.983 280.003,318.343 279.008 C 318.884 277.512,321.046 275.205,321.910 275.202 C 324.554 275.192,324.096 255.154,321.392 252.518 C 320.660 251.805,319.772 250.321,319.392 249.175 C 318.805 247.407,318.472 247.006,317.054 246.357 C 315.031 245.432,314.414 244.943,313.319 243.400 C 312.686 242.508,311.817 242.009,309.934 241.458 C 306.319 240.398,305.128 239.808,303.384 238.211 C 302.484 237.387,301.430 236.800,300.848 236.800 C 300.300 236.800,298.851 236.541,297.626 236.225 C 296.402 235.909,293.813 235.284,291.874 234.837 C 289.935 234.390,287.055 233.395,285.474 232.626 C 283.656 231.741,281.718 231.134,280.200 230.975 C 277.390 230.681,273.271 229.638,272.966 229.144 C 272.849 228.955,272.424 228.800,272.022 228.800 C 271.621 228.800,270.997 228.350,270.637 227.800 C 270.276 227.250,269.791 226.800,269.558 226.800 C 266.305 226.800,261.461 223.018,260.381 219.636 C 259.027 215.396,258.795 214.926,257.834 214.488 C 256.591 213.922,255.191 210.781,254.697 207.449 C 254.338 205.032,254.098 204.506,252.764 203.211 C 251.003 201.503,249.768 198.650,248.954 194.416 C 248.639 192.774,248.064 191.064,247.677 190.616 C 246.293 189.013,245.231 186.514,244.601 183.382 C 243.563 178.214,242.849 176.097,241.885 175.326 C 240.787 174.448,238.800 169.991,238.800 168.407 C 238.800 166.902,237.582 164.115,236.212 162.488 C 235.059 161.117,232.812 154.649,232.804 152.678 C 232.802 152.061,232.089 150.377,231.219 148.935 C 230.333 147.466,229.439 145.321,229.186 144.057 C 228.049 138.371,226.760 134.800,225.846 134.800 C 225.016 134.800,223.708 132.352,222.498 128.532 C 221.586 125.651,221.290 125.142,220.417 124.949 C 219.858 124.825,218.657 124.455,217.749 124.126 C 216.256 123.586,215.871 123.595,213.749 124.215 C 212.457 124.593,211.198 124.955,210.951 125.019 C 210.704 125.083,210.110 125.946,209.631 126.936 C 208.816 128.619,206.566 130.800,205.645 130.800 C 205.420 130.800,205.124 131.475,204.988 132.300 C 204.851 133.125,204.585 134.250,204.396 134.800 C 204.206 135.350,203.736 137.330,203.350 139.200 C 202.731 142.197,202.448 142.813,200.959 144.400 C 200.030 145.390,198.697 146.873,197.997 147.696 C 195.937 150.117,194.100 150.499,183.542 150.701 C 173.075 150.902,171.795 150.621,169.718 147.675 C 169.103 146.803,167.813 145.664,166.852 145.145 C 165.567 144.450,164.935 143.777,164.470 142.603 C 163.898 141.160,161.836 138.800,161.147 138.800 C 160.518 138.800,158.800 134.550,158.800 132.994 C 158.800 131.370,157.758 127.190,157.255 126.800 C 156.317 126.072,154.736 122.780,153.567 119.122 C 152.759 116.593,151.955 114.767,151.600 114.656 C 149.978 114.150,142.552 110.699,141.990 110.191 C 141.607 109.845,141.198 109.756,140.975 109.971 M103.201 161.728 C 103.972 162.208,105.300 162.956,106.153 163.391 C 107.006 163.826,108.716 165.176,109.952 166.391 C 112.444 168.840,114.932 170.800,115.548 170.800 C 115.769 170.800,116.545 171.629,117.273 172.642 C 118.000 173.655,119.227 174.809,119.998 175.207 C 121.598 176.033,122.574 176.943,124.000 178.943 C 124.550 179.715,125.661 180.608,126.469 180.929 C 127.492 181.334,128.185 181.995,128.749 183.101 C 129.289 184.158,130.069 184.926,131.080 185.394 C 132.927 186.249,134.800 187.935,134.800 188.743 C 134.800 189.609,136.005 190.800,136.881 190.800 C 137.793 190.800,139.400 192.457,140.273 194.298 C 140.661 195.115,141.528 195.955,142.488 196.445 C 143.356 196.888,144.366 197.807,144.733 198.488 C 145.577 200.054,146.308 200.762,148.309 201.952 C 149.335 202.562,150.176 203.488,150.655 204.533 C 151.160 205.639,151.903 206.426,152.962 206.982 C 154.091 207.573,154.867 208.439,155.762 210.105 C 156.443 211.372,157.360 212.517,157.800 212.650 C 158.953 212.996,160.800 214.833,160.800 215.633 C 160.800 216.376,163.325 218.795,164.114 218.808 C 164.381 218.812,165.111 219.677,165.736 220.730 C 166.390 221.833,167.704 223.213,168.836 223.985 C 169.916 224.722,170.800 225.559,170.800 225.846 C 170.800 226.132,171.498 227.049,172.351 227.883 C 173.203 228.717,174.418 229.914,175.051 230.541 C 175.683 231.169,176.828 232.301,177.596 233.058 C 178.364 233.814,179.354 234.526,179.796 234.639 C 180.238 234.753,181.140 235.659,181.800 236.654 C 182.571 237.816,183.536 238.680,184.501 239.075 C 185.892 239.643,186.928 240.619,188.377 242.729 C 188.721 243.229,190.024 243.894,191.599 244.372 C 193.550 244.965,194.709 245.625,196.022 246.891 C 197.814 248.620,198.289 248.910,201.636 250.323 C 202.819 250.823,203.776 251.590,204.327 252.481 C 205.078 253.697,205.535 253.949,208.091 254.563 C 211.691 255.426,214.292 256.548,215.600 257.800 C 216.902 259.048,220.271 259.900,225.987 260.428 C 231.594 260.946,234.045 261.591,236.446 263.181 C 238.490 264.535,239.855 264.751,253.000 265.796 C 265.140 266.761,268.777 267.123,274.800 267.966 C 285.386 269.449,291.916 269.679,302.000 268.925 C 313.056 268.099,312.878 268.064,313.963 271.276 C 314.983 274.297,315.012 275.297,314.100 276.069 C 312.172 277.704,310.019 278.495,305.493 279.233 C 302.872 279.661,300.428 280.166,300.063 280.356 C 295.332 282.815,289.573 283.569,272.400 283.976 C 243.651 284.658,228.637 283.598,221.800 280.404 C 220.694 279.888,216.910 279.244,212.447 278.813 C 207.831 278.367,203.668 276.987,203.086 275.710 C 202.566 274.569,200.478 273.320,198.512 272.975 C 196.726 272.662,195.455 271.931,193.756 270.239 C 193.072 269.557,191.452 268.432,190.156 267.738 C 188.687 266.950,187.387 265.875,186.703 264.881 C 186.099 264.004,184.681 262.694,183.551 261.969 C 182.284 261.156,181.291 260.157,180.960 259.365 C 180.664 258.658,179.864 257.657,179.181 257.140 C 177.201 255.642,176.255 254.586,175.416 252.939 C 174.985 252.092,173.703 250.402,172.566 249.182 C 170.507 246.972,168.800 244.180,168.800 243.023 C 168.800 242.688,167.945 241.980,166.900 241.450 C 165.441 240.711,164.792 240.059,164.105 238.644 C 163.613 237.630,162.980 236.800,162.699 236.800 C 161.729 236.800,158.993 235.088,156.878 233.156 C 155.533 231.928,154.142 231.063,153.078 230.794 C 149.100 229.786,145.748 228.535,144.725 227.675 C 143.522 226.663,138.437 225.474,133.200 224.978 C 129.768 224.654,128.576 224.150,126.620 222.193 C 125.789 221.362,124.832 220.800,124.249 220.800 C 123.711 220.800,122.310 220.446,121.136 220.014 C 119.961 219.581,118.265 219.042,117.368 218.816 C 116.470 218.590,115.063 217.819,114.242 217.103 C 113.420 216.386,111.459 215.256,109.884 214.591 C 107.686 213.662,106.738 212.997,105.810 211.729 C 104.903 210.492,104.027 209.863,102.314 209.223 C 100.647 208.599,99.733 207.956,98.935 206.846 C 98.334 206.010,97.327 205.097,96.697 204.819 C 96.068 204.540,95.069 203.578,94.477 202.681 C 93.884 201.784,92.644 200.282,91.720 199.343 C 89.345 196.930,89.050 195.499,89.341 187.800 C 89.636 179.977,91.107 172.800,92.415 172.800 C 92.960 172.800,94.038 170.010,94.568 167.228 C 95.780 160.870,98.764 158.968,103.201 161.728 " stroke="none" fill="#04241c" fill-rule="evenodd"></path></g></svg>